<?xml version="1.0" encoding="UTF-8"?>
<svg version="1.1" xmlns="http://www.w3.org/2000/svg" width="919" height="272">
<path d="M0 0 C0.68578125 0.00580078 1.3715625 0.01160156 2.078125 0.01757812 C6.38308393 0.12027276 10.04569814 0.73048306 14 2.4375 C14.4539917 2.94804932 14.9079834 3.45859863 15.37573242 3.98461914 C17.5330899 5.91434023 18.81209442 5.8191666 21.67578125 5.84375 C22.58650391 5.86566406 23.49722656 5.88757813 24.43554688 5.91015625 C25.85963867 5.92369141 25.85963867 5.92369141 27.3125 5.9375 C39.3316729 6.0531484 39.3316729 6.0531484 44 9.4375 C48.66815007 19.16969852 47.11369369 31.54614702 47.04459953 42.09585762 C47.02703236 44.86550044 47.01685698 47.6350843 47.00868225 50.4047699 C46.98436473 58.27063543 46.94838005 66.13641985 46.90405273 74.00219727 C46.87734112 78.83238651 46.8602581 83.66253152 46.84918404 88.49278069 C46.84296753 90.33047071 46.83295389 92.16815189 46.81910515 94.00580025 C46.79998441 96.56194933 46.79300763 99.11786155 46.78881836 101.67407227 C46.78005676 102.43506226 46.77129517 103.19605225 46.76226807 103.98010254 C46.6270241 108.16612774 46.6270241 108.16612774 49 111.4375 C51.44012949 111.68037489 51.44012949 111.68037489 54.125 111.5625 C55.03507812 111.54445313 55.94515625 111.52640625 56.8828125 111.5078125 C57.58148438 111.48460937 58.28015625 111.46140625 59 111.4375 C58.98952637 110.38361084 58.97905273 109.32972168 58.96826172 108.24389648 C58.93188456 104.30968665 58.90903541 100.37549151 58.89013672 96.44116211 C58.88011935 94.74289443 58.86650162 93.04464383 58.84912109 91.34643555 C58.82468421 88.89627858 58.8134741 86.44635095 58.8046875 83.99609375 C58.79436493 83.24476669 58.78404236 82.49343964 58.77340698 81.71934509 C58.77220185 75.97363079 59.2442012 70.64640816 62.9375 66 C65 64.4375 65 64.4375 68 64.4375 C67.9685791 63.0148584 67.9685791 63.0148584 67.93652344 61.56347656 C67.8682644 58.03733575 67.81816071 54.51189901 67.78027344 50.98535156 C67.76018401 49.46049915 67.73290684 47.93572352 67.69824219 46.41113281 C67.64960204 44.21660402 67.62700604 42.02309531 67.609375 39.828125 C67.5779541 37.8486084 67.5779541 37.8486084 67.54589844 35.82910156 C68 32.4375 68 32.4375 69.83691406 30.03808594 C73.03791503 27.66948974 75.64816987 27.30668585 79.515625 27.24462891 C80.42666992 27.22856598 81.33771484 27.21250305 82.27636719 27.19595337 C86.4225177 27.15148778 90.56851092 27.11047911 94.71484375 27.08740234 C96.90505568 27.07079996 99.0952125 27.04345424 101.28515625 27.00537109 C104.44039038 26.95079048 107.59435837 26.92876172 110.75 26.9140625 C111.73129883 26.89139313 112.71259766 26.86872375 113.72363281 26.84536743 C116.24654496 26.8532599 118.53426184 26.90402788 121 27.4375 C126.35786673 33.31624445 125.05498338 42.61057188 124.8125 50.0625 C124.77447266 50.88234375 124.73644531 51.7021875 124.69726562 52.546875 C124.57732213 58.07316057 125.36833498 61.01310213 129 65.4375 C131.84002373 69.11901224 133.12833697 71.75468153 133.11352539 76.44995117 C133.11344986 77.25055466 133.11337433 78.05115814 133.11329651 78.87602234 C133.10813522 79.73548965 133.10297394 80.59495697 133.09765625 81.48046875 C133.09553383 82.80586418 133.09553383 82.80586418 133.09336853 84.15803528 C133.08777069 86.98039128 133.07521861 89.80266797 133.0625 92.625 C133.05748472 94.53841031 133.05292186 96.45182187 133.04882812 98.36523438 C133.03780197 103.05602014 133.02053883 107.74674663 133 112.4375 C133.99 112.1075 134.98 111.7775 136 111.4375 C140.14168256 112.57443247 144.03089459 114.08075243 146.5625 117.625 C148.07890454 127.37331488 148.07890454 127.37331488 146.0546875 131.24609375 C144.11717477 133.68930949 142.20725572 135.33134463 139.4375 136.75 C136.6315472 138.69258271 136.28646694 139.76956322 135.0625 142.875 C133.23634138 147.33490132 131.59278963 149.4943967 127 151.4375 C122.42658049 151.86740143 119.52725934 150.75971404 115.625 148.375 C112.31693561 144.67311842 112.04855629 142.22460045 111 137.4375 C104.34720156 137.38648214 97.69445423 137.3516338 91.04150391 137.32763672 C88.7817191 137.31762481 86.5219471 137.30401128 84.26220703 137.28662109 C81.00029322 137.26216034 77.73855181 137.25096847 74.4765625 137.2421875 C73.47823395 137.23186493 72.4799054 137.22154236 71.45132446 137.21090698 C60.48798749 136.99046185 60.48798749 136.99046185 50.84375 141.2421875 C50.4003125 141.92539063 49.956875 142.60859375 49.5 143.3125 C45.07564163 149.05164411 39.59341986 150.91482075 32.5625 151.9375 C25.8105527 150.98985827 19.20344342 149.33280269 14.5 144.125 C9.20454191 136.87052852 8.12309768 130.266585 9 121.4375 C10.57226651 114.72185002 15.36632447 110.1285288 21 106.4375 C21.66 106.4375 22.32 106.4375 23 106.4375 C22.67 76.0775 22.34 45.7175 22 14.4375 C16.18997721 14.4375 15.36540167 14.48790428 11 17.4375 C7.40117994 18.63710669 4.41862018 18.60636729 0.625 18.625 C-0.68210937 18.63917969 -1.98921875 18.65335938 -3.3359375 18.66796875 C-7.69644318 18.39369387 -10.61421535 17.68470619 -13.875 14.75 C-15.59132973 11.22198889 -15.1084904 9.15420311 -14 5.4375 C-9.58976943 0.805751 -6.43525472 -0.30845676 0 0 Z M-8 8.4375 C-7.67 9.4275 -7.34 10.4175 -7 11.4375 C-1.39 11.4375 4.22 11.4375 10 11.4375 C10.33 10.4475 10.66 9.4575 11 8.4375 C7.96570323 6.92035161 4.82398333 7.29386084 1.5 7.3125 C0.81035156 7.30863281 0.12070313 7.30476563 -0.58984375 7.30078125 C-4.42166214 7.24709134 -4.42166214 7.24709134 -8 8.4375 Z M30 13.4375 C30 43.4675 30 73.4975 30 104.4375 C33.3 104.7675 36.6 105.0975 40 105.4375 C40.04631607 94.03282517 40.08186553 82.62817268 40.10362434 71.223423 C40.11406684 65.92788626 40.12823462 60.6324138 40.15087891 55.33691406 C40.17259056 50.22761146 40.18456512 45.11837074 40.18975449 40.00902557 C40.19345325 38.05856095 40.20067589 36.10809976 40.21146011 34.15766144 C40.22595267 31.42827502 40.22797887 28.69914519 40.22705078 25.96972656 C40.23424133 25.16124268 40.24143188 24.35275879 40.24884033 23.51977539 C40.23470968 19.68586561 40.1815693 16.68334663 38 13.4375 C36.02 13.4375 34.04 13.4375 32 13.4375 C32 14.4275 32 15.4175 32 16.4375 C31.34 15.4475 30.68 14.4575 30 13.4375 Z M75 34.4375 C75 44.3375 75 54.2375 75 64.4375 C88.86 64.4375 102.72 64.4375 117 64.4375 C117 54.5375 117 44.6375 117 34.4375 C114.69 34.4375 112.38 34.4375 110 34.4375 C109.67 40.7075 109.34 46.9775 109 53.4375 C102.25 52.3125 102.25 52.3125 99 50.4375 C99 49.7775 99 49.1175 99 48.4375 C95.61120807 48.84826266 93.242023 49.79724168 90.375 51.5625 C89.26125 52.18125 88.1475 52.8 87 53.4375 C86.01 53.1075 85.02 52.7775 84 52.4375 C83.93941406 51.22191406 83.87882812 50.00632812 83.81640625 48.75390625 C83.73201668 47.16925772 83.6473679 45.58462298 83.5625 44 C83.52318359 43.19755859 83.48386719 42.39511719 83.44335938 41.56835938 C83.5945704 37.68510439 83.5945704 37.68510439 82 34.4375 C79.69 34.4375 77.38 34.4375 75 34.4375 Z M90 34.4375 C90 37.0775 90 39.7175 90 42.4375 C90.7425 41.921875 91.485 41.40625 92.25 40.875 C95 39.4375 95 39.4375 97.0625 39.75 C97.701875 39.976875 98.34125 40.20375 99 40.4375 C100.32 40.4375 101.64 40.4375 103 40.4375 C103 38.4575 103 36.4775 103 34.4375 C98.71 34.4375 94.42 34.4375 90 34.4375 Z M67 71.4375 C67 84.9675 67 98.4975 67 112.4375 C86.47 112.4375 105.94 112.4375 126 112.4375 C126 98.9075 126 85.3775 126 71.4375 C120.72 71.4375 115.44 71.4375 110 71.4375 C109.67 78.3675 109.34 85.2975 109 92.4375 C103.40277778 92.4375 103.40277778 92.4375 100.3125 89.9375 C97.95191715 87.88465404 97.95191715 87.88465404 95 87.4375 C95 88.0975 95 88.7575 95 89.4375 C90.23783752 91.81858124 88.82360246 92.4375 83 92.4375 C82.67 85.5075 82.34 78.5775 82 71.4375 C77.05 71.4375 72.1 71.4375 67 71.4375 Z M90 71.4375 C90 75.0675 90 78.6975 90 82.4375 C90.7425 81.921875 91.485 81.40625 92.25 80.875 C95 79.4375 95 79.4375 97.0625 79.625 C99.0820861 80.4719232 101.04122345 81.45811173 103 82.4375 C103 78.8075 103 75.1775 103 71.4375 C98.71 71.4375 94.42 71.4375 90 71.4375 Z M17.625 117.875 C15.94561664 120.52325838 15.16901214 122.31077537 15 125.4375 C15.66 126.0975 16.32 126.7575 17 127.4375 C16.34 127.4375 15.68 127.4375 15 127.4375 C15.46501356 132.18063827 15.96133669 135.68981525 19 139.4375 C23.74795537 142.78899791 28.10839389 144.72927478 34 144.4375 C38.85919321 143.35767929 43.07595363 141.59864292 46 137.4375 C47.8439745 132.58381999 48.57394137 127.60297236 48 122.4375 C45.72529859 118.14084179 43.10586086 115.06946209 39 112.4375 C38.01 112.7675 37.02 113.0975 36 113.4375 C36.33 114.0975 36.66 114.7575 37 115.4375 C35.68 114.7775 34.36 114.1175 33 113.4375 C33.66 112.7775 34.32 112.1175 35 111.4375 C27.35238302 110.90082512 23.14342884 112.21134935 17.625 117.875 Z M54 119.4375 C54.66 123.0675 55.32 126.6975 56 130.4375 C63.57171078 130.50544991 71.14330693 130.56041616 78.71524906 130.59293652 C82.23174998 130.60854978 85.7480303 130.62970765 89.2644043 130.66381836 C93.31300905 130.70284335 97.36138439 130.71724501 101.41015625 130.73046875 C103.29179222 130.75369453 103.29179222 130.75369453 105.21144104 130.77738953 C111.66023497 130.77862715 116.27866876 130.44294017 122 127.4375 C124.51171875 127.546875 124.51171875 127.546875 126.6875 128.1875 C127.41324219 128.38859375 128.13898438 128.5896875 128.88671875 128.796875 C130.29308764 129.22320494 131.69805609 129.65418284 133.1015625 130.08984375 C135.18745857 130.65571617 135.18745857 130.65571617 137.6875 129.25 C140.05439981 127.63968177 140.05439981 127.63968177 141.0625 125.5 C141.18677197 123.28749013 141.18677197 123.28749013 139.50067139 121.3369751 C136.07148702 118.73221449 133.05951375 118.90537397 128.92675781 118.98339844 C127.71156212 118.98252228 127.71156212 118.98252228 126.47181702 118.98162842 C123.79848129 118.98441148 121.12626553 119.0155131 118.453125 119.046875 C116.59796762 119.05433662 114.74280236 119.06002993 112.88763428 119.06402588 C108.00809923 119.07928845 103.12904147 119.11857564 98.24969482 119.1628418 C93.26939348 119.20378106 88.28901491 119.22203402 83.30859375 119.2421875 C73.53885296 119.28506927 63.76946619 119.35332818 54 119.4375 Z M118 137.4375 C118.9358264 140.67035484 119.48056516 142.10943589 122.375 143.9375 C125.01196681 144.70280418 125.01196681 144.70280418 127.3125 143.375 C129.21249017 141.53290126 129.21249017 141.53290126 129.4375 138.875 C129.293125 138.070625 129.14875 137.26625 129 136.4375 C124.65248352 133.53915568 121.39546346 133.14849352 118 137.4375 Z " fill="#D3E755" transform="translate(122,67.5625)"/>
<path d="M0 0 C0.68753301 1.65816784 1.35561283 3.32459336 2 5 C2.99 5.33 3.98 5.66 5 6 C7.02350324 9.03525486 7.32124018 10.19426202 7.625 13.6875 C7.73714844 14.89986328 7.73714844 14.89986328 7.8515625 16.13671875 C7.90054688 16.75160156 7.94953125 17.36648437 8 18 C7.34 18 6.68 18 6 18 C6.185625 18.61875 6.37125 19.2375 6.5625 19.875 C7 22 7 22 6 24 C4.35 23.67 2.7 23.34 1 23 C1 23.66 1 24.32 1 25 C-6.59 25 -14.18 25 -22 25 C-21.56873679 31.61430493 -21.56873679 31.61430493 -19 35 C-15.37925876 37.64592629 -11.29405869 37.39981924 -7 37 C-1.98056497 35.95580701 -1.98056497 35.95580701 2 33 C4.125 33.375 4.125 33.375 6 34 C6 34.99 6 35.98 6 37 C6.66 37 7.32 37 8 37 C7.65415128 39.5592805 7.31949609 41.52075586 5.875 43.6875 C-0.17963902 47.92574731 -8.86749421 48.06916369 -16 48 C-23.23146601 46.71058556 -29.41124035 43.39362061 -33.8125 37.4375 C-36.73835809 33.18601041 -37.20879147 29.41600877 -37.5625 24.3125 C-37.64628906 23.13300781 -37.73007812 21.95351562 -37.81640625 20.73828125 C-37.87699219 19.83464844 -37.93757813 18.93101562 -38 18 C-39.0725 18.04125 -40.145 18.0825 -41.25 18.125 C-46.36125654 17.95462478 -46.36125654 17.95462478 -49 16 C-49.66666667 14.66666667 -50.33333333 13.33333333 -51 12 C-53.0335948 10.73195434 -53.0335948 10.73195434 -55 10 C-55.33773438 10.5053125 -55.67546875 11.010625 -56.0234375 11.53125 C-56.46945312 12.1809375 -56.91546875 12.830625 -57.375 13.5 C-57.81585938 14.1496875 -58.25671875 14.799375 -58.7109375 15.46875 C-59.13632812 15.9740625 -59.56171875 16.479375 -60 17 C-60.66 17 -61.32 17 -62 17 C-62.33 26.24 -62.66 35.48 -63 45 C-67.95 45.495 -67.95 45.495 -73 46 C-74.53907316 42.92185368 -74.10035937 39.69836587 -74.0625 36.32421875 C-74.05871338 35.56204544 -74.05492676 34.79987213 -74.05102539 34.01460266 C-74.03466861 30.74998448 -74.00663478 27.48549079 -73.97949219 24.22094727 C-73.96135999 21.83871036 -73.94929119 19.45649415 -73.9375 17.07421875 C-73.92920166 16.34071701 -73.92090332 15.60721527 -73.91235352 14.85148621 C-73.88863392 9.86881647 -74.43011493 5.70965522 -76 1 C-75.67 0.01 -75.34 -0.98 -75 -2 C-69.26157749 -2.20413361 -64.39460953 -2.27141454 -59 0 C-59 -0.33 -59 -0.66 -59 -1 C-55.64260906 -1.89530425 -52.33373168 -2.17597112 -48.875 -2.3125 C-48.02679688 -2.34988281 -47.17859375 -2.38726562 -46.3046875 -2.42578125 C-44 -2 -44 -2 -42.25390625 -0.11328125 C-41 2 -41 2 -40.0625 4.125 C-38.74149996 6.45617654 -37.44629561 7.02148176 -35 8 C-34.401875 7.175 -33.80375 6.35 -33.1875 5.5 C-32.465625 4.675 -31.74375 3.85 -31 3 C-30.01 3 -29.02 3 -28 3 C-28 2.34 -28 1.68 -28 1 C-27.01 1 -26.02 1 -25 1 C-25 0.34 -25 -0.32 -25 -1 C-22.4385681 -1.3641989 -19.87641581 -1.71662798 -17.3125 -2.0625 C-16.59126953 -2.16626953 -15.87003906 -2.27003906 -15.12695312 -2.37695312 C-9.70431406 -3.09501949 -4.6934668 -3.23687366 0 0 Z M-65 1 C-64 4 -64 4 -64 4 Z M-17 6 C-17 6.33 -17 6.66 -17 7 C-15.02 7 -13.04 7 -11 7 C-11 6.67 -11 6.34 -11 6 C-12.98 6 -14.96 6 -17 6 Z M-20 10 C-20 10.99 -20 11.98 -20 13 C-17.47524538 14.26237731 -15.68799534 14.09856404 -12.875 14.0625 C-11.96492188 14.05347656 -11.05484375 14.04445312 -10.1171875 14.03515625 C-9.06917969 14.01775391 -9.06917969 14.01775391 -8 14 C-8 12.68 -8 11.36 -8 10 C-12.67331973 7.92296901 -15.48462944 6.98975296 -20 10 Z M-44 15 C-40 16 -40 16 -40 16 Z M-25 15 C-25 15.33 -25 15.66 -25 16 C-17.74 16 -10.48 16 -3 16 C-3 15.67 -3 15.34 -3 15 C-10.26 15 -17.52 15 -25 15 Z " fill="#010101" transform="translate(434,136)"/>
<path d="M0 0 C4.33406987 0.0814438 8.66679072 0.19424043 13 0.3125 C14.83111328 0.34633789 14.83111328 0.34633789 16.69921875 0.38085938 C25.63451011 0.64650317 33.3599489 1.3599489 40 8 C42.88329745 12.94279563 42.2500668 18.24926525 41.75 23.75 C40.79332385 26.62002846 39.25547622 28.03555297 37 30 C37.75150023 33.27773504 37.75150023 33.27773504 41 35 C41 35.66 41 36.32 41 37 C41.66 37 42.32 37 43 37 C43 37.99 43 38.98 43 40 C43.66 40 44.32 40 45 40 C47.45254338 44.35571704 47.68906893 48.08838077 47 53 C45.90147197 55.88960633 44.56365469 58.31246849 43 61 C42.34 61 41.68 61 41 61 C40.34 62.32 39.68 63.64 39 65 C38.34 65 37.68 65 37 65 C36.34 65.66 35.68 66.32 35 67 C29.34557081 68.71983732 24.01010568 69.3810578 18.125 69.625 C17.38636719 69.66367188 16.64773438 69.70234375 15.88671875 69.7421875 C10.25658697 70.01540013 4.63582269 70.03980309 -1 70 C-0.99476318 69.32122803 -0.98952637 68.64245605 -0.98413086 67.94311523 C-0.78518301 52.80164463 -0.78518301 52.80164463 -1.5 37.6875 C-2.47640944 25.83306425 -2.08086353 13.88445098 -2 2 C-1.34 2 -0.68 2 0 2 C0 1.34 0 0.68 0 0 Z M13 10 C10.53771509 15.07846263 10.27797838 19.44515426 11.8125 24.875 C14.99560369 27.96715787 17.98052265 28.12100836 22.32421875 28.328125 C25.24020605 27.97054408 26.2326451 27.57826329 28.1875 25.4375 C30.10399921 21.80276011 30.71533923 20.02378318 30 16 C28.15427705 13.41598787 25.86503068 12.2843241 23 11 C23 10.67 23 10.34 23 10 C19.7 10 16.4 10 13 10 Z M10 28 C10 28.33 10 28.66 10 29 C13.96 29 17.92 29 22 29 C22 28.67 22 28.34 22 28 C18.04 28 14.08 28 10 28 Z M33 31 C32.67 31.66 32.34 32.32 32 33 C32.66 33 33.32 33 34 33 C33.67 32.34 33.34 31.68 33 31 Z M11 41 C10.33222376 47.00998618 10.82680161 52.34968418 13 58 C12.67 58.66 12.34 59.32 12 60 C16.29 60 20.58 60 25 60 C25 59.34 25 58.68 25 58 C26.65 57.67 28.3 57.34 30 57 C30 56.34 30 55.68 30 55 C30.66 55 31.32 55 32 55 C32.33 53.68 32.66 52.36 33 51 C33.66 51 34.32 51 35 51 C35 49.68 35 48.36 35 47 C34.34 47 33.68 47 33 47 C32.7525 45.8553125 32.7525 45.8553125 32.5 44.6875 C30.68280446 41.43169133 28.86593158 40.62780029 25.3671875 39.5 C20.55323633 38.48319183 14.66783579 37.33216421 11 41 Z " fill="#010101" transform="translate(547,112)"/>
<path d="M0 0 C3.3 0 6.6 0 10 0 C10.6031945 5.68726246 11.09037921 11.35360265 11.4375 17.0625 C11.81094779 22.5738666 12.61819579 27.65702371 14 33 C17.36331609 31.91186833 18.98896841 31.01188018 21.4375 28.375 C25.56279286 24.64363431 30.92504983 25.63496557 36.1484375 25.82421875 C37.55996094 25.91123047 37.55996094 25.91123047 39 26 C37.38711003 30.54407814 36.14438102 31.59047615 32 34 C30.7625 35.485 30.7625 35.485 29.5 37 C27 40 27 40 24.25 41.625 C21.87854932 42.78423124 21.87854932 42.78423124 21.125 44.9375 C20.98167591 47.30234748 21.1977047 48.76354989 22 51 C23.76691376 52.95127157 23.76691376 52.95127157 25.9375 54.6875 C26.64777344 55.28949219 27.35804688 55.89148438 28.08984375 56.51171875 C29.93300348 58.0485636 29.93300348 58.0485636 32 59 C32 59.66 32 60.32 32 61 C32.66 61 33.32 61 34 61 C37.69966733 64.4052641 40.68563548 67.81298543 41 73 C39.1875 74.0625 39.1875 74.0625 37 75 C36.01 74.67 35.02 74.34 34 74 C33.32324219 73.83242187 32.64648438 73.66484375 31.94921875 73.4921875 C26.42811819 71.98556593 23.7836691 70.13012333 20.3515625 65.5859375 C18.54388755 63.4647929 16.66219309 62.70469817 14 62 C13.91363281 62.69867188 13.82726562 63.39734375 13.73828125 64.1171875 C13.31795176 66.83968863 12.86256547 69.38196209 12 72 C9.375 73.625 9.375 73.625 7 74 C7 74.33 7 74.66 7 75 C4.6568787 74.74438677 2.32156597 74.40729228 0 74 C-1.43221674 71.13556652 -1.12729341 68.68816167 -1.12939453 65.48657227 C-1.13202301 64.48386795 -1.13202301 64.48386795 -1.13470459 63.46090698 C-1.1391141 61.24604717 -1.13618795 59.03126691 -1.1328125 56.81640625 C-1.13348588 55.27945439 -1.13445619 53.74250264 -1.13571167 52.20555115 C-1.13718749 48.98166898 -1.1350381 45.7578145 -1.13037109 42.53393555 C-1.12467866 38.40000736 -1.12795046 34.26614416 -1.13394356 30.13221836 C-1.13755638 26.95724498 -1.13640717 23.782287 -1.13381577 20.60731316 C-1.13314825 19.08306813 -1.13396882 17.55882172 -1.13629532 16.03457832 C-1.13883311 13.90395526 -1.1349651 11.77343749 -1.12939453 9.64282227 C-1.12859894 8.42973892 -1.12780334 7.21665558 -1.12698364 5.96681213 C-1 3 -1 3 0 0 Z M10 68 C11 70 11 70 11 70 Z " fill="#010101" transform="translate(698,108)"/>
<path d="M0 0 C3.58326501 -0.05814085 7.16640838 -0.09364357 10.75 -0.125 C11.76578125 -0.14175781 12.7815625 -0.15851563 13.828125 -0.17578125 C14.8078125 -0.18222656 15.7875 -0.18867188 16.796875 -0.1953125 C17.69760742 -0.20578613 18.59833984 -0.21625977 19.52636719 -0.22705078 C22.18310902 0.01680728 23.77885068 0.53577515 26 2 C28.64887339 9.69672645 28.18993805 18.49786326 27.92675781 26.5546875 C27.83720095 30.33297326 28.03750126 33.60003505 29.0234375 37.26171875 C30.20988805 41.80345144 29.8102308 44.46270754 29 49 C21.375 50.25 21.375 50.25 18 48 C15 44.44444444 15 44.44444444 15 42 C11.46429549 43.07142561 9.3487586 44.53643395 6.75 47.0625 C3.36305541 50.07311742 0.64364624 50.96119737 -3.859375 51.16796875 C-8.27078619 50.82181787 -10.95872307 48.92227385 -14.1875 46.0625 C-18.58829298 38.62667738 -19.86229047 30.38030711 -18 22 C-17.85820313 21.17628906 -17.71640625 20.35257813 -17.5703125 19.50390625 C-15.93074657 12.12585958 -12.06782174 8.30320011 -6 4 C-4.01033294 2.7989205 -2.15533226 1.88423888 0 1 C0 0.67 0 0.34 0 0 Z M1 12 C-0.2375 13.051875 -0.2375 13.051875 -1.5 14.125 C-5.40790158 18.61908681 -6.65250181 23.41858487 -7.4375 29.25 C-6.86872467 32.82515921 -5.53694607 34.46305393 -3 37 C-0.07829434 38.34034071 -0.07829434 38.34034071 2.375 37 C5.72370727 34.44860398 7.73076775 31.50337611 10 28 C10.66 27.01 11.32 26.02 12 25 C11.67 24.01 11.34 23.02 11 22 C11.66 22 12.32 22 13 22 C13.22174933 20.54364629 13.42698698 19.08477044 13.625 17.625 C13.74101563 16.81289062 13.85703125 16.00078125 13.9765625 15.1640625 C13.98429688 14.44992188 13.99203125 13.73578125 14 13 C13.34 12.34 12.68 11.68 12 11 C12.66 10.34 13.32 9.68 14 9 C12.39667209 8.91878076 10.79215974 8.86070866 9.1875 8.8125 C8.29417969 8.77769531 7.40085937 8.74289063 6.48046875 8.70703125 C3.51633151 9.0571262 2.85458899 9.74294889 1 12 Z " fill="#010101" transform="translate(618,133)"/>
<path d="M0 0 C1.64574566 -0.02688151 3.29161413 -0.04634123 4.9375 -0.0625 C5.85402344 -0.07410156 6.77054687 -0.08570312 7.71484375 -0.09765625 C10 0 10 0 11 1 C11.13302204 2.59813538 11.20334655 4.20159541 11.24609375 5.8046875 C11.29540039 7.26841797 11.29540039 7.26841797 11.34570312 8.76171875 C11.40666759 10.82932205 11.46398766 12.89703618 11.51757812 14.96484375 C11.56881836 16.43244141 11.56881836 16.43244141 11.62109375 17.9296875 C11.6461499 18.82929199 11.67120605 19.72889648 11.69702148 20.65576172 C11.85849778 23.26817706 11.85849778 23.26817706 14 26 C17.41589896 26.29071481 19.73842267 26.08719244 23 25 C26.85179658 24.27384163 30.16652355 24.10280338 34 25 C38.43386641 28.50584786 42.19664842 32.58994527 44 38 C44.10835422 40.48996169 44.16401028 42.95113316 44.16796875 45.44140625 C44.17296135 46.52662819 44.17296135 46.52662819 44.17805481 47.6337738 C44.18311173 49.1610348 44.18546352 50.68830681 44.18530273 52.21557617 C44.18749514 54.55731214 44.20567948 56.89858137 44.22460938 59.24023438 C44.22754232 60.72395672 44.22952778 62.2076813 44.23046875 63.69140625 C44.23765427 64.39350723 44.24483978 65.09560822 44.25224304 65.81898499 C44.22883364 70.77116636 44.22883364 70.77116636 42 73 C39.6171875 73.4140625 39.6171875 73.4140625 36.875 73.625 C35.50988281 73.73714844 35.50988281 73.73714844 34.1171875 73.8515625 C33.41851563 73.90054688 32.71984375 73.94953125 32 74 C30.38038042 70.76076084 30.56923708 67.19071538 30.375 63.625 C30.32851318 62.81659668 30.28202637 62.00819336 30.23413086 61.17529297 C29.95443589 55.48985698 30.16074783 50.03252605 30.94140625 44.3828125 C31.00954804 41.61171313 30.60585563 40.25124697 29 38 C24.83500482 36.97839741 21.05801807 36.4645337 17 38 C12.42720314 42.699819 11.90748929 46.46882482 11.71875 52.82421875 C11.68136719 53.93474609 11.64398438 55.04527344 11.60546875 56.18945312 C11.53480324 58.53319251 11.46449425 60.87694267 11.39453125 63.22070312 C11.35714844 64.32736328 11.31976563 65.43402344 11.28125 66.57421875 C11.23581055 68.09921997 11.23581055 68.09921997 11.18945312 69.6550293 C11 72 11 72 10 73 C5.545 73.495 5.545 73.495 1 74 C0.67 51.89 0.34 29.78 0 7 C-0.33 7 -0.66 7 -1 7 C-0.67 4.69 -0.34 2.38 0 0 Z M23 34 C27 35 27 35 27 35 Z " fill="#020201" transform="translate(492,108)"/>
<path d="M0 0 C3.74013389 3.3835694 3.83743794 7.21090354 4.11328125 11.9921875 C3.92578125 14.7421875 3.92578125 14.7421875 2.92578125 17.7421875 C2.74015625 18.7940625 2.74015625 18.7940625 2.55078125 19.8671875 C2.34453125 20.4859375 2.13828125 21.1046875 1.92578125 21.7421875 C-1.03213123 22.72815833 -2.78666849 22.82274053 -5.85546875 22.734375 C-6.77972656 22.71761719 -7.70398438 22.70085937 -8.65625 22.68359375 C-10.60175587 22.63931852 -12.54709966 22.58723267 -14.4921875 22.52734375 C-15.41644531 22.51316406 -16.34070313 22.49898437 -17.29296875 22.484375 C-18.13794922 22.4622998 -18.98292969 22.44022461 -19.85351562 22.41748047 C-22.1481412 22.57289218 -22.1481412 22.57289218 -23.88867188 24.09814453 C-25.35800856 25.75401802 -25.35800856 25.75401802 -24.82421875 28.3046875 C-23.86378275 31.573403 -23.86378275 31.573403 -21.51171875 33.8671875 C-15.94313454 35.86616645 -9.78154123 34.69340791 -4.07421875 33.7421875 C-4.07421875 33.0821875 -4.07421875 32.4221875 -4.07421875 31.7421875 C-1.10421875 31.2471875 -1.10421875 31.2471875 1.92578125 30.7421875 C3.16378265 34.31863598 2.67504196 37.07913516 1.92578125 40.7421875 C0.93578125 40.7421875 -0.05421875 40.7421875 -1.07421875 40.7421875 C-1.56921875 41.7321875 -1.56921875 41.7321875 -2.07421875 42.7421875 C-8.66919548 46.0218516 -17.34199163 46.61873994 -24.51171875 45.0546875 C-31.33809491 42.53970681 -35.5514192 39.01675877 -39.07421875 32.7421875 C-41.53093803 26.54189598 -42.31635086 19.38577501 -40.13671875 12.9921875 C-39.78609375 12.2496875 -39.43546875 11.5071875 -39.07421875 10.7421875 C-38.97109375 9.7521875 -38.86796875 8.7621875 -38.76171875 7.7421875 C-37.85562582 3.78832746 -36.18415645 2.27353214 -33.07421875 -0.2578125 C-30.76171875 -1.0703125 -30.76171875 -1.0703125 -29.07421875 -1.2578125 C-29.07421875 -1.9178125 -29.07421875 -2.5778125 -29.07421875 -3.2578125 C-26.53369761 -3.62289927 -23.99245595 -3.97512707 -21.44921875 -4.3203125 C-20.37994141 -4.4759668 -20.37994141 -4.4759668 -19.2890625 -4.63476562 C-11.55949474 -5.66301088 -6.42148514 -4.51122822 0 0 Z M-21.07421875 3.7421875 C-21.07421875 4.0721875 -21.07421875 4.4021875 -21.07421875 4.7421875 C-19.09421875 4.7421875 -17.11421875 4.7421875 -15.07421875 4.7421875 C-15.07421875 4.4121875 -15.07421875 4.0821875 -15.07421875 3.7421875 C-17.05421875 3.7421875 -19.03421875 3.7421875 -21.07421875 3.7421875 Z M-23.07421875 6.7421875 C-22.74421875 8.3921875 -22.41421875 10.0421875 -22.07421875 11.7421875 C-18.77421875 11.7421875 -15.47421875 11.7421875 -12.07421875 11.7421875 C-12.07421875 10.4221875 -12.07421875 9.1021875 -12.07421875 7.7421875 C-15.99819819 5.49991353 -18.69825731 5.28353369 -23.07421875 6.7421875 Z M-30.07421875 12.7421875 C-30.07421875 13.0721875 -30.07421875 13.4021875 -30.07421875 13.7421875 C-22.48421875 13.7421875 -14.89421875 13.7421875 -7.07421875 13.7421875 C-7.07421875 13.4121875 -7.07421875 13.0821875 -7.07421875 12.7421875 C-14.66421875 12.7421875 -22.25421875 12.7421875 -30.07421875 12.7421875 Z M-29.07421875 25.7421875 C-28.07421875 27.7421875 -28.07421875 27.7421875 -28.07421875 27.7421875 Z " fill="#010101" transform="translate(782.07421875,138.2578125)"/>
<path d="M0 0 C0.83683319 0.02265427 1.67366638 0.04530853 2.53585815 0.06864929 C4.30285954 0.11857594 6.06972485 0.17353577 7.83642578 0.2331543 C10.55089288 0.32409163 13.26544037 0.39868581 15.98046875 0.47070312 C17.69534101 0.52117587 19.41018627 0.5725762 21.125 0.625 C21.94163116 0.6479866 22.75826233 0.67097321 23.59963989 0.69465637 C29.3134811 0.89551235 29.3134811 0.89551235 30.4296875 2.01171875 C30.4296875 4.98171875 30.4296875 7.95171875 30.4296875 11.01171875 C21.1896875 11.01171875 11.9496875 11.01171875 2.4296875 11.01171875 C0.60064858 17.10012834 0.60064858 17.10012834 0.3046875 22.94921875 C0.33175781 24.10744141 0.33175781 24.10744141 0.359375 25.2890625 C0.38257813 25.85753906 0.40578125 26.42601562 0.4296875 27.01171875 C2.89919629 28.24647314 4.57277845 28.1373925 7.33203125 28.15234375 C8.30462891 28.17167969 9.27722656 28.19101563 10.27929688 28.2109375 C12.33378744 28.24472419 14.38859267 28.26301577 16.44335938 28.265625 C23.89668918 28.45306811 23.89668918 28.45306811 26.62109375 31.30859375 C27.4296875 34.01171875 27.4296875 34.01171875 27.4296875 38.01171875 C26.7696875 38.67171875 26.1096875 39.33171875 25.4296875 40.01171875 C25.4296875 40.34171875 25.4296875 40.67171875 25.4296875 41.01171875 C18.1696875 41.34171875 10.9096875 41.67171875 3.4296875 42.01171875 C3.0996875 42.67171875 2.7696875 43.33171875 2.4296875 44.01171875 C1.7696875 44.01171875 1.1096875 44.01171875 0.4296875 44.01171875 C0.4296875 52.26171875 0.4296875 60.51171875 0.4296875 69.01171875 C-5.5103125 69.50671875 -5.5103125 69.50671875 -11.5703125 70.01171875 C-12.46821935 65.4138472 -12.71687225 60.96632265 -12.703125 56.296875 C-12.70408173 55.56407822 -12.70503845 54.83128143 -12.70602417 54.07627869 C-12.70670213 52.5273327 -12.70487471 50.97838382 -12.70068359 49.42944336 C-12.69539957 47.11239857 -12.70060533 44.79555388 -12.70703125 42.47851562 C-12.710297 34.0526001 -12.45283433 25.72550051 -11.77246094 17.32324219 C-11.50645844 12.9656843 -11.62817408 8.66244144 -11.828125 4.3046875 C-11.74304688 3.54800781 -11.65796875 2.79132813 -11.5703125 2.01171875 C-7.66791465 -0.58987981 -4.50715351 -0.16118323 0 0 Z " fill="#010100" transform="translate(320.5703125,111.98828125)"/>
<path d="M0 0 C2.72943537 -0.05416741 5.45778564 -0.09375225 8.1875 -0.125 C8.95642578 -0.14175781 9.72535156 -0.15851563 10.51757812 -0.17578125 C14.76488735 -0.21223884 18.19083647 -0.12757503 22 2 C23.73311469 4.9147838 24.0743673 6.44224528 23.625 9.8125 C23.41875 10.534375 23.2125 11.25625 23 12 C19.31416418 12.94778635 16.67716794 13.02143554 13 12 C12.67 11.67 12.34 11.34 12 11 C7.90750262 11.11203821 7.90750262 11.11203821 4 12 C2.70784871 13.97340556 2.70784871 13.97340556 2 16 C2.60328125 16.19335938 3.2065625 16.38671875 3.828125 16.5859375 C4.62734375 16.84632813 5.4265625 17.10671875 6.25 17.375 C7.43335938 17.75785156 7.43335938 17.75785156 8.640625 18.1484375 C10.86860903 18.95257743 12.89432604 19.92278153 15 21 C15.804375 21.268125 16.60875 21.53625 17.4375 21.8125 C20.67767704 23.31404546 22.58940624 25.39395269 25 28 C25.66 28.66 26.32 29.32 27 30 C27.47035405 34.70354049 27.50381322 37.02969306 25.3125 41.25 C21.06931669 46.29594772 16.85114625 49.36367555 10.28125 50.44921875 C9.3634375 50.52785156 8.445625 50.60648438 7.5 50.6875 C6.5821875 50.77386719 5.664375 50.86023438 4.71875 50.94921875 C1.98262093 51.00032461 -0.34694533 50.63923238 -3 50 C-3 49.34 -3 48.68 -3 48 C-4.36125 48.061875 -4.36125 48.061875 -5.75 48.125 C-8.91010647 48.00345744 -10.48395457 47.86373735 -13 46 C-13.9375 44.25 -13.9375 44.25 -14 42 C-12.5625 38.75 -12.5625 38.75 -11 36 C-10.34 36 -9.68 36 -9 36 C-8.67 35.34 -8.34 34.68 -8 34 C-3.43151889 34.87855406 0.69954021 36.69954021 4 40 C6.71631546 39.09456151 9.34771188 38.07525194 12 37 C12 36.01 12 35.02 12 34 C11.12601563 33.67128906 11.12601563 33.67128906 10.234375 33.3359375 C5.24845752 31.40742225 0.34329554 29.32621422 -4.5 27.0625 C-5.5003125 26.59972656 -6.500625 26.13695312 -7.53125 25.66015625 C-10.47190283 23.68266028 -11.09477228 22.3802145 -12 19 C-12.47259201 13.80148789 -11.94216207 10.36251617 -9 6 C-6.3125 4.625 -6.3125 4.625 -4 4 C-4 3.34 -4 2.68 -4 2 C-2.68 1.67 -1.36 1.34 0 1 C0 0.67 0 0.34 0 0 Z M4 9 C4 9.33 4 9.66 4 10 C6.31 10 8.62 10 11 10 C11 9.67 11 9.34 11 9 C8.69 9 6.38 9 4 9 Z M-1 13 C0 16 0 16 0 16 Z M25 31 C25 33.31 25 35.62 25 38 C25.33 38 25.66 38 26 38 C26 35.69 26 33.38 26 31 C25.67 31 25.34 31 25 31 Z " fill="#010101" transform="translate(664,133)"/>
<path d="M0 0 C0.75087891 -0.00773438 1.50175781 -0.01546875 2.27539062 -0.0234375 C6.43924014 -0.00878895 9.82896176 0.18766459 13.5625 2.25 C15.08469128 4.87923948 15.68171725 6.41547927 15.25 9.4375 C14.5625 11.25 14.5625 11.25 13.5625 13.25 C11.5825 13.25 9.6025 13.25 7.5625 13.25 C7.2325 12.59 6.9025 11.93 6.5625 11.25 C0.1275 11.745 0.1275 11.745 -6.4375 12.25 C-6.4375 13.57 -6.4375 14.89 -6.4375 16.25 C-4.10535852 17.45628008 -1.94107861 18.4154738 0.5625 19.25 C4.5625 20.58333333 8.5625 21.91666667 12.5625 23.25 C12.5625 23.91 12.5625 24.57 12.5625 25.25 C13.160625 25.518125 13.75875 25.78625 14.375 26.0625 C17.86505857 27.95710322 19.22427798 29.23533395 20.5 33.0625 C20.58337425 37.31458667 19.26531639 39.03583996 16.5625 42.25 C14.3125 43.625 14.3125 43.625 12.5625 44.25 C12.5625 44.91 12.5625 45.57 12.5625 46.25 C11.5725 46.25 10.5825 46.25 9.5625 46.25 C9.2325 47.24 8.9025 48.23 8.5625 49.25 C0.65921692 50.86038684 -6.69836305 52.17177362 -14.4375 49.25 C-16.6015625 47.7578125 -16.6015625 47.7578125 -18.4375 46.25 C-19.035625 45.775625 -19.63375 45.30125 -20.25 44.8125 C-20.641875 44.296875 -21.03375 43.78125 -21.4375 43.25 C-21.125 41.0625 -21.125 41.0625 -20.4375 39.25 C-19.7775 39.25 -19.1175 39.25 -18.4375 39.25 C-18.1075 38.26 -17.7775 37.27 -17.4375 36.25 C-14.00010214 35.13790069 -12.66004143 35.15836529 -9.25 36.5625 C-6.4375 38.25 -6.4375 38.25 -4.4375 40.25 C-1.85395782 40.41687448 -1.85395782 40.41687448 0.5625 40.25 C0.8925 39.59 1.2225 38.93 1.5625 38.25 C3.0475 37.755 3.0475 37.755 4.5625 37.25 C4.5625 36.26 4.5625 35.27 4.5625 34.25 C1.16701423 32.42166151 -2.13379736 30.99072437 -5.8125 29.875 C-10.92316752 28.22332911 -16.76105723 26.03859272 -19.6328125 21.26171875 C-20.81770233 18.29949417 -20.86633789 16.4356529 -20.4375 13.25 C-15.66758363 3.58174643 -10.87992558 -0.11149369 0 0 Z M-3.4375 9.25 C-3.4375 9.58 -3.4375 9.91 -3.4375 10.25 C-1.4575 10.25 0.5225 10.25 2.5625 10.25 C2.5625 9.92 2.5625 9.59 2.5625 9.25 C0.5825 9.25 -1.3975 9.25 -3.4375 9.25 Z M-9.4375 13.25 C-8.4375 16.25 -8.4375 16.25 -8.4375 16.25 Z M16.5625 31.25 C16.5625 33.56 16.5625 35.87 16.5625 38.25 C16.8925 38.25 17.2225 38.25 17.5625 38.25 C17.5625 35.94 17.5625 33.63 17.5625 31.25 C17.2325 31.25 16.9025 31.25 16.5625 31.25 Z " fill="#010101" transform="translate(467.4375,132.75)"/>
<path d="M0 0 C0.33 0.99 0.66 1.98 1 3 C6.50953246 2.87972311 12.01895527 2.75540178 17.52832031 2.62768555 C19.39385642 2.58496701 21.2594161 2.54326332 23.125 2.50268555 C35.43488659 2.23407003 47.71090843 1.76960271 60 1 C60 1.99 60 2.98 60 4 C61.155 3.46375 62.31 2.9275 63.5 2.375 C67.47211975 0.90044755 70.26967301 0.77127351 74.30078125 2.0859375 C76 3 76 3 78 5.5625 C79.38770534 10.3327371 80.47072231 15.2038119 78.05078125 19.8046875 C76.1190056 22.25444716 74.2081324 23.8933956 71.4375 25.3125 C68.6315472 27.25508271 68.28646694 28.33206322 67.0625 31.4375 C65.23634138 35.89740132 63.59278963 38.0568967 59 40 C54.42658049 40.42990143 51.52725934 39.32221404 47.625 36.9375 C45 34 45 34 43 26 C29.14 26 15.28 26 1 26 C1 25.67 1 25.34 1 25 C-2.3 24.67 -5.6 24.34 -9 24 C-8.505 22.515 -8.505 22.515 -8 21 C-7.34 20.67 -6.68 20.34 -6 20 C-6 19.34 -6 18.68 -6 18 C-5.02733437 18.00999275 -5.02733437 18.00999275 -4.03501892 18.02018738 C2.72977732 18.08669141 9.49448027 18.13186326 16.25952148 18.16479492 C18.78234633 18.17985705 21.3051451 18.20031077 23.82788086 18.22631836 C27.45953824 18.26281383 31.09084858 18.2797526 34.72265625 18.29296875 C35.84583755 18.30845261 36.96901886 18.32393646 38.12623596 18.33988953 C44.28197575 18.34120471 48.51720816 17.79837323 54 15 C56.51171875 15.109375 56.51171875 15.109375 58.6875 15.75 C59.41324219 15.95109375 60.13898438 16.1521875 60.88671875 16.359375 C61.58410156 16.57078125 62.28148437 16.7821875 63 17 C66.08453713 17.94261642 66.08453713 17.94261642 69.1875 17.3125 C71.10411126 16.13180535 71.10411126 16.13180535 71.9375 14.1875 C72.03045356 10.93412556 71.03099308 9.51207523 69 7 C65.76219756 6.23321282 65.76219756 6.23321282 61.95825195 6.34057617 C61.24580322 6.33009247 60.53335449 6.31960876 59.79931641 6.30880737 C57.44519736 6.28001309 55.09254514 6.2863532 52.73828125 6.29296875 C51.10587212 6.2798562 49.47347922 6.26455334 47.84111023 6.24714661 C43.54531326 6.20723109 39.24994005 6.19710202 34.95397949 6.19311523 C30.5700998 6.18379602 26.18647039 6.14639021 21.80273438 6.11132812 C13.20181842 6.04668569 4.60114752 6.01350034 -4 6 C-4 5.34 -4 4.68 -4 4 C-3.01 3.34 -2.02 2.68 -1 2 C-0.67 1.34 -0.34 0.68 0 0 Z M50 26 C50.9358264 29.23285484 51.48056516 30.67193589 54.375 32.5 C57.01196681 33.26530418 57.01196681 33.26530418 59.3125 31.9375 C61.21249017 30.09540126 61.21249017 30.09540126 61.4375 27.4375 C61.293125 26.633125 61.14875 25.82875 61 25 C56.65248352 22.10165568 53.39546346 21.71099352 50 26 Z " fill="#D2E847" transform="translate(190,179)"/>
<path d="M0 0 C2.64 0.33 5.28 0.66 8 1 C8.27714844 1.90363281 8.55429688 2.80726562 8.83984375 3.73828125 C9.38318359 5.50751953 9.38318359 5.50751953 9.9375 7.3125 C10.29714844 8.48425781 10.65679687 9.65601562 11.02734375 10.86328125 C11.66372279 12.91553977 12.32053379 14.96160137 13 17 C13.09834461 18.84168046 13.13822592 20.68671492 13.14526367 22.53100586 C13.15164352 23.66747055 13.15802338 24.80393524 13.16459656 25.97483826 C13.16570938 27.20904007 13.1668222 28.44324188 13.16796875 29.71484375 C13.17296135 31.63497032 13.17296135 31.63497032 13.17805481 33.59388733 C13.18405202 36.31675047 13.18589482 39.03958189 13.18530273 41.76245117 C13.18522239 44.51544905 13.19201061 47.26827728 13.20581055 50.02124023 C13.28390694 65.79500349 13.05526247 81.34157822 11 97 C10.34 97 9.68 97 9 97 C8.505 98.98 8.505 98.98 8 101 C8 100.01 8 99.02 8 98 C7.01 98 6.02 98 5 98 C5.33 99.65 5.66 101.3 6 103 C0.72 103 -4.56 103 -10 103 C-10.33 103.99 -10.66 104.98 -11 106 C-11.804375 106.5775 -12.60875 107.155 -13.4375 107.75 C-16.64645139 110.56761585 -17.1308811 112.89143792 -18 117 C-17.34 117 -16.68 117 -16 117 C-16.66666667 119 -17.33333333 121 -18 123 C-16.63240604 127.70110424 -15.7911919 129.41048446 -11.8125 132.375 C-5.34199734 135.54228387 1.06055481 135.27223162 8 134 C10.38740541 133.06213652 10.38740541 133.06213652 12 132 C12.3125 134.3125 12.3125 134.3125 12 137 C9.6167054 138.81883009 8.04181663 140 5 140 C5 140.66 5 141.32 5 142 C-1.65391342 144.21797114 -7.02004107 142.81755259 -13.41015625 140.328125 C-18.59787071 137.66775861 -20.99064174 133.71590904 -23.875 128.8125 C-25.74892694 122.46196982 -26.22389712 115.35969134 -23.8125 109.0625 C-21.46735902 105.10002041 -19.39222711 101.85373161 -14.8984375 100.25 C-12.95067545 99.7544563 -10.97576547 99.36836305 -9 99 C-9 97.35 -9 95.7 -9 94 C-7.35 94 -5.7 94 -4 94 C-4 94.66 -4 95.32 -4 96 C-1.03 96 1.94 96 5 96 C4.99214478 94.74340576 4.99214478 94.74340576 4.98413086 93.46142578 C4.96709986 90.35661064 4.95455518 87.25181929 4.94506836 84.14697266 C4.93755964 82.14093449 4.9248553 80.13491798 4.91210938 78.12890625 C4.90888672 76.87207031 4.90566406 75.61523438 4.90234375 74.3203125 C4.89448853 72.57645264 4.89448853 72.57645264 4.88647461 70.79736328 C5 68 5 68 6 66 C6.10125688 64.13696824 6.13838984 62.27030977 6.14526367 60.40454102 C6.15164352 59.23315079 6.15802338 58.06176056 6.16459656 56.85487366 C6.16570938 55.58405441 6.1668222 54.31323517 6.16796875 53.00390625 C6.17129715 51.70428452 6.17462555 50.40466278 6.17805481 49.06565857 C6.18404633 46.31256276 6.18589468 43.55949835 6.18530273 40.80639648 C6.1852011 37.2777494 6.19885465 33.74930347 6.21607494 30.22070408 C6.22986401 26.85676824 6.22928355 23.49287001 6.23046875 20.12890625 C6.23765427 18.86011124 6.24483978 17.59131622 6.25224304 16.28407288 C6.24916641 15.10953049 6.24608978 13.9349881 6.24291992 12.72485352 C6.24434494 11.6894191 6.24576996 10.65398468 6.24723816 9.58717346 C6.18310813 6.76221096 6.18310813 6.76221096 4 4 C1.44816596 2.79549696 1.44816596 2.79549696 -1 2 C-0.67 1.34 -0.34 0.68 0 0 Z " fill="#D2E347" transform="translate(156,76)"/>
<path d="M0 0 C2.1991413 4.39828259 2.51855059 7.18550592 3 12 C3.60328125 12.06058594 4.2065625 12.12117187 4.828125 12.18359375 C5.62734375 12.26738281 6.4265625 12.35117188 7.25 12.4375 C8.43335938 12.55931641 8.43335938 12.55931641 9.640625 12.68359375 C11.82364639 12.97634993 13.8773182 13.42064419 16 14 C15.85904936 15.6254308 15.71207913 17.25034051 15.5625 18.875 C15.48128906 19.77992188 15.40007813 20.68484375 15.31640625 21.6171875 C15 24 15 24 14 26 C12.00390625 26.34375 12.00390625 26.34375 9.5625 26.5 C5.83440381 26.65121611 5.83440381 26.65121611 3 29 C2.95556653 30.99950636 2.96079185 33.00038436 3 35 C2.83757813 35.76054687 2.67515625 36.52109375 2.5078125 37.3046875 C1.93151773 40.36348281 1.90332154 43.20225972 1.9375 46.3125 C1.94652344 47.38113281 1.95554687 48.44976562 1.96484375 49.55078125 C1.97644531 50.35902344 1.98804688 51.16726562 2 52 C8.95685299 53.94048082 8.95685299 53.94048082 16 53 C16.36712471 60.46486907 16.36712471 60.46486907 14.84765625 62.6796875 C10.50557557 65.78248511 4.01474115 66.15501329 -1.203125 65.88671875 C-4.7147425 65.13095759 -6.09391157 63.88631757 -8.375 61.125 C-10.72642791 56.60302324 -11.14210536 53.00150093 -11.31640625 47.921875 C-11.35830078 46.76171875 -11.40019531 45.6015625 -11.44335938 44.40625 C-11.48267578 43.1996875 -11.52199219 41.993125 -11.5625 40.75 C-11.60568359 39.52796875 -11.64886719 38.3059375 -11.69335938 37.046875 C-11.79937355 34.0313608 -11.90143936 31.01576552 -12 28 C-12.56444824 27.81171631 -13.12889648 27.62343262 -13.71044922 27.42944336 C-14.44279785 27.17300049 -15.17514648 26.91655762 -15.9296875 26.65234375 C-16.65913574 26.40218506 -17.38858398 26.15202637 -18.14013672 25.89428711 C-20 25 -20 25 -21.125 22.5625 C-21 20 -21 20 -19 16 C-15.7 16 -12.4 16 -9 16 C-9 11.05 -9 6.1 -9 1 C-4.545 0.505 -4.545 0.505 0 0 Z M1 15 C1 15.33 1 15.66 1 16 C4.96 16 8.92 16 13 16 C13 15.67 13 15.34 13 15 C9.04 15 5.08 15 1 15 Z M-18 24 C-18 24.33 -18 24.66 -18 25 C-15.03 25 -12.06 25 -9 25 C-9 24.67 -9 24.34 -9 24 C-11.97 24 -14.94 24 -18 24 Z M-10 29 C-10 36.92 -10 44.84 -10 53 C-9.67 53 -9.34 53 -9 53 C-9 45.08 -9 37.16 -9 29 C-9.33 29 -9.66 29 -10 29 Z " fill="#010101" transform="translate(807,118)"/>
<path d="M0 0 C15.84 0 31.68 0 48 0 C48 0.33 48 0.66 48 1 C49.98 1.33 51.96 1.66 54 2 C54.495 7.445 54.495 7.445 55 13 C57.75078884 13.91692961 59.35948913 14.10886083 62.1875 14.0625 C63.445625 14.041875 64.70375 14.02125 66 14 C66.433125 12.865625 66.86625 11.73125 67.3125 10.5625 C67.869375 9.386875 68.42625 8.21125 69 7 C69.99 6.67 70.98 6.34 72 6 C71.67 8.31 71.34 10.62 71 13 C70.34 13 69.68 13 69 13 C69.495 14.98 69.495 14.98 70 17 C68.35 17.33 66.7 17.66 65 18 C65 18.66 65 19.32 65 20 C60.52005462 20.17568413 56.93506934 20.29545711 53 18 C50.37936979 14.53702436 49.88113955 12.40569777 49 8 C35.14 8 21.28 8 7 8 C7 7.67 7 7.34 7 7 C3.7 6.67 0.4 6.34 -3 6 C-2.67 5.01 -2.34 4.02 -2 3 C-1.34 2.67 -0.68 2.34 0 2 C0 1.34 0 0.68 0 0 Z " fill="#D6EC38" transform="translate(184,197)"/>
<path d="M0 0 C3.24044458 2.56535196 4.69560167 4.086805 6 8 C6.25580528 12.60449513 5.91343411 15.81436288 4 20 C4 20.66 4 21.32 4 22 C2.02 22.33 0.04 22.66 -2 23 C-2 23.33 -2 23.66 -2 24 C-7.96438711 23.40356129 -12.84060144 22.51929832 -16.875 17.8125 C-18.35874897 14.10312757 -18.9246767 10.88217438 -18 7 C-13.48279933 -0.40082248 -8.31353697 -2.15860258 0 0 Z M-10.25 7.75 C-12.24571042 9.8057922 -12.24571042 9.8057922 -11.875 12.125 C-11.04449779 14.18333091 -11.04449779 14.18333091 -9 16 C-6 16.33333333 -6 16.33333333 -3 16 C-0.78103864 14.17528109 -0.78103864 14.17528109 -0.625 11.5625 C-0.7566496 8.88250211 -0.7566496 8.88250211 -2.8125 7.1875 C-6.02898283 5.44140932 -7.35414934 5.49767171 -10.25 7.75 Z " fill="#D7E247" transform="translate(160,184)"/>
<path d="M0 0 C0.69416016 0.01417969 1.38832031 0.02835937 2.10351562 0.04296875 C5.80924515 0.14854509 9.33124644 0.51737245 12.9375 1.375 C13.5625 3.1875 13.5625 3.1875 13.9375 5.375 C12.9475 6.86 12.9475 6.86 11.9375 8.375 C9.87451172 8.71557617 9.87451172 8.71557617 7.3671875 8.66796875 C6.47128906 8.65830078 5.57539062 8.64863281 4.65234375 8.63867188 C3.24662109 8.6009668 3.24662109 8.6009668 1.8125 8.5625 C0.39517578 8.54219727 0.39517578 8.54219727 -1.05078125 8.52148438 C-3.38858779 8.48606306 -5.72526237 8.43667271 -8.0625 8.375 C-7.28601701 10.49567109 -7.28601701 10.49567109 -5.484375 10.96484375 C-2.10914802 11.53645477 1.27451058 11.74072084 4.6875 11.9375 C5.38488281 11.98068359 6.08226562 12.02386719 6.80078125 12.06835938 C8.51281922 12.17389596 10.22513561 12.2748991 11.9375 12.375 C11.9375 13.365 11.9375 14.355 11.9375 15.375 C10.6175 15.375 9.2975 15.375 7.9375 15.375 C7.9375 16.365 7.9375 17.355 7.9375 18.375 C5.54135874 18.42925226 3.14646147 18.46879027 0.75 18.5 C-0.26030273 18.52513672 -0.26030273 18.52513672 -1.29101562 18.55078125 C-6.3442647 18.60008124 -10.11904555 18.124109 -13.9375 14.6875 C-15.65382973 11.15948889 -15.1709904 9.09170311 -14.0625 5.375 C-9.62807899 0.70398641 -6.47232543 -0.35050875 0 0 Z " fill="#D5E645" transform="translate(122.0625,67.625)"/>
<path d="M0 0 C0.33 0 0.66 0 1 0 C1 29.37 1 58.74 1 89 C-0.65 89 -2.3 89 -4 89 C-3.9071875 90.175625 -3.9071875 90.175625 -3.8125 91.375 C-3.874375 92.24125 -3.93625 93.1075 -4 94 C-7 96 -7 96 -9.1875 95.625 C-9.785625 95.41875 -10.38375 95.2125 -11 95 C-8.525 94.01 -8.525 94.01 -6 93 C-6 64.29 -6 35.58 -6 6 C-5.67 6 -5.34 6 -5 6 C-4.67 32.73 -4.34 59.46 -4 87 C-3.01 86.505 -3.01 86.505 -2 86 C-2.185625 85.030625 -2.37125 84.06125 -2.5625 83.0625 C-2.706875 82.051875 -2.85125 81.04125 -3 80 C-2.505 79.505 -2.505 79.505 -2 79 C-1.88042874 76.64367049 -1.82459391 74.31529202 -1.81054688 71.95751953 C-1.80225357 71.22092102 -1.79396027 70.48432251 -1.78541565 69.72540283 C-1.76797698 68.12064929 -1.75282071 66.51586975 -1.73963928 64.91107559 C-1.71866835 62.37292982 -1.69163984 59.83491412 -1.66296387 57.29684448 C-1.60316274 51.90627934 -1.55107867 46.5156539 -1.5 41.125 C-1.44080941 34.88711562 -1.3784929 28.64929482 -1.30812073 22.41152573 C-1.28152032 19.90825167 -1.26071843 17.4049714 -1.2401123 14.90164185 C-1.22350833 13.36818132 -1.20663641 11.83472367 -1.18945312 10.30126953 C-1.18526871 9.60297028 -1.18108429 8.90467102 -1.17677307 8.18521118 C-1.13775912 5.18257342 -0.95784062 2.87352187 0 0 Z " fill="#D3E165" transform="translate(151,81)"/>
<path d="M0 0 C0.33 0 0.66 0 1 0 C0.98952637 0.71655762 0.97905273 1.43311523 0.96826172 2.17138672 C0.92678701 5.40588905 0.90070108 8.64033553 0.875 11.875 C0.85824219 13.00292969 0.84148437 14.13085938 0.82421875 15.29296875 C0.81777344 16.36933594 0.81132812 17.44570312 0.8046875 18.5546875 C0.79421387 19.54968262 0.78374023 20.54467773 0.77294922 21.56982422 C0.75620599 24.18171417 0.75620599 24.18171417 3 26 C3.94875 26 4.8975 26 5.875 26 C8.99293885 26 10.39624749 26.39769076 13 28 C13 29.65 13 31.3 13 33 C10.03 32.505 10.03 32.505 7 32 C7 35.63 7 39.26 7 43 C6.34 43 5.68 43 5 43 C3.50178941 39.62902617 3 37.79557881 3 34 C2.34 34 1.68 34 1 34 C0.608125 33.38125 0.21625 32.7625 -0.1875 32.125 C-2.70580839 29.1725005 -5.29516943 28.83882956 -9 28 C-9 28.66 -9 29.32 -9 30 C-10.98 29.67 -12.96 29.34 -15 29 C-14.34 28.34 -13.68 27.68 -13 27 C-15.97 27 -18.94 27 -22 27 C-20 25 -20 25 -17.50390625 24.76953125 C-16.04791016 24.79080078 -16.04791016 24.79080078 -14.5625 24.8125 C-13.59441406 24.81894531 -12.62632812 24.82539063 -11.62890625 24.83203125 C-9 25 -9 25 -6 26 C-6.33 24.35 -6.66 22.7 -7 21 C-5.02 20.67 -3.04 20.34 -1 20 C-1.01160156 19.14277344 -1.02320313 18.28554687 -1.03515625 17.40234375 C-1.0818041 11.49139448 -1.08249916 5.81843296 0 0 Z " fill="#D6EA43" transform="translate(168,153)"/>
<path d="M0 0 C1.4606285 2.64738916 2 3.89448334 2 7 C3.40274673 7.00879936 3.40274673 7.00879936 4.83383179 7.01777649 C13.63363314 7.07491302 22.4331852 7.14762647 31.23273277 7.23571491 C35.7570252 7.28050161 40.28122585 7.31973909 44.80566406 7.34643555 C49.16949723 7.37238619 53.53297876 7.41272915 57.896595 7.46318626 C59.5639675 7.47991101 61.23140091 7.49139025 62.89884567 7.49761391 C65.22900276 7.50719457 67.55824877 7.5351788 69.88818359 7.56762695 C70.92935585 7.56547432 70.92935585 7.56547432 71.99156189 7.5632782 C73.91220093 7.60127258 73.91220093 7.60127258 77 8 C77.99 9.485 77.99 9.485 79 11 C50.95 10.67 22.9 10.34 -6 10 C-5.34 13.3 -4.68 16.6 -4 20 C-4.66 20 -5.32 20 -6 20 C-6.33 16.04 -6.66 12.08 -7 8 C-5.35 8 -3.7 8 -2 8 C-1.67 6.68 -1.34 5.36 -1 4 C-1.99 3.67 -2.98 3.34 -4 3 C-2.68 3 -1.36 3 0 3 C0 2.01 0 1.02 0 0 Z " fill="#CEE164" transform="translate(182,177)"/>
<path d="M0 0 C1.32 0 2.64 0 4 0 C4.66 9.9 5.32 19.8 6 30 C8.31 30.33 10.62 30.66 13 31 C12.34 32.32 11.68 33.64 11 35 C6.71 35 2.42 35 -2 35 C-2 35.66 -2 36.32 -2 37 C-3.485 37.495 -3.485 37.495 -5 38 C-5 37.34 -5 36.68 -5 36 C-4.34 36 -3.68 36 -3 36 C-2.855625 35.38125 -2.71125 34.7625 -2.5625 34.125 C-2 32 -2 32 -1 30 C-0.84504237 27.75025839 -0.74989072 25.49628464 -0.68359375 23.2421875 C-0.66281265 22.57913605 -0.64203156 21.91608459 -0.62062073 21.23294067 C-0.55520769 19.11373306 -0.49627895 16.994401 -0.4375 14.875 C-0.39430691 13.43878919 -0.35069236 12.00259098 -0.30664062 10.56640625 C-0.19953501 7.04440406 -0.09824425 3.52226175 0 0 Z " fill="#D4E945" transform="translate(191,102)"/>
<path d="M0 0 C0.804375 0.433125 0.804375 0.433125 1.625 0.875 C6.8198706 3.33572818 10.8687798 4.26226316 16.625 3.75 C17.73101562 3.66234375 18.83703125 3.5746875 19.9765625 3.484375 C22.75708322 3.0389169 24.60208298 2.42705305 27 1 C27.3125 3.3125 27.3125 3.3125 27 6 C24.6167054 7.81883009 23.04181663 9 20 9 C20 9.66 20 10.32 20 11 C15.52745503 12.49084832 11.47254497 12.49084832 7 11 C7 10.01 7 9.02 7 8 C4.69 7.67 2.38 7.34 0 7 C0 6.34 0 5.68 0 5 C-0.66 5 -1.32 5 -2 5 C-1.34 3.35 -0.68 1.7 0 0 Z " fill="#D3E631" transform="translate(141,207)"/>
<path d="M0 0 C0.66 0 1.32 0 2 0 C2 2.31 2 4.62 2 7 C2.66 7 3.32 7 4 7 C3.99214478 7.83978394 3.99214478 7.83978394 3.98413086 8.6965332 C3.96333309 11.23517737 3.95033096 13.77380359 3.9375 16.3125 C3.92912109 17.19357422 3.92074219 18.07464844 3.91210938 18.98242188 C3.90727539 20.25375977 3.90727539 20.25375977 3.90234375 21.55078125 C3.89710693 22.33106689 3.89187012 23.11135254 3.88647461 23.9152832 C3.91862137 26.1961555 3.91862137 26.1961555 5 29 C3.02 29.99 3.02 29.99 1 31 C0.01 30.34 -0.98 29.68 -2 29 C-2.37231445 26.54150391 -2.37231445 26.54150391 -2.36328125 23.4765625 C-2.36263672 22.373125 -2.36199219 21.2696875 -2.36132812 20.1328125 C-2.34521484 18.97523437 -2.32910156 17.81765625 -2.3125 16.625 C-2.31572266 15.47515625 -2.31894531 14.3253125 -2.32226562 13.140625 C-2.2622422 3.77697068 -2.2622422 3.77697068 0 0 Z " fill="#D2E843" transform="translate(243,101)"/>
<path d="M0 0 C14.52 0 29.04 0 44 0 C43.34 1.32 42.68 2.64 42 4 C40.68 4 39.36 4 38 4 C38 3.01 38 2.02 38 1 C37.01 1 36.02 1 35 1 C35 1.66 35 2.32 35 3 C31.23699626 4.25433458 27.72789091 4.10695422 23.8125 4.0625 C23.06291016 4.05798828 22.31332031 4.05347656 21.54101562 4.04882812 C19.69397617 4.03706354 17.84697787 4.01912865 16 4 C16 3.34 16 2.68 16 2 C15.319375 2.165 14.63875 2.33 13.9375 2.5 C10.5835178 3.07089059 7.39610195 3.06659023 4 3 C3.67 3.99 3.34 4.98 3 6 C1.68 4.68 0.36 3.36 -1 2 C-0.67 1.34 -0.34 0.68 0 0 Z " fill="#CFE83A" transform="translate(196,97)"/>
<path d="M0 0 C0 0.66 0 1.32 0 2 C4.62 2 9.24 2 14 2 C14 3.98 14 5.96 14 8 C13.67 8 13.34 8 13 8 C13 6.35 13 4.7 13 3 C8.71 3 4.42 3 0 3 C0.33 5.97 0.66 8.94 1 12 C-0.65 11.67 -2.3 11.34 -4 11 C-4.33 14.63 -4.66 18.26 -5 22 C-5.66 21.67 -6.32 21.34 -7 21 C-7.33 15.39 -7.66 9.78 -8 4 C-9.32 3.67 -10.64 3.34 -12 3 C-12 2.34 -12 1.68 -12 1 C-7.95858806 0.36605303 -4.0934693 -0.12404452 0 0 Z " fill="#D2E45C" transform="translate(212,99)"/>
<path d="M0 0 C1.06154297 0.0009668 1.06154297 0.0009668 2.14453125 0.00195312 C5.92233916 0.03361073 9.4526513 0.28741453 13.125 1.1875 C13.8125 3 13.8125 3 14.125 5.1875 C12.6875 6.9375 12.6875 6.9375 11.125 8.1875 C10.135 7.5275 9.145 6.8675 8.125 6.1875 C5.23287179 6.01838646 2.45055375 5.95446222 -0.4375 6 C-1.21802734 6.00064453 -1.99855469 6.00128906 -2.80273438 6.00195312 C-6.97241623 5.9385257 -6.97241623 5.9385257 -10.875 7.1875 C-11.0625 4.8125 -11.0625 4.8125 -10.875 2.1875 C-7.15730548 -0.29096301 -4.29431728 -0.07350633 0 0 Z " fill="#CEE037" transform="translate(121.875,67.8125)"/>
<path d="M0 0 C2.6875 1.5625 2.6875 1.5625 4 4 C3.75 7.75 3.75 7.75 3 11 C2.67 11 2.34 11 2 11 C2 9.35 2 7.7 2 6 C1.01 6 0.02 6 -1 6 C-1.33 5.34 -1.66 4.68 -2 4 C-3.98 4 -5.96 4 -8 4 C-9.80230168 7.82989106 -10.19622241 10.78121808 -10 15 C-10.99 15 -11.98 15 -13 15 C-13.33 15.66 -13.66 16.32 -14 17 C-15.86573518 13.85157189 -16.35585134 11.64747625 -16 8 C-13.63484731 -0.27803442 -7.75309886 -1.13146385 0 0 Z " fill="#DBEA24" transform="translate(159,185)"/>
<path d="M0 0 C3 2 3 2 3.546875 3.83984375 C3.61390625 4.53207031 3.6809375 5.22429687 3.75 5.9375 C3.82734375 6.62714844 3.9046875 7.31679687 3.984375 8.02734375 C4 10 4 10 3 13 C3.66 13.33 4.32 13.66 5 14 C5 17 5 17 4 20 C2.02 20 0.04 20 -2 20 C-2.05407567 17.41638482 -2.093707 14.83390745 -2.125 12.25 C-2.14175781 11.52039063 -2.15851563 10.79078125 -2.17578125 10.0390625 C-2.21072239 6.1955376 -2.17499684 3.25393228 0 0 Z " fill="#D5EA45" transform="translate(207,139)"/>
<path d="M0 0 C2 2 2 2 2.22705078 5.89892578 C2.22673341 7.58108793 2.21539396 9.26327019 2.1953125 10.9453125 C2.1924826 11.8303244 2.18965271 12.7153363 2.18673706 13.62716675 C2.1755224 16.45991412 2.1504157 19.29234784 2.125 22.125 C2.11497185 24.04296419 2.10584572 25.96093333 2.09765625 27.87890625 C2.07557889 32.58605876 2.04104045 37.29297616 2 42 C3.485 41.505 3.485 41.505 5 41 C5 41.66 5 42.32 5 43 C2.36 43.66 -0.28 44.32 -3 45 C-3 44.01 -3 43.02 -3 42 C-2.01 42 -1.02 42 0 42 C0 28.14 0 14.28 0 0 Z " fill="#D3E56D" transform="translate(253,138)"/>
<path d="M0 0 C5.95703125 -0.390625 5.95703125 -0.390625 8 0 C11.08362024 3.18177284 11.36844606 5.52241387 11.34057617 9.87011719 C11.34034958 11.05103943 11.34012299 12.23196167 11.33988953 13.44866943 C11.32440567 14.71857727 11.30892181 15.98848511 11.29296875 17.296875 C11.28872391 18.60078186 11.28447906 19.90468872 11.28010559 21.24810791 C11.26867549 24.70718772 11.23922477 28.16588698 11.20599365 31.62481689 C11.1752528 35.15737765 11.16159172 38.69000016 11.14648438 42.22265625 C11.11435282 49.14859339 11.06317904 56.0742784 11 63 C9.10073167 59.78480311 8.75883923 57.44120954 8.78881836 53.72827148 C8.79219711 52.67715683 8.79557587 51.62604218 8.79905701 50.54307556 C8.81251663 49.41382156 8.82597626 48.28456757 8.83984375 47.12109375 C8.84504532 45.95747818 8.85024689 44.79386261 8.85560608 43.59498596 C8.87342723 39.87569737 8.90460387 36.15668346 8.9375 32.4375 C8.96510065 28.71477281 8.98980913 24.99208428 9.00868225 21.26930237 C9.02095555 18.95215857 9.03857475 16.63503583 9.06199646 14.31797791 C9.06852737 13.27001541 9.07505829 12.22205292 9.08178711 11.14233398 C9.09004013 10.21952133 9.09829315 9.29670868 9.10679626 8.34593201 C9.09980108 5.84480759 9.09980108 5.84480759 8 3 C4.73045798 3.56371414 3.17424117 4.49962266 1 7 C0.67 4.69 0.34 2.38 0 0 Z " fill="#D4E264" transform="translate(152,79)"/>
<path d="M0 0 C0.33 0 0.66 0 1 0 C0.98952637 0.71655762 0.97905273 1.43311523 0.96826172 2.17138672 C0.92678701 5.40588905 0.90070108 8.64033553 0.875 11.875 C0.85824219 13.00292969 0.84148437 14.13085938 0.82421875 15.29296875 C0.81777344 16.36933594 0.81132812 17.44570312 0.8046875 18.5546875 C0.79421387 19.54968262 0.78374023 20.54467773 0.77294922 21.56982422 C0.75620599 24.18171417 0.75620599 24.18171417 3 26 C3.94875 26 4.8975 26 5.875 26 C8.99293885 26 10.39624749 26.39769076 13 28 C13 29.65 13 31.3 13 33 C10.69 33 8.38 33 6 33 C5.7525 32.360625 5.505 31.72125 5.25 31.0625 C4.20311706 28.80104993 4.20311706 28.80104993 1.9375 28.4375 C1.298125 28.293125 0.65875 28.14875 0 28 C-1.30776041 24.07671876 -1.14471297 20.33715537 -1.125 16.25 C-1.12886719 15.46367187 -1.13273438 14.67734375 -1.13671875 13.8671875 C-1.12886771 9.14085953 -0.78516377 4.66113097 0 0 Z " fill="#D7ED5A" transform="translate(168,153)"/>
<path d="M0 0 C0.66 0.66 1.32 1.32 2 2 C-1.96 2 -5.92 2 -10 2 C-10 3.32 -10 4.64 -10 6 C-7.69 6 -5.38 6 -3 6 C-6.75 8 -6.75 8 -9 8 C-8.58413646 12.2787981 -8.58413646 12.2787981 -6.4375 15.875 C-5.963125 16.24625 -5.48875 16.6175 -5 17 C-7.16874252 16.49396008 -8.99967627 16.00016187 -11 15 C-12.37097852 11.43545584 -12.07243154 7.76644005 -12 4 C-14.97 4 -17.94 4 -21 4 C-21 3.67 -21 3.34 -21 3 C-20.33613281 2.87882813 -19.67226562 2.75765625 -18.98828125 2.6328125 C-13.50216091 1.6243245 -13.50216091 1.6243245 -8.25 -0.1875 C-5.18324164 -1.29494052 -3.11126236 -0.82966996 0 0 Z " fill="#D0DE53" transform="translate(250,195)"/>
<path d="M0 0 C2.64 0.33 5.28 0.66 8 1 C8.27714844 1.91523437 8.55429688 2.83046875 8.83984375 3.7734375 C9.20207031 4.96195312 9.56429687 6.15046875 9.9375 7.375 C10.29714844 8.55835937 10.65679687 9.74171875 11.02734375 10.9609375 C11.87576274 13.87926818 11.87576274 13.87926818 13 16 C12.34 16 11.68 16 11 16 C11 16.66 11 17.32 11 18 C9.68 18.33 8.36 18.66 7 19 C6.95101562 18.16855469 6.90203125 17.33710937 6.8515625 16.48046875 C6.77679688 15.39378906 6.70203125 14.30710937 6.625 13.1875 C6.52058594 11.56908203 6.52058594 11.56908203 6.4140625 9.91796875 C6.18804267 6.81373814 6.18804267 6.81373814 4 4 C1.44816596 2.79549696 1.44816596 2.79549696 -1 2 C-0.67 1.34 -0.34 0.68 0 0 Z " fill="#D5E836" transform="translate(156,76)"/>
<path d="M0 0 C1.32 0.33 2.64 0.66 4 1 C3.01 1.495 3.01 1.495 2 2 C2 2.66 2 3.32 2 4 C4.64 3.01 7.28 2.02 10 1 C10 1.66 10 2.32 10 3 C11.65 3 13.3 3 15 3 C15.33 3.99 15.66 4.98 16 6 C15.34 6 14.68 6 14 6 C14 6.66 14 7.32 14 8 C13.01 8.33 12.02 8.66 11 9 C10.67 7.68 10.34 6.36 10 5 C4.39 5 -1.22 5 -7 5 C-6.67 4.01 -6.34 3.02 -6 2 C-4.02 2 -2.04 2 0 2 C0 1.34 0 0.68 0 0 Z " fill="#D1E841" transform="translate(238,132)"/>
<path d="M0 0 C0 0.99 0 1.98 0 3 C-1.32 3 -2.64 3 -4 3 C-4 3.66 -4 4.32 -4 5 C-6.27024968 5.08097324 -8.54132075 5.13917704 -10.8125 5.1875 C-12.70935547 5.23970703 -12.70935547 5.23970703 -14.64453125 5.29296875 C-18 5 -18 5 -19.94921875 3.48828125 C-20.29597656 2.99714844 -20.64273438 2.50601563 -21 2 C-17.87606495 0.43803248 -14.49878042 0.62185629 -11.0625 0.4375 C-9.96905273 0.37272461 -9.96905273 0.37272461 -8.85351562 0.30664062 C-5.89803922 0.13597608 -2.96093637 0 0 0 Z " fill="#D4EB21" transform="translate(134,80)"/>
<path d="M0 0 C0.33 0.99 0.66 1.98 1 3 C2.7325 2.195625 2.7325 2.195625 4.5 1.375 C9.40030389 -0.44735501 12.20274257 -0.06778338 17 2 C18.5 5.125 18.5 5.125 19 8 C18.01 7.67 17.02 7.34 16 7 C15.505 5.02 15.505 5.02 15 3 C10.05 3.33 5.1 3.66 0 4 C0 3.34 0 2.68 0 2 C-1.7015625 2.2475 -1.7015625 2.2475 -3.4375 2.5 C-7.97060294 3.07576084 -12.43747238 3.09505266 -17 3 C-17 2.34 -17 1.68 -17 1 C-8.585 0.505 -8.585 0.505 0 0 Z " fill="#CDE54C" transform="translate(249,180)"/>
<path d="M0 0 C0.5625 1.9375 0.5625 1.9375 1 4 C0.67 4.33 0.34 4.66 0 5 C-0.2500773 7.45809998 -0.2500773 7.45809998 0 10 C0.66 10.66 1.32 11.32 2 12 C4.16666667 11.16666667 4.16666667 11.16666667 5 9 C5.66 9.66 6.32 10.32 7 11 C8.98821313 11.39764263 10.98944339 11.73775349 13 12 C13 12.33 13 12.66 13 13 C10.03 13 7.06 13 4 13 C4.99 14.485 4.99 14.485 6 16 C8.58380177 16.25030977 8.58380177 16.25030977 11 16 C11 16.99 11 17.98 11 19 C11.99 19.33 12.98 19.66 14 20 C8.03561289 19.40356129 3.15939856 18.51929832 -0.875 13.8125 C-2.43391951 9.91520123 -2.33834017 7.19541805 -2 3 C-1.34 2.01 -0.68 1.02 0 0 Z " fill="#D6E23D" transform="translate(144,188)"/>
<path d="M0 0 C0.33 0 0.66 0 1 0 C1 16.83 1 33.66 1 51 C0.67 51 0.34 51 0 51 C-1.23246736 44.40986464 -2.34640436 38.3506367 -1.2890625 31.69921875 C-0.87553416 27.83775817 -0.96110963 24.00490946 -1 20.125 C-1.05717752 13.35783147 -0.82970638 6.72654817 0 0 Z " fill="#000000" transform="translate(491,129)"/>
<path d="M0 0 C1.32 0 2.64 0 4 0 C3.67 3.3 3.34 6.6 3 10 C3.66 10 4.32 10 5 10 C4.67 10.99 4.34 11.98 4 13 C2.68 12.34 1.36 11.68 0 11 C-0.33 12.65 -0.66 14.3 -1 16 C-1.33 16 -1.66 16 -2 16 C-2.33 11.38 -2.66 6.76 -3 2 C-2.01 2 -1.02 2 0 2 C0 1.34 0 0.68 0 0 Z " fill="#D7E62B" transform="translate(135,183)"/>
<path d="M0 0 C0.78375 0.04125 1.5675 0.0825 2.375 0.125 C2.375 0.785 2.375 1.445 2.375 2.125 C3.035 2.455 3.695 2.785 4.375 3.125 C3.055 3.125 1.735 3.125 0.375 3.125 C0.375 3.785 0.375 4.445 0.375 5.125 C6.315 5.455 12.255 5.785 18.375 6.125 C18.375 6.455 18.375 6.785 18.375 7.125 C15.5003509 7.32086184 12.62561717 7.50693799 9.75 7.6875 C8.53763672 7.77161133 8.53763672 7.77161133 7.30078125 7.85742188 C2.81337484 8.13104422 -1.19362499 8.09301881 -5.625 7.125 C-4.53409091 0.21590909 -4.53409091 0.21590909 0 0 Z " fill="#CDE543" transform="translate(181.625,196.875)"/>
<path d="M0 0 C0.66 0.33 1.32 0.66 2 1 C3.59262066 1.15175549 5.19064856 1.24900325 6.7890625 1.31640625 C7.73007813 1.35830078 8.67109375 1.40019531 9.640625 1.44335938 C10.62546875 1.48267578 11.6103125 1.52199219 12.625 1.5625 C13.61757812 1.60568359 14.61015625 1.64886719 15.6328125 1.69335938 C18.08839838 1.79961069 20.54408703 1.90164964 23 2 C23 2.33 23 2.66 23 3 C17.72 3.66 12.44 4.32 7 5 C7.33 6.32 7.66 7.64 8 9 C6.329375 9.2165625 6.329375 9.2165625 4.625 9.4375 C1.17857953 9.78372035 1.17857953 9.78372035 -1 11 C-0.6875 9.125 -0.6875 9.125 0 7 C0.99 6.34 1.98 5.68 3 5 C2.2575 4.319375 2.2575 4.319375 1.5 3.625 C0 2 0 2 0 0 Z " fill="#D3E960" transform="translate(137,72)"/>
<path d="M0 0 C2.31 0 4.62 0 7 0 C7.103125 0.639375 7.20625 1.27875 7.3125 1.9375 C7.539375 2.618125 7.76625 3.29875 8 4 C8.99 4.33 9.98 4.66 11 5 C11 7.64 11 10.28 11 13 C10.01 13 9.02 13 8 13 C7.67 13.66 7.34 14.32 7 15 C7 12.16032769 7.40267181 9.76264289 8 7 C7.34 7 6.68 7 6 7 C6 6.34 6 5.68 6 5 C5.38125 4.731875 4.7625 4.46375 4.125 4.1875 C2 3 2 3 0 0 Z " fill="#D2E837" transform="translate(257,183)"/>
<path d="M0 0 C0.66 0.66 1.32 1.32 2 2 C1.67 2.99 1.34 3.98 1 5 C2.65 5.33 4.3 5.66 6 6 C6 9.41099168 5.50854594 12.63088314 5 16 C3.35 16.33 1.7 16.66 0 17 C0 11.39 0 5.78 0 0 Z " fill="#D7EA46" transform="translate(207,105)"/>
<path d="M0 0 C1.32 0 2.64 0 4 0 C3.67 1.65 3.34 3.3 3 5 C3.66 5.33 4.32 5.66 5 6 C-2.11389522 12.70387244 -2.11389522 12.70387244 -7 13 C-5.1875 11 -5.1875 11 -3 9 C-2.01 9 -1.02 9 0 9 C0 7.35 0 5.7 0 4 C-0.5775 4.515625 -1.155 5.03125 -1.75 5.5625 C-4 7 -4 7 -6.25 6.6875 C-6.8275 6.460625 -7.405 6.23375 -8 6 C-7.05125 5.38125 -6.1025 4.7625 -5.125 4.125 C-2.05554891 2.18029031 -2.05554891 2.18029031 0 0 Z " fill="#CEE448" transform="translate(168,204)"/>
<path d="M0 0 C4.95 0 9.9 0 15 0 C15 0.99 15 1.98 15 3 C11.99686252 4.50156874 9.20932478 4.09281204 5.875 4.0625 C4.59367188 4.05347656 3.31234375 4.04445312 1.9921875 4.03515625 C0.51105469 4.01775391 0.51105469 4.01775391 -1 4 C-0.67 2.68 -0.34 1.36 0 0 Z " fill="#D1E744" transform="translate(211,133)"/>
<path d="M0 0 C0.66 0 1.32 0 2 0 C2.3125 2.3125 2.3125 2.3125 2 5 C-0.375 6.875 -0.375 6.875 -3 8 C-3.66 7.67 -4.32 7.34 -5 7 C-4.34 6.01 -3.68 5.02 -3 4 C-3.350625 4.474375 -3.70125 4.94875 -4.0625 5.4375 C-6.84163543 7.67873825 -9.5144717 7.67117658 -13 8 C-13.33 7.34 -13.66 6.68 -14 6 C-12.68 5.67 -11.36 5.34 -10 5 C-10 4.34 -10 3.68 -10 3 C-8.72125 2.87625 -7.4425 2.7525 -6.125 2.625 C-2.65209064 2.30957601 -2.65209064 2.30957601 0 0 Z " fill="#D2E92F" transform="translate(166,208)"/>
<path d="M0 0 C0.99 0.33 1.98 0.66 3 1 C1.12050295 4.57104439 -0.17053157 6.54744301 -4 8 C-4.33 7.34 -4.66 6.68 -5 6 C-7.52733235 5.34444881 -7.52733235 5.34444881 -10 5 C-10.33 4.01 -10.66 3.02 -11 2 C-10.06027344 1.90912109 -10.06027344 1.90912109 -9.1015625 1.81640625 C-7.87566406 1.69072266 -7.87566406 1.69072266 -6.625 1.5625 C-5.81289062 1.48128906 -5.00078125 1.40007812 -4.1640625 1.31640625 C-1.95727195 1.10909886 -1.95727195 1.10909886 0 0 Z " fill="#DBEA23" transform="translate(159,199)"/>
<path d="M0 0 C0.33 0.66 0.66 1.32 1 2 C0.67 2.99 0.34 3.98 0 5 C-0.99 5 -1.98 5 -3 5 C-3.33 5.66 -3.66 6.32 -4 7 C-4.33 6.67 -4.66 6.34 -5 6 C-7.32817964 5.63239269 -9.6618385 5.29758419 -12 5 C-12 3.68 -12 2.36 -12 1 C-6.06 0.505 -6.06 0.505 0 0 Z " fill="#D6E732" transform="translate(252,196)"/>
<path d="M0 0 C-0.33 0.99 -0.66 1.98 -1 3 C-1.99 3.33 -2.98 3.66 -4 4 C-4.33 4.66 -4.66 5.32 -5 6 C-5.66 6 -6.32 6 -7 6 C-7 6.66 -7 7.32 -7 8 C-8.98 8 -10.96 8 -13 8 C-13 8.66 -13 9.32 -13 10 C-13.66 9.67 -14.32 9.34 -15 9 C-11.6130079 2.87115715 -7.15071218 0 0 0 Z " fill="#D6E433" transform="translate(148,175)"/>
<path d="M0 0 C0.66 0 1.32 0 2 0 C2.6875 1.8125 2.6875 1.8125 3 4 C1.5625 5.75 1.5625 5.75 0 7 C-0.99 6.34 -1.98 5.68 -3 5 C-5.50896686 4.54398739 -5.50896686 4.54398739 -8.1875 4.375 C-9.08855469 4.30023438 -9.98960938 4.22546875 -10.91796875 4.1484375 C-11.60503906 4.09945312 -12.29210937 4.05046875 -13 4 C-12.67 3.34 -12.34 2.68 -12 2 C-7.70057734 1.09050674 -4.25063401 0.84073618 0 2 C0 1.34 0 0.68 0 0 Z " fill="#CCE91A" transform="translate(133,69)"/>
<path d="M0 0 C2.77141717 -0.08089542 5.54047819 -0.14044062 8.3125 -0.1875 C9.09818359 -0.21263672 9.88386719 -0.23777344 10.69335938 -0.26367188 C11.45068359 -0.27333984 12.20800781 -0.28300781 12.98828125 -0.29296875 C14.03302612 -0.31653442 14.03302612 -0.31653442 15.09887695 -0.34057617 C17 0 17 0 20 3 C13.73 3 7.46 3 1 3 C0.67 3.66 0.34 4.32 0 5 C0 3.35 0 1.7 0 0 Z " fill="#CFE14C" transform="translate(113,73)"/>
<path d="M0 0 C3.3 0 6.6 0 10 0 C6 2 6 2 4 2 C3.67 7.94 3.34 13.88 3 20 C2.67 20 2.34 20 2 20 C1.93941406 19.05898437 1.87882813 18.11796875 1.81640625 17.1484375 C1.69072266 15.28058594 1.69072266 15.28058594 1.5625 13.375 C1.48128906 12.14523438 1.40007812 10.91546875 1.31640625 9.6484375 C1.03336056 6.38467612 0.58961047 3.22056141 0 0 Z " fill="#D4E46A" transform="translate(229,101)"/>
<path d="M0 0 C2.28827539 2.28827539 2.42255351 3.27122511 3 6.375 C3.59973478 9.57715537 4.43134215 12.13719943 6 15 C3.57223333 13.70519111 2.23032326 12.64161481 1.2890625 10.01953125 C0.80217802 8.0261274 0.39608139 6.01341375 0 4 C-2.31 4 -4.62 4 -7 4 C-7 3.01 -7 2.02 -7 1 C-3.625 0.375 -3.625 0.375 0 0 Z " fill="#CDDF4C" transform="translate(233,201)"/>
<path d="M0 0 C2.3125 0.125 2.3125 0.125 5 1 C8.30935464 5.67874276 8.28461911 9.49736379 8 15 C5.47519307 12.47519307 5.44261367 10.86176966 4.875 7.375 C4.70742187 6.37210937 4.53984375 5.36921875 4.3671875 4.3359375 C4.24601563 3.56507812 4.12484375 2.79421875 4 2 C2.68 2 1.36 2 0 2 C0 1.34 0 0.68 0 0 Z " fill="#CEDF50" transform="translate(160,75)"/>
<path d="M0 0 C0.33 1.32 0.66 2.64 1 4 C1.99 4 2.98 4 4 4 C6 7 6 7 6 10 C4.68 9.34 3.36 8.68 2 8 C1.67 9.65 1.34 11.3 1 13 C0.67 13 0.34 13 0 13 C0 8.71 0 4.42 0 0 Z " fill="#DFE71E" transform="translate(133,186)"/>
<path d="M0 0 C0.33 1.65 0.66 3.3 1 5 C-2.63 4.34 -6.26 3.68 -10 3 C-5.78492722 -0.16130459 -4.93928888 -0.3367697 0 0 Z " fill="#CEE533" transform="translate(161,174)"/>
<path d="M0 0 C0.96164063 0.00515625 1.92328125 0.0103125 2.9140625 0.015625 C4.34878906 0.00789062 4.34878906 0.00789062 5.8125 0 C8.54964908 0.26665636 10.19893707 0.86820413 12.5390625 2.265625 C11.2190625 2.595625 9.8990625 2.925625 8.5390625 3.265625 C8.5390625 3.925625 8.5390625 4.585625 8.5390625 5.265625 C5.5690625 4.770625 5.5690625 4.770625 2.5390625 4.265625 C3.1990625 3.605625 3.8590625 2.945625 4.5390625 2.265625 C1.5690625 2.265625 -1.4009375 2.265625 -4.4609375 2.265625 C-2.4609375 0.265625 -2.4609375 0.265625 0 0 Z " fill="#D7E460" transform="translate(150.4609375,177.734375)"/>
<path d="M0 0 C0.99 0.33 1.98 0.66 3 1 C3 4.63 3 8.26 3 12 C2.01 12 1.02 12 0 12 C0 8.04 0 4.08 0 0 Z " fill="#0A0C04" transform="translate(698,123)"/>
<path d="M0 0 C2.64 0.33 5.28 0.66 8 1 C8.33 2.65 8.66 4.3 9 6 C6.03 5.01 3.06 4.02 0 3 C0 2.01 0 1.02 0 0 Z " fill="#D0E629" transform="translate(156,76)"/>
<path d="M0 0 C2.8125 -0.25 2.8125 -0.25 6 0 C7.875 1.625 7.875 1.625 9 4 C9.1875 7.25 9.1875 7.25 9 10 C8.67 10 8.34 10 8 10 C7.34 8.02 6.68 6.04 6 4 C2.71303767 3.20046862 1.28976808 2.90341064 -2 4 C-1.34 2.68 -0.68 1.36 0 0 Z " fill="#CFDC4A" transform="translate(151,188)"/>
<path d="M0 0 C-4.76830732 3.93385354 -4.76830732 3.93385354 -8.109375 4.11328125 C-11.50219421 3.73561342 -13.54388315 3.45611685 -16 1 C-12.7 1.33 -9.4 1.66 -6 2 C-6 1.34 -6 0.68 -6 0 C-2.25 -1.125 -2.25 -1.125 0 0 Z " fill="#CEDD5A" transform="translate(255,215)"/>
<path d="M0 0 C4.29 1.32 8.58 2.64 13 4 C13 4.33 13 4.66 13 5 C9.37 5.33 5.74 5.66 2 6 C2 5.34 2 4.68 2 4 C1.01 4.495 1.01 4.495 0 5 C0 3.35 0 1.7 0 0 Z " fill="#D5E443" transform="translate(143,208)"/>
<path d="M0 0 C0.5625 1.9375 0.5625 1.9375 1 4 C0.67 4.33 0.34 4.66 0 5 C-0.73673311 10.00978512 1.42416617 12.89476483 4 17 C1.71216703 16.08486681 0.26550272 15.34515354 -1.25 13.375 C-2.38747712 9.77298912 -2.24015574 6.78245286 -2 3 C-1.34 2.01 -0.68 1.02 0 0 Z " fill="#D4E359" transform="translate(144,188)"/>
<path d="M0 0 C2.64 0 5.28 0 8 0 C8.66 1.32 9.32 2.64 10 4 C7.03 3.505 7.03 3.505 4 3 C3.01 4.32 2.02 5.64 1 7 C0.67 4.69 0.34 2.38 0 0 Z " fill="#DCE873" transform="translate(152,79)"/>
<path d="M0 0 C0 0.66 0 1.32 0 2 C0.99 2 1.98 2 3 2 C3.33 3.65 3.66 5.3 4 7 C2 6 0 5 -2 4 C-2 3.34 -2 2.68 -2 2 C-2.66 1.67 -3.32 1.34 -4 1 C-2 0 -2 0 0 0 Z " fill="#D1E056" transform="translate(223,114)"/>
<path d="M0 0 C1.65 0.33 3.3 0.66 5 1 C4.67 2.98 4.34 4.96 4 7 C2.02 7 0.04 7 -2 7 C-1.2265625 6.38125 -1.2265625 6.38125 -0.4375 5.75 C0.2740625 4.88375 0.2740625 4.88375 1 4 C0.77242269 1.83700789 0.77242269 1.83700789 0 0 Z " fill="#D1E43F" transform="translate(217,108)"/>
<path d="M0 0 C0.66 0 1.32 0 2 0 C2 0.66 2 1.32 2 2 C2.66 2 3.32 2 4 2 C4.125 4.375 4.125 4.375 4 7 C3.34 7.66 2.68 8.32 2 9 C1.01 8.67 0.02 8.34 -1 8 C-0.649375 7.236875 -0.29875 6.47375 0.0625 5.6875 C1.32360884 2.95240621 1.32360884 2.95240621 0 0 Z " fill="#CFDF4B" transform="translate(261,188)"/>
<path d="M0 0 C0.66 0 1.32 0 2 0 C1.979375 1.093125 1.95875 2.18625 1.9375 3.3125 C1.81455548 6.94384191 1.81455548 6.94384191 3 10 C2.01 10.33 1.02 10.66 0 11 C0 7.37 0 3.74 0 0 Z " fill="#E3F140" transform="translate(245,120)"/>
<path d="M0 0 C0.99 0.33 1.98 0.66 3 1 C2.34 3.31 1.68 5.62 1 8 C0.34 8 -0.32 8 -1 8 C-1.33 6.68 -1.66 5.36 -2 4 C-1.34 4 -0.68 4 0 4 C0 2.68 0 1.36 0 0 Z " fill="#D1E144" transform="translate(255,206)"/>
<path d="M0 0 C0.99 0.33 1.98 0.66 3 1 C3 2.32 3 3.64 3 5 C3.66 5 4.32 5 5 5 C4.67 5.99 4.34 6.98 4 8 C3.01 7.67 2.02 7.34 1 7 C0.67 4.69 0.34 2.38 0 0 Z " fill="#D6E621" transform="translate(134,200)"/>
<path d="M0 0 C0.33 0 0.66 0 1 0 C1 1.65 1 3.3 1 5 C-3.455 5.495 -3.455 5.495 -8 6 C-8 5.34 -8 4.68 -8 4 C-6.865625 3.71125 -5.73125 3.4225 -4.5625 3.125 C-3.386875 2.75375 -2.21125 2.3825 -1 2 C-0.67 1.34 -0.34 0.68 0 0 Z " fill="#000000" transform="translate(796,128)"/>
<path d="M0 0 C0.33 0.66 0.66 1.32 1 2 C1.99 2 2.98 2 4 2 C4 2.66 4 3.32 4 4 C1.69 4.33 -0.62 4.66 -3 5 C-3.33 4.34 -3.66 3.68 -4 3 C-2.68 2.67 -1.36 2.34 0 2 C0 1.34 0 0.68 0 0 Z " fill="#DAEF16" transform="translate(156,211)"/>
<path d="M0 0 C1.33333333 0.66666667 2.66666667 1.33333333 4 2 C3.67 4.31 3.34 6.62 3 9 C0.23776722 6.23776722 0.42143709 3.79293383 0 0 Z " fill="#DDE339" transform="translate(145,188)"/>
<path d="M0 0 C2.475 0.495 2.475 0.495 5 1 C5.66 2.98 6.32 4.96 7 7 C6.01 6.67 5.02 6.34 4 6 C3.3125 3.9375 3.3125 3.9375 3 2 C2.01 2 1.02 2 0 2 C0 1.34 0 0.68 0 0 Z " fill="#DBE958" transform="translate(261,181)"/>
<path d="M0 0 C0.66 0 1.32 0 2 0 C2.6875 1.8125 2.6875 1.8125 3 4 C1.5625 5.75 1.5625 5.75 0 7 C-0.99 6.01 -1.98 5.02 -3 4 C-2.01 3.67 -1.02 3.34 0 3 C0 2.01 0 1.02 0 0 Z " fill="#D4E82C" transform="translate(133,69)"/>
<path d="M0 0 C0.28875 0.61875 0.5775 1.2375 0.875 1.875 C1.93720042 4.13325765 1.93720042 4.13325765 4 6 C6.57061311 6.64767793 6.57061311 6.64767793 9 7 C9 7.33 9 7.66 9 8 C6.36 8 3.72 8 1 8 C0.67 5.36 0.34 2.72 0 0 Z " fill="#D0E25F" transform="translate(167,173)"/>
<path d="M0 0 C1.32 0.66 2.64 1.32 4 2 C3.67 2.99 3.34 3.98 3 5 C1.35 5 -0.3 5 -2 5 C-1.34 4.67 -0.68 4.34 0 4 C0 2.68 0 1.36 0 0 Z " fill="#E1E172" transform="translate(153,193)"/>
<path d="M0 0 C0.33 0.99 0.66 1.98 1 3 C1.99 3.33 2.98 3.66 4 4 C-2.625 3.25 -2.625 3.25 -6 1 C-4.02 0.67 -2.04 0.34 0 0 Z " fill="#D2E54B" transform="translate(154,204)"/>
<path d="M0 0 C2.475 0.495 2.475 0.495 5 1 C4.67 1.99 4.34 2.98 4 4 C2.68 2.68 1.36 1.36 0 0 Z " fill="#F4FA89" transform="translate(218,143)"/>
<path d="M0 0 C0.33 0 0.66 0 1 0 C1 3.63 1 7.26 1 11 C0.67 11 0.34 11 0 11 C0 7.37 0 3.74 0 0 Z " fill="#F7FFBD" transform="translate(234,105)"/>
<path d="M0 0 C0.33 0 0.66 0 1 0 C1 2.97 1 5.94 1 9 C0.67 9 0.34 9 0 9 C0 6.03 0 3.06 0 0 Z " fill="#FFFFAA" transform="translate(198,112)"/>
<path d="M0 0 C2.64 0 5.28 0 8 0 C8 0.33 8 0.66 8 1 C5.36 1 2.72 1 0 1 C0 0.67 0 0.34 0 0 Z " fill="#000000" transform="translate(729,132)"/>
<path d="M0 0 C2.64 0 5.28 0 8 0 C8 0.33 8 0.66 8 1 C5.36 1 2.72 1 0 1 C0 0.67 0 0.34 0 0 Z " fill="#000000" transform="translate(341,123)"/>
<path d="M0 0 C0 0.66 0 1.32 0 2 C-1.65 2 -3.3 2 -5 2 C-2 0 -2 0 0 0 Z " fill="#CEE6B0" transform="translate(158,169)"/>
<path d="M0 0 C0.33 0 0.66 0 1 0 C1 2.31 1 4.62 1 7 C0.67 7 0.34 7 0 7 C0 4.69 0 2.38 0 0 Z " fill="#000000" transform="translate(823,134)"/>
<path d="M0 0 C2.31 0 4.62 0 7 0 C7 0.33 7 0.66 7 1 C4.69 1 2.38 1 0 1 C0 0.67 0 0.34 0 0 Z " fill="#000000" transform="translate(624,132)"/>
<path d="M0 0 C0.33 0 0.66 0 1 0 C1 1.98 1 3.96 1 6 C0.67 6 0.34 6 0 6 C0 4.02 0 2.04 0 0 Z " fill="#E9E9AA" transform="translate(167,193)"/>
<path d="M0 0 C0.33 0 0.66 0 1 0 C1 1.98 1 3.96 1 6 C0.67 6 0.34 6 0 6 C0 4.02 0 2.04 0 0 Z " fill="#000000" transform="translate(796,120)"/>
<path d="M0 0 C1.65 0 3.3 0 5 0 C5 0.33 5 0.66 5 1 C3.35 1 1.7 1 0 1 C0 0.67 0 0.34 0 0 Z " fill="#000000" transform="translate(799,117)"/>
<path d="M0 0 C4 1 4 1 4 1 Z " fill="#000000" transform="translate(359,132)"/>
<path d="M0 0 C1 4 1 4 1 4 Z " fill="#FFFFDF" transform="translate(247,103)"/>
<path d="" fill="#000000" transform="translate(0,0)"/>
<path d="M0 0 C3 1 3 1 3 1 Z " fill="#000000" transform="translate(764,132)"/>
<path d="M0 0 C3 1 3 1 3 1 Z " fill="#000000" transform="translate(672,132)"/>
<path d="M0 0 C3 1 3 1 3 1 Z " fill="#000000" transform="translate(364,132)"/>
<path d="M0 0 C3 1 3 1 3 1 Z " fill="#000000" transform="translate(704,106)"/>
<path d="M0 0 C3 1 3 1 3 1 Z " fill="#000000" transform="translate(700,106)"/>
<path d="M0 0 C2 1 2 1 2 1 Z " fill="#000000" transform="translate(528,182)"/>
<path d="" fill="#000000" transform="translate(0,0)"/>
<path d="" fill="#000000" transform="translate(0,0)"/>
<path d="" fill="#000000" transform="translate(0,0)"/>
<path d="M0 0 C2 1 2 1 2 1 Z " fill="#000000" transform="translate(677,153)"/>
<path d="M0 0 C2 1 2 1 2 1 Z " fill="#000000" transform="translate(465,151)"/>
<path d="M0 0 C2 1 2 1 2 1 Z " fill="#000000" transform="translate(472,144)"/>
<path d="M0 0 C2 1 2 1 2 1 Z " fill="#000000" transform="translate(757,133)"/>
<path d="M0 0 C2 1 2 1 2 1 Z " fill="#000000" transform="translate(413,133)"/>
<path d="M0 0 C2 1 2 1 2 1 Z " fill="#000000" transform="translate(466,132)"/>
<path d="" fill="#FFFFFF" transform="translate(0,0)"/>
<path d="" fill="#FFFFFF" transform="translate(0,0)"/>
<path d="" fill="#000000" transform="translate(0,0)"/>
<path d="" fill="#000000" transform="translate(0,0)"/>
<path d="" fill="#000000" transform="translate(0,0)"/>
<path d="" fill="#000000" transform="translate(0,0)"/>
<path d="" fill="#000000" transform="translate(0,0)"/>
<path d="" fill="#000000" transform="translate(0,0)"/>
<path d="" fill="#000000" transform="translate(0,0)"/>
<path d="" fill="#000000" transform="translate(0,0)"/>
<path d="" fill="#000000" transform="translate(0,0)"/>
<path d="" fill="#000000" transform="translate(0,0)"/>
<path d="" fill="#000000" transform="translate(0,0)"/>
<path d="" fill="#000000" transform="translate(0,0)"/>
<path d="" fill="#000000" transform="translate(0,0)"/>
<path d="" fill="#000000" transform="translate(0,0)"/>
<path d="" fill="#000000" transform="translate(0,0)"/>
<path d="" fill="#FFFFFF" transform="translate(0,0)"/>
<path d="" fill="#000000" transform="translate(0,0)"/>
<path d="" fill="#000000" transform="translate(0,0)"/>
<path d="" fill="#000000" transform="translate(0,0)"/>
<path d="" fill="#000000" transform="translate(0,0)"/>
<path d="" fill="#000000" transform="translate(0,0)"/>
<path d="" fill="#000000" transform="translate(0,0)"/>
<path d="" fill="#000000" transform="translate(0,0)"/>
</svg>
