<?xml version="1.0" encoding="UTF-8"?>
<svg version="1.1" xmlns="http://www.w3.org/2000/svg" width="1224" height="816">
<path d="M0 0 C25.74 0 51.48 0 78 0 C78 0.66 78 1.32 78 2 C78.66 2 79.32 2 80 2 C80 9.26 80 16.52 80 24 C79.34 24 78.68 24 78 24 C78 25.32 78 26.64 78 28 C77.34 28 76.68 28 76 28 C76 28.66 76 29.32 76 30 C75.34 30 74.68 30 74 30 C74 30.66 74 31.32 74 32 C72.68 32 71.36 32 70 32 C70 32.66 70 33.32 70 34 C69.34 34 68.68 34 68 34 C68 34.66 68 35.32 68 36 C47.54 36 27.08 36 6 36 C6 36.66 6 37.32 6 38 C4.68 38 3.36 38 2 38 C2 38.66 2 39.32 2 40 C1.34 40 0.68 40 0 40 C0 40.66 0 41.32 0 42 C-0.66 42 -1.32 42 -2 42 C-2 42.66 -2 43.32 -2 44 C-2.66 44 -3.32 44 -4 44 C-4 44.66 -4 45.32 -4 46 C-4.66 46 -5.32 46 -6 46 C-6 48.64 -6 51.28 -6 54 C-6.66 54 -7.32 54 -8 54 C-8 63.9 -8 73.8 -8 84 C-4.04 84 -0.08 84 4 84 C4 83.34 4 82.68 4 82 C14.56 82 25.12 82 36 82 C36 82.66 36 83.32 36 84 C37.32 84 38.64 84 40 84 C40 91.26 40 98.52 40 106 C39.34 106 38.68 106 38 106 C38 107.98 38 109.96 38 112 C37.34 112 36.68 112 36 112 C36 112.66 36 113.32 36 114 C34.68 114 33.36 114 32 114 C32 114.66 32 115.32 32 116 C18.8 116 5.6 116 -8 116 C-8 117.32 -8 118.64 -8 120 C-7.34 120 -6.68 120 -6 120 C-6 127.92 -6 135.84 -6 144 C-6.66 144 -7.32 144 -8 144 C-8 147.96 -8 151.92 -8 156 C-8.66 156 -9.32 156 -10 156 C-10 157.32 -10 158.64 -10 160 C-10.66 160 -11.32 160 -12 160 C-12 160.66 -12 161.32 -12 162 C-12.66 162 -13.32 162 -14 162 C-14 162.66 -14 163.32 -14 164 C-14.66 164 -15.32 164 -16 164 C-16 165.32 -16 166.64 -16 168 C-17.32 168 -18.64 168 -20 168 C-20 168.66 -20 169.32 -20 170 C-21.32 170 -22.64 170 -24 170 C-24 170.66 -24 171.32 -24 172 C-31.26 172 -38.52 172 -46 172 C-46 153.52 -46 135.04 -46 116 C-53.26 116 -60.52 116 -68 116 C-68 115.34 -68 114.68 -68 114 C-68.66 114 -69.32 114 -70 114 C-70 104.1 -70 94.2 -70 84 C-68.02 84 -66.04 84 -64 84 C-64 83.34 -64 82.68 -64 82 C-60.04 82 -56.08 82 -52 82 C-52 82.66 -52 83.32 -52 84 C-50.02 84 -48.04 84 -46 84 C-46 68.16 -46 52.32 -46 36 C-45.34 36 -44.68 36 -44 36 C-44 34.02 -44 32.04 -44 30 C-43.34 30 -42.68 30 -42 30 C-42 28.02 -42 26.04 -42 24 C-41.34 24 -40.68 24 -40 24 C-40 22.68 -40 21.36 -40 20 C-39.34 20 -38.68 20 -38 20 C-38 19.34 -38 18.68 -38 18 C-37.34 18 -36.68 18 -36 18 C-36 17.34 -36 16.68 -36 16 C-35.34 16 -34.68 16 -34 16 C-34 15.34 -34 14.68 -34 14 C-33.34 14 -32.68 14 -32 14 C-32 13.34 -32 12.68 -32 12 C-31.34 12 -30.68 12 -30 12 C-30 11.34 -30 10.68 -30 10 C-28.68 10 -27.36 10 -26 10 C-26 9.34 -26 8.68 -26 8 C-25.34 8 -24.68 8 -24 8 C-24 7.34 -24 6.68 -24 6 C-22.68 6 -21.36 6 -20 6 C-20 5.34 -20 4.68 -20 4 C-17.36 4 -14.72 4 -12 4 C-12 3.34 -12 2.68 -12 2 C-8.04 2 -4.08 2 0 2 C0 1.34 0 0.68 0 0 Z " fill="#4DB88C" transform="translate(260,302)"/>
<path d="M0 0 C17.82 0 35.64 0 54 0 C54 0.66 54 1.32 54 2 C55.32 2 56.64 2 58 2 C58 2.66 58 3.32 58 4 C59.32 4 60.64 4 62 4 C62 4.66 62 5.32 62 6 C62.66 6 63.32 6 64 6 C64 6.66 64 7.32 64 8 C64.66 8 65.32 8 66 8 C66 8.66 66 9.32 66 10 C66.66 10 67.32 10 68 10 C68 10.66 68 11.32 68 12 C68.66 12 69.32 12 70 12 C70 14.64 70 17.28 70 20 C70.66 20 71.32 20 72 20 C72 23.3 72 26.6 72 30 C71.34 30 70.68 30 70 30 C70 33.3 70 36.6 70 40 C69.34 40 68.68 40 68 40 C68 40.66 68 41.32 68 42 C67.34 42 66.68 42 66 42 C66 42.66 66 43.32 66 44 C65.34 44 64.68 44 64 44 C64 44.66 64 45.32 64 46 C63.34 46 62.68 46 62 46 C62 46.66 62 47.32 62 48 C62.66 48 63.32 48 64 48 C64 48.66 64 49.32 64 50 C64.66 50 65.32 50 66 50 C66 50.66 66 51.32 66 52 C67.32 52 68.64 52 70 52 C70 52.66 70 53.32 70 54 C70.66 54 71.32 54 72 54 C72 55.32 72 56.64 72 58 C72.66 58 73.32 58 74 58 C74 58.66 74 59.32 74 60 C74.66 60 75.32 60 76 60 C76 67.92 76 75.84 76 84 C75.34 84 74.68 84 74 84 C74 85.32 74 86.64 74 88 C73.34 88 72.68 88 72 88 C72 88.66 72 89.32 72 90 C71.34 90 70.68 90 70 90 C70 90.66 70 91.32 70 92 C69.34 92 68.68 92 68 92 C68 92.66 68 93.32 68 94 C67.34 94 66.68 94 66 94 C66 94.66 66 95.32 66 96 C64.68 96 63.36 96 62 96 C62 96.66 62 97.32 62 98 C61.34 98 60.68 98 60 98 C60 98.66 60 99.32 60 100 C55.38 100 50.76 100 46 100 C46 100.66 46 101.32 46 102 C31.48 102 16.96 102 2 102 C2 101.34 2 100.68 2 100 C1.34 100 0.68 100 0 100 C0 67 0 34 0 0 Z M22 18 C22 25.26 22 32.52 22 40 C28.6 40 35.2 40 42 40 C42 39.34 42 38.68 42 38 C43.32 38 44.64 38 46 38 C46 37.34 46 36.68 46 36 C46.66 36 47.32 36 48 36 C48 32.7 48 29.4 48 26 C47.34 26 46.68 26 46 26 C46 24.68 46 23.36 46 22 C45.34 22 44.68 22 44 22 C44 21.34 44 20.68 44 20 C42.02 20 40.04 20 38 20 C38 19.34 38 18.68 38 18 C32.72 18 27.44 18 22 18 Z M22 58 C22 65.92 22 73.84 22 82 C29.92 82 37.84 82 46 82 C46 81.34 46 80.68 46 80 C47.32 80 48.64 80 50 80 C50 78.68 50 77.36 50 76 C50.66 76 51.32 76 52 76 C52 72.04 52 68.08 52 64 C51.34 64 50.68 64 50 64 C50 63.34 50 62.68 50 62 C49.34 62 48.68 62 48 62 C48 61.34 48 60.68 48 60 C45.36 60 42.72 60 40 60 C40 59.34 40 58.68 40 58 C34.06 58 28.12 58 22 58 Z " fill="#343C49" transform="translate(598,356)"/>
<path d="M0 0 C7.26 0 14.52 0 22 0 C22 1.32 22 2.64 22 4 C22.66 4 23.32 4 24 4 C24 13.9 24 23.8 24 34 C24.66 34 25.32 34 26 34 C26 33.34 26 32.68 26 32 C27.32 32 28.64 32 30 32 C30 31.34 30 30.68 30 30 C37.92 30 45.84 30 54 30 C54 30.66 54 31.32 54 32 C55.32 32 56.64 32 58 32 C58 32.66 58 33.32 58 34 C58.66 34 59.32 34 60 34 C60 34.66 60 35.32 60 36 C60.66 36 61.32 36 62 36 C62 36.66 62 37.32 62 38 C62.66 38 63.32 38 64 38 C64 38.66 64 39.32 64 40 C64.66 40 65.32 40 66 40 C66 41.98 66 43.96 66 46 C66.66 46 67.32 46 68 46 C68 47.98 68 49.96 68 52 C68.66 52 69.32 52 70 52 C70 67.84 70 83.68 70 100 C69.34 100 68.68 100 68 100 C68 100.66 68 101.32 68 102 C60.74 102 53.48 102 46 102 C46 87.48 46 72.96 46 58 C45.34 58 44.68 58 44 58 C44 56.68 44 55.36 44 54 C43.34 54 42.68 54 42 54 C42 53.34 42 52.68 42 52 C38.04 52 34.08 52 30 52 C30 52.66 30 53.32 30 54 C28.68 54 27.36 54 26 54 C26 55.32 26 56.64 26 58 C25.34 58 24.68 58 24 58 C24 71.86 24 85.72 24 100 C23.34 100 22.68 100 22 100 C22 100.66 22 101.32 22 102 C14.74 102 7.48 102 0 102 C0 68.34 0 34.68 0 0 Z " fill="#313A46" transform="translate(516,354)"/>
<path d="M0 0 C7.26 0 14.52 0 22 0 C22 18.48 22 36.96 22 56 C22.66 56 23.32 56 24 56 C24 55.34 24 54.68 24 54 C24.66 54 25.32 54 26 54 C26 52.68 26 51.36 26 50 C26.66 50 27.32 50 28 50 C28 49.34 28 48.68 28 48 C28.66 48 29.32 48 30 48 C30 47.34 30 46.68 30 46 C30.66 46 31.32 46 32 46 C32 45.34 32 44.68 32 44 C32.66 44 33.32 44 34 44 C34 42.68 34 41.36 34 40 C34.66 40 35.32 40 36 40 C36 39.34 36 38.68 36 38 C36.66 38 37.32 38 38 38 C38 37.34 38 36.68 38 36 C39.32 36 40.64 36 42 36 C42 34.68 42 33.36 42 32 C43.32 32 44.64 32 46 32 C46 31.34 46 30.68 46 30 C51.28 30 56.56 30 62 30 C62 30.66 62 31.32 62 32 C63.98 32 65.96 32 68 32 C68 33.98 68 35.96 68 38 C67.34 38 66.68 38 66 38 C66 38.66 66 39.32 66 40 C65.34 40 64.68 40 64 40 C64 40.66 64 41.32 64 42 C63.34 42 62.68 42 62 42 C62 42.66 62 43.32 62 44 C61.34 44 60.68 44 60 44 C60 44.66 60 45.32 60 46 C59.34 46 58.68 46 58 46 C58 47.32 58 48.64 58 50 C57.34 50 56.68 50 56 50 C56 50.66 56 51.32 56 52 C55.34 52 54.68 52 54 52 C54 52.66 54 53.32 54 54 C53.34 54 52.68 54 52 54 C52 55.32 52 56.64 52 58 C51.34 58 50.68 58 50 58 C50 58.66 50 59.32 50 60 C49.34 60 48.68 60 48 60 C48 60.66 48 61.32 48 62 C47.34 62 46.68 62 46 62 C46 62.66 46 63.32 46 64 C45.34 64 44.68 64 44 64 C44 64.66 44 65.32 44 66 C44.66 66 45.32 66 46 66 C46 66.66 46 67.32 46 68 C46.66 68 47.32 68 48 68 C48 68.66 48 69.32 48 70 C48.66 70 49.32 70 50 70 C50 70.66 50 71.32 50 72 C50.66 72 51.32 72 52 72 C52 73.32 52 74.64 52 76 C52.66 76 53.32 76 54 76 C54 76.66 54 77.32 54 78 C54.66 78 55.32 78 56 78 C56 79.32 56 80.64 56 82 C56.66 82 57.32 82 58 82 C58 82.66 58 83.32 58 84 C58.66 84 59.32 84 60 84 C60 85.32 60 86.64 60 88 C60.66 88 61.32 88 62 88 C62 88.66 62 89.32 62 90 C62.66 90 63.32 90 64 90 C64 90.66 64 91.32 64 92 C64.66 92 65.32 92 66 92 C66 92.66 66 93.32 66 94 C66.66 94 67.32 94 68 94 C68 95.98 68 97.96 68 100 C68.66 100 69.32 100 70 100 C70 100.66 70 101.32 70 102 C69.34 102 68.68 102 68 102 C68 102.66 68 103.32 68 104 C60.08 104 52.16 104 44 104 C44 103.34 44 102.68 44 102 C43.34 102 42.68 102 42 102 C42 101.34 42 100.68 42 100 C41.34 100 40.68 100 40 100 C40 99.34 40 98.68 40 98 C39.34 98 38.68 98 38 98 C38 96.68 38 95.36 38 94 C37.34 94 36.68 94 36 94 C36 93.34 36 92.68 36 92 C35.34 92 34.68 92 34 92 C34 90.68 34 89.36 34 88 C33.34 88 32.68 88 32 88 C32 87.34 32 86.68 32 86 C31.34 86 30.68 86 30 86 C30 85.34 30 84.68 30 84 C29.34 84 28.68 84 28 84 C28 83.34 28 82.68 28 82 C27.34 82 26.68 82 26 82 C26 80.68 26 79.36 26 78 C25.34 78 24.68 78 24 78 C24 77.34 24 76.68 24 76 C23.34 76 22.68 76 22 76 C22 84.58 22 93.16 22 102 C14.74 102 7.48 102 0 102 C0 68.34 0 34.68 0 0 Z " fill="#323946" transform="translate(820,354)"/>
<path d="M0 0 C8.58 0 17.16 0 26 0 C26 0.66 26 1.32 26 2 C27.98 2 29.96 2 32 2 C32 2.66 32 3.32 32 4 C32.66 4 33.32 4 34 4 C34 4.66 34 5.32 34 6 C34.66 6 35.32 6 36 6 C36 6.66 36 7.32 36 8 C37.32 8 38.64 8 40 8 C40 9.32 40 10.64 40 12 C40.66 12 41.32 12 42 12 C42 13.32 42 14.64 42 16 C42.66 16 43.32 16 44 16 C44 16.66 44 17.32 44 18 C44.66 18 45.32 18 46 18 C46 19.98 46 21.96 46 24 C46.66 24 47.32 24 48 24 C48 30.6 48 37.2 48 44 C32.16 44 16.32 44 0 44 C0 44.66 0 45.32 0 46 C1.32 46 2.64 46 4 46 C4 46.66 4 47.32 4 48 C3.34 48 2.68 48 2 48 C2 48.66 2 49.32 2 50 C2.66 50 3.32 50 4 50 C4 50.66 4 51.32 4 52 C4.66 52 5.32 52 6 52 C6 52.66 6 53.32 6 54 C7.32 54 8.64 54 10 54 C10 54.66 10 55.32 10 56 C13.96 56 17.92 56 22 56 C22 55.34 22 54.68 22 54 C23.32 54 24.64 54 26 54 C26 53.34 26 52.68 26 52 C27.32 52 28.64 52 30 52 C30 51.34 30 50.68 30 50 C31.98 50 33.96 50 36 50 C36 50.66 36 51.32 36 52 C36.66 52 37.32 52 38 52 C38 52.66 38 53.32 38 54 C38.66 54 39.32 54 40 54 C40 54.66 40 55.32 40 56 C41.32 56 42.64 56 44 56 C44 58.64 44 61.28 44 64 C43.34 64 42.68 64 42 64 C42 64.66 42 65.32 42 66 C41.34 66 40.68 66 40 66 C40 67.32 40 68.64 40 70 C38.68 70 37.36 70 36 70 C36 70.66 36 71.32 36 72 C34.02 72 32.04 72 30 72 C30 72.66 30 73.32 30 74 C27.36 74 24.72 74 22 74 C22 74.66 22 75.32 22 76 C17.38 76 12.76 76 8 76 C8 75.34 8 74.68 8 74 C5.36 74 2.72 74 0 74 C0 73.34 0 72.68 0 72 C-1.98 72 -3.96 72 -6 72 C-6 71.34 -6 70.68 -6 70 C-6.66 70 -7.32 70 -8 70 C-8 69.34 -8 68.68 -8 68 C-9.32 68 -10.64 68 -12 68 C-12 67.34 -12 66.68 -12 66 C-12.66 66 -13.32 66 -14 66 C-14 65.34 -14 64.68 -14 64 C-14.66 64 -15.32 64 -16 64 C-16 62.68 -16 61.36 -16 60 C-16.66 60 -17.32 60 -18 60 C-18 59.34 -18 58.68 -18 58 C-18.66 58 -19.32 58 -20 58 C-20 56.68 -20 55.36 -20 54 C-20.66 54 -21.32 54 -22 54 C-22 52.02 -22 50.04 -22 48 C-22.66 48 -23.32 48 -24 48 C-24 41.4 -24 34.8 -24 28 C-23.34 28 -22.68 28 -22 28 C-22 26.02 -22 24.04 -22 22 C-21.34 22 -20.68 22 -20 22 C-20 20.68 -20 19.36 -20 18 C-19.34 18 -18.68 18 -18 18 C-18 17.34 -18 16.68 -18 16 C-17.34 16 -16.68 16 -16 16 C-16 14.02 -16 12.04 -16 10 C-15.34 10 -14.68 10 -14 10 C-14 9.34 -14 8.68 -14 8 C-12.68 8 -11.36 8 -10 8 C-10 7.34 -10 6.68 -10 6 C-9.34 6 -8.68 6 -8 6 C-8 5.34 -8 4.68 -8 4 C-6.68 4 -5.36 4 -4 4 C-4 3.34 -4 2.68 -4 2 C-2.68 2 -1.36 2 0 2 C0 1.34 0 0.68 0 0 Z M10 20 C10 20.66 10 21.32 10 22 C8.68 22 7.36 22 6 22 C6 22.66 6 23.32 6 24 C5.34 24 4.68 24 4 24 C4 24.66 4 25.32 4 26 C3.34 26 2.68 26 2 26 C2 26.66 2 27.32 2 28 C7.94 28 13.88 28 20 28 C20 26.02 20 24.04 20 22 C18.68 22 17.36 22 16 22 C16 21.34 16 20.68 16 20 C14.02 20 12.04 20 10 20 Z " fill="#363E4A" transform="translate(910,384)"/>
<path d="M0 0 C9.9 0 19.8 0 30 0 C30 0.66 30 1.32 30 2 C31.32 2 32.64 2 34 2 C34 2.66 34 3.32 34 4 C35.32 4 36.64 4 38 4 C38 4.66 38 5.32 38 6 C38.66 6 39.32 6 40 6 C40 6.66 40 7.32 40 8 C40.66 8 41.32 8 42 8 C42 8.66 42 9.32 42 10 C42.66 10 43.32 10 44 10 C44 11.32 44 12.64 44 14 C44.66 14 45.32 14 46 14 C46 15.32 46 16.64 46 18 C46.66 18 47.32 18 48 18 C48 35.82 48 53.64 48 72 C40.74 72 33.48 72 26 72 C26 71.34 26 70.68 26 70 C25.34 70 24.68 70 24 70 C24 70.66 24 71.32 24 72 C22.02 72 20.04 72 18 72 C18 72.66 18 73.32 18 74 C15.36 74 12.72 74 10 74 C10 74.66 10 75.32 10 76 C7.36 76 4.72 76 2 76 C2 75.34 2 74.68 2 74 C-0.64 74 -3.28 74 -6 74 C-6 73.34 -6 72.68 -6 72 C-7.32 72 -8.64 72 -10 72 C-10 71.34 -10 70.68 -10 70 C-11.32 70 -12.64 70 -14 70 C-14 69.34 -14 68.68 -14 68 C-14.66 68 -15.32 68 -16 68 C-16 66.02 -16 64.04 -16 62 C-16.66 62 -17.32 62 -18 62 C-18 60.02 -18 58.04 -18 56 C-18.66 56 -19.32 56 -20 56 C-20 52.7 -20 49.4 -20 46 C-19.34 46 -18.68 46 -18 46 C-18 44.02 -18 42.04 -18 40 C-17.34 40 -16.68 40 -16 40 C-16 38.68 -16 37.36 -16 36 C-15.34 36 -14.68 36 -14 36 C-14 35.34 -14 34.68 -14 34 C-13.34 34 -12.68 34 -12 34 C-12 33.34 -12 32.68 -12 32 C-10.68 32 -9.36 32 -8 32 C-8 31.34 -8 30.68 -8 30 C-7.34 30 -6.68 30 -6 30 C-6 29.34 -6 28.68 -6 28 C-4.02 28 -2.04 28 0 28 C0 27.34 0 26.68 0 26 C7.92 26 15.84 26 24 26 C24 24.68 24 23.36 24 22 C23.34 22 22.68 22 22 22 C22 21.34 22 20.68 22 20 C20.68 20 19.36 20 18 20 C18 19.34 18 18.68 18 18 C14.7 18 11.4 18 8 18 C8 18.66 8 19.32 8 20 C6.02 20 4.04 20 2 20 C2 20.66 2 21.32 2 22 C1.34 22 0.68 22 0 22 C0 22.66 0 23.32 0 24 C-2.64 24 -5.28 24 -8 24 C-8 22.68 -8 21.36 -8 20 C-8.66 20 -9.32 20 -10 20 C-10 19.34 -10 18.68 -10 18 C-10.66 18 -11.32 18 -12 18 C-12 17.34 -12 16.68 -12 16 C-12.66 16 -13.32 16 -14 16 C-14 13.36 -14 10.72 -14 8 C-13.34 8 -12.68 8 -12 8 C-12 7.34 -12 6.68 -12 6 C-10.68 6 -9.36 6 -8 6 C-8 5.34 -8 4.68 -8 4 C-7.34 4 -6.68 4 -6 4 C-6 3.34 -6 2.68 -6 2 C-4.02 2 -2.04 2 0 2 C0 1.34 0 0.68 0 0 Z M10 42 C10 43.32 10 44.64 10 46 C9.34 46 8.68 46 8 46 C8 46.66 8 47.32 8 48 C6.02 48 4.04 48 2 48 C2 49.32 2 50.64 2 52 C2.66 52 3.32 52 4 52 C4 52.66 4 53.32 4 54 C4.66 54 5.32 54 6 54 C6 54.66 6 55.32 6 56 C9.96 56 13.92 56 18 56 C18 55.34 18 54.68 18 54 C19.98 54 21.96 54 24 54 C24 52.02 24 50.04 24 48 C24.66 48 25.32 48 26 48 C26 47.34 26 46.68 26 46 C24.68 46 23.36 46 22 46 C22 44.68 22 43.36 22 42 C18.04 42 14.08 42 10 42 Z " fill="#323B47" transform="translate(698,384)"/>
<path d="M0 0 C8.58 0 17.16 0 26 0 C26 0.66 26 1.32 26 2 C27.32 2 28.64 2 30 2 C30 2.66 30 3.32 30 4 C31.32 4 32.64 4 34 4 C34 4.66 34 5.32 34 6 C34.66 6 35.32 6 36 6 C36 6.66 36 7.32 36 8 C36.66 8 37.32 8 38 8 C38 8.66 38 9.32 38 10 C38.66 10 39.32 10 40 10 C40 10.66 40 11.32 40 12 C40.66 12 41.32 12 42 12 C42 13.32 42 14.64 42 16 C42.66 16 43.32 16 44 16 C44 16.66 44 17.32 44 18 C44.66 18 45.32 18 46 18 C46 22.62 46 27.24 46 32 C46.66 32 47.32 32 48 32 C48 34.64 48 37.28 48 40 C47.34 40 46.68 40 46 40 C46 41.32 46 42.64 46 44 C30.82 44 15.64 44 0 44 C0 45.32 0 46.64 0 48 C0.66 48 1.32 48 2 48 C2 48.66 2 49.32 2 50 C2.66 50 3.32 50 4 50 C4 51.32 4 52.64 4 54 C5.32 54 6.64 54 8 54 C8 54.66 8 55.32 8 56 C12.62 56 17.24 56 22 56 C22 55.34 22 54.68 22 54 C23.32 54 24.64 54 26 54 C26 53.34 26 52.68 26 52 C26.66 52 27.32 52 28 52 C28 51.34 28 50.68 28 50 C30.64 50 33.28 50 36 50 C36 50.66 36 51.32 36 52 C36.66 52 37.32 52 38 52 C38 52.66 38 53.32 38 54 C38.66 54 39.32 54 40 54 C40 54.66 40 55.32 40 56 C41.32 56 42.64 56 44 56 C44 58.64 44 61.28 44 64 C43.34 64 42.68 64 42 64 C42 64.66 42 65.32 42 66 C41.34 66 40.68 66 40 66 C40 66.66 40 67.32 40 68 C39.34 68 38.68 68 38 68 C38 68.66 38 69.32 38 70 C37.34 70 36.68 70 36 70 C36 70.66 36 71.32 36 72 C34.02 72 32.04 72 30 72 C30 72.66 30 73.32 30 74 C27.36 74 24.72 74 22 74 C22 74.66 22 75.32 22 76 C16.72 76 11.44 76 6 76 C6 75.34 6 74.68 6 74 C4.02 74 2.04 74 0 74 C0 73.34 0 72.68 0 72 C-1.98 72 -3.96 72 -6 72 C-6 71.34 -6 70.68 -6 70 C-7.32 70 -8.64 70 -10 70 C-10 69.34 -10 68.68 -10 68 C-10.66 68 -11.32 68 -12 68 C-12 67.34 -12 66.68 -12 66 C-12.66 66 -13.32 66 -14 66 C-14 65.34 -14 64.68 -14 64 C-14.66 64 -15.32 64 -16 64 C-16 63.34 -16 62.68 -16 62 C-16.66 62 -17.32 62 -18 62 C-18 60.02 -18 58.04 -18 56 C-18.66 56 -19.32 56 -20 56 C-20 55.34 -20 54.68 -20 54 C-20.66 54 -21.32 54 -22 54 C-22 50.7 -22 47.4 -22 44 C-22.66 44 -23.32 44 -24 44 C-24 38.72 -24 33.44 -24 28 C-23.34 28 -22.68 28 -22 28 C-22 26.02 -22 24.04 -22 22 C-21.34 22 -20.68 22 -20 22 C-20 20.68 -20 19.36 -20 18 C-19.34 18 -18.68 18 -18 18 C-18 16.68 -18 15.36 -18 14 C-17.34 14 -16.68 14 -16 14 C-16 12.68 -16 11.36 -16 10 C-15.34 10 -14.68 10 -14 10 C-14 9.34 -14 8.68 -14 8 C-12.68 8 -11.36 8 -10 8 C-10 7.34 -10 6.68 -10 6 C-9.34 6 -8.68 6 -8 6 C-8 5.34 -8 4.68 -8 4 C-6.68 4 -5.36 4 -4 4 C-4 3.34 -4 2.68 -4 2 C-2.68 2 -1.36 2 0 2 C0 1.34 0 0.68 0 0 Z M6 18 C6 18.66 6 19.32 6 20 C5.34 20 4.68 20 4 20 C4 20.66 4 21.32 4 22 C3.34 22 2.68 22 2 22 C2 22.66 2 23.32 2 24 C1.34 24 0.68 24 0 24 C0 25.32 0 26.64 0 28 C7.26 28 14.52 28 22 28 C22 25.36 22 22.72 22 20 C21.34 20 20.68 20 20 20 C20 19.34 20 18.68 20 18 C15.38 18 10.76 18 6 18 Z " fill="#343C48" transform="translate(394,384)"/>
<path d="M0 0 C9.24 0 18.48 0 28 0 C28 0.66 28 1.32 28 2 C29.32 2 30.64 2 32 2 C32 2.66 32 3.32 32 4 C32.66 4 33.32 4 34 4 C34 4.66 34 5.32 34 6 C35.32 6 36.64 6 38 6 C38 7.32 38 8.64 38 10 C38.66 10 39.32 10 40 10 C40 11.32 40 12.64 40 14 C39.34 14 38.68 14 38 14 C38 15.32 38 16.64 38 18 C37.34 18 36.68 18 36 18 C36 18.66 36 19.32 36 20 C35.34 20 34.68 20 34 20 C34 20.66 34 21.32 34 22 C33.34 22 32.68 22 32 22 C32 22.66 32 23.32 32 24 C30.02 24 28.04 24 26 24 C26 23.34 26 22.68 26 22 C24.68 22 23.36 22 22 22 C22 21.34 22 20.68 22 20 C21.34 20 20.68 20 20 20 C20 19.34 20 18.68 20 18 C16.04 18 12.08 18 8 18 C8 18.66 8 19.32 8 20 C7.34 20 6.68 20 6 20 C6 20.66 6 21.32 6 22 C6.66 22 7.32 22 8 22 C8 22.66 8 23.32 8 24 C9.98 24 11.96 24 14 24 C14 24.66 14 25.32 14 26 C15.98 26 17.96 26 20 26 C20 26.66 20 27.32 20 28 C21.32 28 22.64 28 24 28 C24 28.66 24 29.32 24 30 C26.64 30 29.28 30 32 30 C32 30.66 32 31.32 32 32 C33.32 32 34.64 32 36 32 C36 32.66 36 33.32 36 34 C36.66 34 37.32 34 38 34 C38 34.66 38 35.32 38 36 C38.66 36 39.32 36 40 36 C40 37.32 40 38.64 40 40 C40.66 40 41.32 40 42 40 C42 45.94 42 51.88 42 58 C41.34 58 40.68 58 40 58 C40 59.32 40 60.64 40 62 C39.34 62 38.68 62 38 62 C38 63.32 38 64.64 38 66 C37.34 66 36.68 66 36 66 C36 66.66 36 67.32 36 68 C35.34 68 34.68 68 34 68 C34 68.66 34 69.32 34 70 C33.34 70 32.68 70 32 70 C32 70.66 32 71.32 32 72 C30.02 72 28.04 72 26 72 C26 72.66 26 73.32 26 74 C24.02 74 22.04 74 20 74 C20 74.66 20 75.32 20 76 C15.38 76 10.76 76 6 76 C6 75.34 6 74.68 6 74 C3.36 74 0.72 74 -2 74 C-2 73.34 -2 72.68 -2 72 C-3.98 72 -5.96 72 -8 72 C-8 71.34 -8 70.68 -8 70 C-9.32 70 -10.64 70 -12 70 C-12 69.34 -12 68.68 -12 68 C-13.32 68 -14.64 68 -16 68 C-16 66.68 -16 65.36 -16 64 C-16.66 64 -17.32 64 -18 64 C-18 62.68 -18 61.36 -18 60 C-17.34 60 -16.68 60 -16 60 C-16 58.68 -16 57.36 -16 56 C-15.34 56 -14.68 56 -14 56 C-14 55.34 -14 54.68 -14 54 C-13.34 54 -12.68 54 -12 54 C-12 53.34 -12 52.68 -12 52 C-11.34 52 -10.68 52 -10 52 C-10 50.68 -10 49.36 -10 48 C-8.02 48 -6.04 48 -4 48 C-4 48.66 -4 49.32 -4 50 C-2.68 50 -1.36 50 0 50 C0 50.66 0 51.32 0 52 C0.66 52 1.32 52 2 52 C2 52.66 2 53.32 2 54 C3.98 54 5.96 54 8 54 C8 54.66 8 55.32 8 56 C11.96 56 15.92 56 20 56 C20 55.34 20 54.68 20 54 C20.66 54 21.32 54 22 54 C22 53.34 22 52.68 22 52 C20.68 52 19.36 52 18 52 C18 51.34 18 50.68 18 50 C17.34 50 16.68 50 16 50 C16 49.34 16 48.68 16 48 C13.36 48 10.72 48 8 48 C8 47.34 8 46.68 8 46 C6.02 46 4.04 46 2 46 C2 45.34 2 44.68 2 44 C0.68 44 -0.64 44 -2 44 C-2 43.34 -2 42.68 -2 42 C-2.66 42 -3.32 42 -4 42 C-4 41.34 -4 40.68 -4 40 C-5.32 40 -6.64 40 -8 40 C-8 39.34 -8 38.68 -8 38 C-8.66 38 -9.32 38 -10 38 C-10 37.34 -10 36.68 -10 36 C-10.66 36 -11.32 36 -12 36 C-12 34.68 -12 33.36 -12 32 C-12.66 32 -13.32 32 -14 32 C-14 30.02 -14 28.04 -14 26 C-14.66 26 -15.32 26 -16 26 C-16 23.36 -16 20.72 -16 18 C-15.34 18 -14.68 18 -14 18 C-14 16.02 -14 14.04 -14 12 C-13.34 12 -12.68 12 -12 12 C-12 11.34 -12 10.68 -12 10 C-11.34 10 -10.68 10 -10 10 C-10 8.68 -10 7.36 -10 6 C-9.34 6 -8.68 6 -8 6 C-8 5.34 -8 4.68 -8 4 C-6.68 4 -5.36 4 -4 4 C-4 3.34 -4 2.68 -4 2 C-2.68 2 -1.36 2 0 2 C0 1.34 0 0.68 0 0 Z " fill="#333C47" transform="translate(464,384)"/>
<path d="M0 0 C9.24 0 18.48 0 28 0 C28 0.66 28 1.32 28 2 C29.32 2 30.64 2 32 2 C32 2.66 32 3.32 32 4 C32.66 4 33.32 4 34 4 C34 4.66 34 5.32 34 6 C35.32 6 36.64 6 38 6 C38 6.66 38 7.32 38 8 C38.66 8 39.32 8 40 8 C40 10.64 40 13.28 40 16 C39.34 16 38.68 16 38 16 C38 16.66 38 17.32 38 18 C37.34 18 36.68 18 36 18 C36 18.66 36 19.32 36 20 C35.34 20 34.68 20 34 20 C34 20.66 34 21.32 34 22 C33.34 22 32.68 22 32 22 C32 22.66 32 23.32 32 24 C30.68 24 29.36 24 28 24 C28 23.34 28 22.68 28 22 C26.68 22 25.36 22 24 22 C24 21.34 24 20.68 24 20 C23.34 20 22.68 20 22 20 C22 19.34 22 18.68 22 18 C17.38 18 12.76 18 8 18 C8 19.98 8 21.96 8 24 C9.98 24 11.96 24 14 24 C14 24.66 14 25.32 14 26 C15.98 26 17.96 26 20 26 C20 26.66 20 27.32 20 28 C21.98 28 23.96 28 26 28 C26 28.66 26 29.32 26 30 C28.64 30 31.28 30 34 30 C34 30.66 34 31.32 34 32 C35.32 32 36.64 32 38 32 C38 32.66 38 33.32 38 34 C38.66 34 39.32 34 40 34 C40 35.32 40 36.64 40 38 C40.66 38 41.32 38 42 38 C42 39.98 42 41.96 42 44 C42.66 44 43.32 44 44 44 C44 47.96 44 51.92 44 56 C43.34 56 42.68 56 42 56 C42 57.98 42 59.96 42 62 C41.34 62 40.68 62 40 62 C40 63.32 40 64.64 40 66 C39.34 66 38.68 66 38 66 C38 66.66 38 67.32 38 68 C37.34 68 36.68 68 36 68 C36 68.66 36 69.32 36 70 C34.68 70 33.36 70 32 70 C32 70.66 32 71.32 32 72 C30.68 72 29.36 72 28 72 C28 72.66 28 73.32 28 74 C25.36 74 22.72 74 20 74 C20 74.66 20 75.32 20 76 C15.38 76 10.76 76 6 76 C6 75.34 6 74.68 6 74 C4.02 74 2.04 74 0 74 C0 73.34 0 72.68 0 72 C-2.64 72 -5.28 72 -8 72 C-8 71.34 -8 70.68 -8 70 C-8.66 70 -9.32 70 -10 70 C-10 69.34 -10 68.68 -10 68 C-11.32 68 -12.64 68 -14 68 C-14 67.34 -14 66.68 -14 66 C-14.66 66 -15.32 66 -16 66 C-16 63.36 -16 60.72 -16 58 C-15.34 58 -14.68 58 -14 58 C-14 56.68 -14 55.36 -14 54 C-13.34 54 -12.68 54 -12 54 C-12 53.34 -12 52.68 -12 52 C-11.34 52 -10.68 52 -10 52 C-10 51.34 -10 50.68 -10 50 C-9.34 50 -8.68 50 -8 50 C-8 49.34 -8 48.68 -8 48 C-6.68 48 -5.36 48 -4 48 C-4 48.66 -4 49.32 -4 50 C-2.68 50 -1.36 50 0 50 C0 50.66 0 51.32 0 52 C0.66 52 1.32 52 2 52 C2 52.66 2 53.32 2 54 C3.98 54 5.96 54 8 54 C8 54.66 8 55.32 8 56 C11.96 56 15.92 56 20 56 C20 55.34 20 54.68 20 54 C20.66 54 21.32 54 22 54 C22 53.34 22 52.68 22 52 C21.34 52 20.68 52 20 52 C20 51.34 20 50.68 20 50 C18.68 50 17.36 50 16 50 C16 49.34 16 48.68 16 48 C13.36 48 10.72 48 8 48 C8 47.34 8 46.68 8 46 C6.68 46 5.36 46 4 46 C4 45.34 4 44.68 4 44 C2.68 44 1.36 44 0 44 C0 43.34 0 42.68 0 42 C-0.66 42 -1.32 42 -2 42 C-2 41.34 -2 40.68 -2 40 C-3.98 40 -5.96 40 -8 40 C-8 38.68 -8 37.36 -8 36 C-8.66 36 -9.32 36 -10 36 C-10 35.34 -10 34.68 -10 34 C-10.66 34 -11.32 34 -12 34 C-12 33.34 -12 32.68 -12 32 C-12.66 32 -13.32 32 -14 32 C-14 25.4 -14 18.8 -14 12 C-13.34 12 -12.68 12 -12 12 C-12 11.34 -12 10.68 -12 10 C-11.34 10 -10.68 10 -10 10 C-10 9.34 -10 8.68 -10 8 C-9.34 8 -8.68 8 -8 8 C-8 7.34 -8 6.68 -8 6 C-7.34 6 -6.68 6 -6 6 C-6 5.34 -6 4.68 -6 4 C-4.68 4 -3.36 4 -2 4 C-2 3.34 -2 2.68 -2 2 C-1.34 2 -0.68 2 0 2 C0 1.34 0 0.68 0 0 Z " fill="#353E49" transform="translate(768,384)"/>
<path d="M0 0 C6.6 0 13.2 0 20 0 C20 6.6 20 13.2 20 20 C25.28 20 30.56 20 36 20 C36 25.94 36 31.88 36 38 C31.38 38 26.76 38 22 38 C22 49.22 22 60.44 22 72 C26.62 72 31.24 72 36 72 C36 73.32 36 74.64 36 76 C36.66 76 37.32 76 38 76 C38 80.62 38 85.24 38 90 C36.68 90 35.36 90 34 90 C34 90.66 34 91.32 34 92 C31.36 92 28.72 92 26 92 C26 92.66 26 93.32 26 94 C23.36 94 20.72 94 18 94 C18 93.34 18 92.68 18 92 C16.02 92 14.04 92 12 92 C12 91.34 12 90.68 12 90 C10.02 90 8.04 90 6 90 C6 89.34 6 88.68 6 88 C5.34 88 4.68 88 4 88 C4 87.34 4 86.68 4 86 C3.34 86 2.68 86 2 86 C2 84.68 2 83.36 2 82 C1.34 82 0.68 82 0 82 C0 78.7 0 75.4 0 72 C-0.66 72 -1.32 72 -2 72 C-2 60.78 -2 49.56 -2 38 C-5.3 38 -8.6 38 -12 38 C-12 32.06 -12 26.12 -12 20 C-8.04 20 -4.08 20 0 20 C0 13.4 0 6.8 0 0 Z " fill="#313944" transform="translate(972,366)"/>
<path d="M0 0 C5.28 0 10.56 0 16 0 C16 6.6 16 13.2 16 20 C15.34 20 14.68 20 14 20 C14 20.66 14 21.32 14 22 C10.7 22 7.4 22 4 22 C4 22.66 4 23.32 4 24 C2.02 24 0.04 24 -2 24 C-2 24.66 -2 25.32 -2 26 C-3.32 26 -4.64 26 -6 26 C-6 27.32 -6 28.64 -6 30 C-6.66 30 -7.32 30 -8 30 C-8 43.86 -8 57.72 -8 72 C-15.92 72 -23.84 72 -32 72 C-32 48.9 -32 25.8 -32 2 C-24.08 2 -16.16 2 -8 2 C-8 3.32 -8 4.64 -8 6 C-7.34 6 -6.68 6 -6 6 C-6 5.34 -6 4.68 -6 4 C-5.34 4 -4.68 4 -4 4 C-4 3.34 -4 2.68 -4 2 C-2.68 2 -1.36 2 0 2 C0 1.34 0 0.68 0 0 Z " fill="#353E4A" transform="translate(354,384)"/>
<path d="M0 0 C25.74 0 51.48 0 78 0 C78 0.66 78 1.32 78 2 C78.66 2 79.32 2 80 2 C80 9.26 80 16.52 80 24 C79.34 24 78.68 24 78 24 C78 25.32 78 26.64 78 28 C77.34 28 76.68 28 76 28 C76 28.66 76 29.32 76 30 C75.34 30 74.68 30 74 30 C74 30.66 74 31.32 74 32 C72.68 32 71.36 32 70 32 C70 32.66 70 33.32 70 34 C69.34 34 68.68 34 68 34 C68 34.66 68 35.32 68 36 C62.555 35.505 62.555 35.505 57 35 C57 34.67 57 34.34 57 34 C60.465 33.505 60.465 33.505 64 33 C64 32.01 64 31.02 64 30 C65.64453125 28.75390625 65.64453125 28.75390625 67.8125 27.5625 C71.97772156 25.08985964 74.36442231 23.31119161 75.6875 18.5 C75.9795346 15.22921249 76.03061801 12.06292954 76.01953125 8.78125 C76.01530151 7.15799805 76.01530151 7.15799805 76.01098633 5.50195312 C76.00736084 4.67630859 76.00373535 3.85066406 76 3 C66.03713348 3.06148549 56.074523 3.13878639 46.11193466 3.23571491 C41.48479743 3.28024859 36.8577448 3.31954113 32.23046875 3.34643555 C27.7563757 3.37263949 23.28261127 3.41315967 18.80872345 3.46318626 C17.11053843 3.47974033 15.41229672 3.49132536 13.71404266 3.49761391 C4.04295558 3.5370137 -4.69008733 4.03973 -14 7 C-15.051875 7.309375 -16.10375 7.61875 -17.1875 7.9375 C-18.115625 8.288125 -19.04375 8.63875 -20 9 C-21.09634766 9.41378906 -21.09634766 9.41378906 -22.21484375 9.8359375 C-27.16563062 11.84192894 -29.81035703 13.58357128 -33 18 C-33.99 18 -34.98 18 -36 18 C-36 17.34 -36 16.68 -36 16 C-35.34 16 -34.68 16 -34 16 C-34 15.34 -34 14.68 -34 14 C-33.34 14 -32.68 14 -32 14 C-32 13.34 -32 12.68 -32 12 C-31.34 12 -30.68 12 -30 12 C-30 11.34 -30 10.68 -30 10 C-28.68 10 -27.36 10 -26 10 C-26 9.34 -26 8.68 -26 8 C-25.34 8 -24.68 8 -24 8 C-24 7.34 -24 6.68 -24 6 C-22.68 6 -21.36 6 -20 6 C-20 5.34 -20 4.68 -20 4 C-17.36 4 -14.72 4 -12 4 C-12 3.34 -12 2.68 -12 2 C-8.04 2 -4.08 2 0 2 C0 1.34 0 0.68 0 0 Z " fill="#81C2A6" transform="translate(260,302)"/>
<path d="M0 0 C3.96 0 7.92 0 12 0 C12 0.99 12 1.98 12 3 C7.05 3.66 2.1 4.32 -3 5 C-3 13.58 -3 22.16 -3 31 C3.07317654 30.63261796 3.07317654 30.63261796 9.14550781 30.25170898 C9.90702148 30.20860596 10.66853516 30.16550293 11.453125 30.12109375 C12.22817383 30.0739624 13.00322266 30.02683105 13.80175781 29.97827148 C16 30 16 30 20 31 C20 37.6 20 44.2 20 51 C19.34 51 18.68 51 18 51 C18 45.39 18 39.78 18 34 C10.74 34 3.48 34 -4 34 C-4 33.34 -4 32.68 -4 32 C-4.66 32 -5.32 32 -6 32 C-6 22.1 -6 12.2 -6 2 C-4.02 2 -2.04 2 0 2 C0 1.34 0 0.68 0 0 Z " fill="#A0D0BA" transform="translate(196,384)"/>
<path d="M0 0 C7.26 0 14.52 0 22 0 C22 0.66 22 1.32 22 2 C15.4 2 8.8 2 2 2 C2 34.67 2 67.34 2 101 C1.34 101 0.68 101 0 101 C0 67.67 0 34.34 0 0 Z " fill="#4C515A" transform="translate(516,354)"/>
<path d="M0 0 C0.66 0 1.32 0 2 0 C2 0.66 2 1.32 2 2 C1.34 2.66 0.68 3.32 0 4 C0 4.33 0 4.66 0 5 C-18.48 5 -36.96 5 -56 5 C-56 5.66 -56 6.32 -56 7 C-57.32 7 -58.64 7 -60 7 C-60 7.66 -60 8.32 -60 9 C-60.66 9 -61.32 9 -62 9 C-62 9.66 -62 10.32 -62 11 C-62.66 11 -63.32 11 -64 11 C-64 11.66 -64 12.32 -64 13 C-64.66 13 -65.32 13 -66 13 C-66 13.66 -66 14.32 -66 15 C-66.66 15 -67.32 15 -68 15 C-67.60246179 13.53633658 -67.18118616 12.0791065 -66.75 10.625 C-66.51796875 9.81289063 -66.2859375 9.00078125 -66.046875 8.1640625 C-64.3238746 4.60233779 -60.57925688 3.72110082 -57 2.39111328 C-51.33690829 0.55629582 -45.90364044 0.63906008 -40 0.7421875 C-38.88310791 0.74880402 -37.76621582 0.75542053 -36.61547852 0.76223755 C-33.07669563 0.78549945 -29.5385571 0.82923241 -26 0.875 C-22.43295868 0.91003216 -18.86594975 0.94077115 -15.29882812 0.96633911 C-13.08522891 0.98336154 -10.87166712 1.00653998 -8.65820312 1.03634644 C-7.17030273 1.05098434 -7.17030273 1.05098434 -5.65234375 1.06591797 C-4.33737915 1.08282181 -4.33737915 1.08282181 -2.99584961 1.10006714 C-1.00010202 1.22370586 -1.00010202 1.22370586 0 0 Z " fill="#5EAC8E" transform="translate(322,333)"/>
<path d="M0 0 C0.33 0 0.66 0 1 0 C1.495 4.455 1.495 4.455 2 9 C1.34 9 0.68 9 0 9 C0 10.32 0 11.64 0 13 C-0.66 13 -1.32 13 -2 13 C-2 13.66 -2 14.32 -2 15 C-2.66 15 -3.32 15 -4 15 C-4 15.66 -4 16.32 -4 17 C-4.66 17 -5.32 17 -6 17 C-6 18.32 -6 19.64 -6 21 C-7.32 21 -8.64 21 -10 21 C-10 21.66 -10 22.32 -10 23 C-11.32 23 -12.64 23 -14 23 C-14 23.66 -14 24.32 -14 25 C-21.26 25 -28.52 25 -36 25 C-36 22.69 -36 20.38 -36 18 C-35.34 18 -34.68 18 -34 18 C-33.67 19.32 -33.34 20.64 -33 22 C-32.25234375 21.91621094 -31.5046875 21.83242188 -30.734375 21.74609375 C-29.74953125 21.64425781 -28.7646875 21.54242188 -27.75 21.4375 C-26.77546875 21.33308594 -25.8009375 21.22867187 -24.796875 21.12109375 C-22.2368648 21.01025532 -20.41851841 21.22261908 -18 22 C-18 21.34 -18 20.68 -18 20 C-16.71211992 19.46987262 -15.41953322 18.9511671 -14.125 18.4375 C-13.40570313 18.14746094 -12.68640625 17.85742188 -11.9453125 17.55859375 C-10 17 -10 17 -8 18 C-7.938125 17.46375 -7.87625 16.9275 -7.8125 16.375 C-6.84623693 13.55053872 -5.16528613 11.92944102 -3.2109375 9.7265625 C-1.10913976 6.72980572 -0.67552998 3.56188532 0 0 Z " fill="#59B088" transform="translate(250,449)"/>
<path d="M0 0 C0.99 0 1.98 0 3 0 C2.67 23.1 2.34 46.2 2 70 C1.34 70 0.68 70 0 70 C0 46.9 0 23.8 0 0 Z " fill="#C7CDCF" transform="translate(322,386)"/>
<path d="M0 0 C13.2 0 26.4 0 40 0 C40 0.33 40 0.66 40 1 C39.15405273 1.01458252 38.30810547 1.02916504 37.43652344 1.04418945 C34.23793341 1.10596948 31.03992226 1.18024584 27.84179688 1.26245117 C26.46885756 1.29530044 25.09579613 1.32345067 23.72265625 1.34643555 C14.73878021 1.50076383 6.60719708 2.38582517 -2 5 C-3.051875 5.309375 -4.10375 5.61875 -5.1875 5.9375 C-6.115625 6.288125 -7.04375 6.63875 -8 7 C-8.73089844 7.27585937 -9.46179688 7.55171875 -10.21484375 7.8359375 C-15.16563062 9.84192894 -17.81035703 11.58357128 -21 16 C-21.99 16 -22.98 16 -24 16 C-24 15.34 -24 14.68 -24 14 C-23.34 14 -22.68 14 -22 14 C-22 13.34 -22 12.68 -22 12 C-21.34 12 -20.68 12 -20 12 C-20 11.34 -20 10.68 -20 10 C-19.34 10 -18.68 10 -18 10 C-18 9.34 -18 8.68 -18 8 C-16.68 8 -15.36 8 -14 8 C-14 7.34 -14 6.68 -14 6 C-13.34 6 -12.68 6 -12 6 C-12 5.34 -12 4.68 -12 4 C-10.68 4 -9.36 4 -8 4 C-8 3.34 -8 2.68 -8 2 C-5.36 2 -2.72 2 0 2 C0 1.34 0 0.68 0 0 Z " fill="#5DB493" transform="translate(248,304)"/>
<path d="M0 0 C0.99 0.33 1.98 0.66 3 1 C3 2.32 3 3.64 3 5 C-10.53 5 -24.06 5 -38 5 C-38 4.34 -38 3.68 -38 3 C-33.73642897 0.92501434 -30.25778889 0.7792019 -25.546875 0.83984375 C-24.84604797 0.84504532 -24.14522095 0.85024689 -23.42315674 0.85560608 C-21.1985543 0.8733323 -18.97442437 0.90451882 -16.75 0.9375 C-14.51134152 0.96509924 -12.27274576 0.98977844 -10.03399658 1.00868225 C-8.01315624 1.02653724 -5.99240699 1.05393654 -3.97167969 1.08178711 C-1.11473538 1.34386384 -1.11473538 1.34386384 0 0 Z " fill="#6AB397" transform="translate(289,413)"/>
<path d="M0 0 C0.33 0 0.66 0 1 0 C0.99777939 0.56518845 0.99555878 1.13037689 0.99327087 1.71269226 C0.97112739 7.60134244 0.95605553 13.48998077 0.94506836 19.37866211 C0.94004325 21.5756071 0.93322212 23.77254876 0.92456055 25.96948242 C0.91241525 29.12940292 0.90675341 32.28927915 0.90234375 35.44921875 C0.89718246 36.42960617 0.89202118 37.40999359 0.88670349 38.42008972 C0.88659019 39.80095512 0.88659019 39.80095512 0.88647461 41.2097168 C0.884254 42.0157988 0.88203339 42.8218808 0.87974548 43.65238953 C1.00926466 46.18086474 1.44726175 48.53226148 2 51 C1.01 51.495 1.01 51.495 0 52 C0 50.35 0 48.7 0 47 C-0.66 47 -1.32 47 -2 47 C-2 36.44 -2 25.88 -2 15 C-1.34 15 -0.68 15 0 15 C0 10.05 0 5.1 0 0 Z " fill="#59A085" transform="translate(216,420)"/>
<path d="M0 0 C7.26 0 14.52 0 22 0 C22 0.66 22 1.32 22 2 C15.4 2 8.8 2 2 2 C1.67 15.2 1.34 28.4 1 42 C0.67 42 0.34 42 0 42 C0 28.14 0 14.28 0 0 Z " fill="#7B7F86" transform="translate(516,354)"/>
<path d="M0 0 C0.66 0 1.32 0 2 0 C2 9.9 2 19.8 2 30 C2.66 30 3.32 30 4 30 C4 29.34 4 28.68 4 28 C5.32 28 6.64 28 8 28 C8 27.34 8 26.68 8 26 C9.65 26 11.3 26 13 26 C11.74189735 28.51620531 10.69646845 28.80835636 8.1875 30 C7.50042969 30.33 6.81335938 30.66 6.10546875 31 C5.41066406 31.33 4.71585938 31.66 4 32 C2.68 32.66 1.36 33.32 0 34 C0 22.78 0 11.56 0 0 Z " fill="#B7B9BD" transform="translate(538,358)"/>
<path d="M0 0 C2.60423592 -0.02697137 5.20819244 -0.04682489 7.8125 -0.0625 C8.55048828 -0.07087891 9.28847656 -0.07925781 10.04882812 -0.08789062 C13.29922068 -0.10259828 15.89404895 -0.03531702 19 1 C18.67 1.66 18.34 2.32 18 3 C17.34 2.67 16.68 2.34 16 2 C16 2.66 16 3.32 16 4 C16.66 4 17.32 4 18 4 C18 4.66 18 5.32 18 6 C18.66 6.33 19.32 6.66 20 7 C20 7.99 20 8.98 20 10 C18.02 10 16.04 10 14 10 C14 8.02 14 6.04 14 4 C12.68 4 11.36 4 10 4 C10 3.34 10 2.68 10 2 C8.02 2 6.04 2 4 2 C4 2.66 4 3.32 4 4 C2.02 4 0.04 4 -2 4 C-2 3.34 -2 2.68 -2 2 C-1.34 2 -0.68 2 0 2 C0 1.34 0 0.68 0 0 Z " fill="#181521" transform="translate(916,402)"/>
<path d="M0 0 C0 6.6 0 13.2 0 20 C-0.66 20 -1.32 20 -2 20 C-2 14.39 -2 8.78 -2 3 C-9.26 3 -16.52 3 -24 3 C-20.29137625 -0.70862375 -18.81090724 -0.48648153 -13.6875 -0.75 C-12.39199219 -0.82734375 -11.09648437 -0.9046875 -9.76171875 -0.984375 C-6 -1 -6 -1 0 0 Z " fill="#81BCA1" transform="translate(216,415)"/>
<path d="M0 0 C0.66 0 1.32 0 2 0 C2 0.66 2 1.32 2 2 C2.66 2 3.32 2 4 2 C4 2.66 4 3.32 4 4 C4.66 4 5.32 4 6 4 C6 5.98 6 7.96 6 10 C6.66 10 7.32 10 8 10 C8 10.66 8 11.32 8 12 C7.34 12 6.68 12 6 12 C6 12.66 6 13.32 6 14 C-1.92 14 -9.84 14 -18 14 C-18 13.34 -18 12.68 -18 12 C-17.40461426 11.97494385 -16.80922852 11.9498877 -16.19580078 11.92407227 C-13.50530864 11.80822506 -10.8151766 11.68544804 -8.125 11.5625 C-7.18785156 11.52318359 -6.25070312 11.48386719 -5.28515625 11.44335938 C-4.38925781 11.40146484 -3.49335937 11.35957031 -2.5703125 11.31640625 C-1.74289551 11.27974854 -0.91547852 11.24309082 -0.06298828 11.20532227 C2.06179429 11.11761673 2.06179429 11.11761673 4 10 C2.8905928 6.51329166 1.73662334 3.22515763 0 0 Z " fill="#65686D" transform="translate(882,444)"/>
<path d="M0 0 C0.33 0 0.66 0 1 0 C1.33 2.97 1.66 5.94 2 9 C1.34 9 0.68 9 0 9 C0 10.32 0 11.64 0 13 C-0.66 13 -1.32 13 -2 13 C-2 13.66 -2 14.32 -2 15 C-2.66 15 -3.32 15 -4 15 C-4 15.66 -4 16.32 -4 17 C-4.66 17 -5.32 17 -6 17 C-6 18.32 -6 19.64 -6 21 C-7.32 21 -8.64 21 -10 21 C-10 21.66 -10 22.32 -10 23 C-10.99 23 -11.98 23 -13 23 C-13 22.01 -13 21.02 -13 20 C-12.38125 19.938125 -11.7625 19.87625 -11.125 19.8125 C-10.42375 19.544375 -9.7225 19.27625 -9 19 C-8.29289322 17.35008418 -7.63437344 15.6792238 -7 14 C-5.7625 12.6078125 -5.7625 12.6078125 -4.5 11.1875 C-1.46561844 7.75927541 -0.84343024 4.44717761 0 0 Z " fill="#71A790" transform="translate(250,449)"/>
<path d="M0 0 C0.66 0 1.32 0 2 0 C2 0.99 2 1.98 2 3 C0.35 3 -1.3 3 -3 3 C-3.268125 4.155 -3.53625 5.31 -3.8125 6.5 C-4.88385122 10.81623514 -6.37472237 14.86292967 -8 19 C-8.33 19 -8.66 19 -9 19 C-9.33 20.65 -9.66 22.3 -10 24 C-10.66 24 -11.32 24 -12 24 C-12 21.36 -12 18.72 -12 16 C-11.34 16 -10.68 16 -10 16 C-10 14.02 -10 12.04 -10 10 C-9.34 10 -8.68 10 -8 10 C-8 9.34 -8 8.68 -8 8 C-7.34 8 -6.68 8 -6 8 C-6 6.68 -6 5.36 -6 4 C-5.34 4 -4.68 4 -4 4 C-4 3.34 -4 2.68 -4 2 C-2.68 2 -1.36 2 0 2 C0 1.34 0 0.68 0 0 Z " fill="#888A8E" transform="translate(460,386)"/>
<path d="M0 0 C0.33 0 0.66 0 1 0 C1 12.54 1 25.08 1 38 C-6.26 38 -13.52 38 -21 38 C-21 37.34 -21 36.68 -21 36 C-14.73 36.33 -8.46 36.66 -2 37 C-1.01181713 33.04726853 -0.77981021 29.42748388 -0.68359375 25.390625 C-0.66281265 24.66381531 -0.64203156 23.93700562 -0.62062073 23.18817139 C-0.55544488 20.87554009 -0.4963896 18.56279907 -0.4375 16.25 C-0.39428434 14.67837425 -0.35066908 13.10675944 -0.30664062 11.53515625 C-0.19979644 7.69021547 -0.09843976 3.84516476 0 0 Z " fill="#20232B" transform="translate(583,418)"/>
<path d="M0 0 C3.96 0 7.92 0 12 0 C12 0.66 12 1.32 12 2 C8.7 2 5.4 2 2 2 C2 2.66 2 3.32 2 4 C0.02 4 -1.96 4 -4 4 C-4 4.66 -4 5.32 -4 6 C-4.66 6 -5.32 6 -6 6 C-6 6.66 -6 7.32 -6 8 C-8.64 8 -11.28 8 -14 8 C-13.67 6.68 -13.34 5.36 -13 4 C-10.525 4.99 -10.525 4.99 -8 6 C-8 4.68 -8 3.36 -8 2 C-5.36 2 -2.72 2 0 2 C0 1.34 0 0.68 0 0 Z " fill="#494C53" transform="translate(704,400)"/>
<path d="M0 0 C1.32 0 2.64 0 4 0 C4 0.66 4 1.32 4 2 C5.32 2 6.64 2 8 2 C8.33 2.99 8.66 3.98 9 5 C6.69 4.34 4.38 3.68 2 3 C1.7525 3.53625 1.505 4.0725 1.25 4.625 C-2.94117647 12.58823529 -2.94117647 12.58823529 -6.25 13.875 C-6.8275 13.91625 -7.405 13.9575 -8 14 C-8 12.68 -8 11.36 -8 10 C-7.34 10 -6.68 10 -6 10 C-6 8.68 -6 7.36 -6 6 C-5.34 6 -4.68 6 -4 6 C-4 5.34 -4 4.68 -4 4 C-3.34 4 -2.68 4 -2 4 C-2 3.34 -2 2.68 -2 2 C-1.34 2 -0.68 2 0 2 C0 1.34 0 0.68 0 0 Z " fill="#7F7E84" transform="translate(760,432)"/>
<path d="M0 0 C3.63 0.33 7.26 0.66 11 1 C11 1.66 11 2.32 11 3 C11.8971875 3.433125 11.8971875 3.433125 12.8125 3.875 C15 5 15 5 18 7 C17 8 17 8 14.4375 8.0625 C13.633125 8.041875 12.82875 8.02125 12 8 C12 7.34 12 6.68 12 6 C10.02 6 8.04 6 6 6 C6 5.34 6 4.68 6 4 C4.68 4 3.36 4 2 4 C2 3.34 2 2.68 2 2 C1.34 2 0.68 2 0 2 C0 1.34 0 0.68 0 0 Z " fill="#7B7E7E" transform="translate(460,424)"/>
<path d="M0 0 C0.66 0 1.32 0 2 0 C1.67 1.65 1.34 3.3 1 5 C0.34 5 -0.32 5 -1 5 C-1 5.66 -1 6.32 -1 7 C-2.32 7 -3.64 7 -5 7 C-5 7.66 -5 8.32 -5 9 C-5.66 9 -6.32 9 -7 9 C-7 9.66 -7 10.32 -7 11 C-10.63 10.67 -14.26 10.34 -18 10 C-18 9.67 -18 9.34 -18 9 C-16.865625 8.87625 -15.73125 8.7525 -14.5625 8.625 C-13.386875 8.41875 -12.21125 8.2125 -11 8 C-10.67 7.34 -10.34 6.68 -10 6 C-9.071875 5.896875 -8.14375 5.79375 -7.1875 5.6875 C-3.16787704 4.8205225 -2.33644803 3.25433833 0 0 Z " fill="#8BC2AC" transform="translate(335,327)"/>
<path d="M0 0 C2.64 0 5.28 0 8 0 C8 0.66 8 1.32 8 2 C8.66 2 9.32 2 10 2 C10 2.66 10 3.32 10 4 C7.36 3.67 4.72 3.34 2 3 C2 3.66 2 4.32 2 5 C0.03533587 6.06775224 -1.96855359 7.06553465 -4 8 C-4.66 7.67 -5.32 7.34 -6 7 C-6 6.01 -6 5.02 -6 4 C-4.68 4 -3.36 4 -2 4 C-2 3.34 -2 2.68 -2 2 C-1.34 2 -0.68 2 0 2 C0 1.34 0 0.68 0 0 Z " fill="#828287" transform="translate(422,434)"/>
<path d="M0 0 C3 1 3 1 6 3 C4.7934375 3.37125 4.7934375 3.37125 3.5625 3.75 C-5.97518749 7.02398593 -5.97518749 7.02398593 -13 14 C-13.99 14 -14.98 14 -16 14 C-16 13.34 -16 12.68 -16 12 C-15.34 12 -14.68 12 -14 12 C-14 11.34 -14 10.68 -14 10 C-13.34 10 -12.68 10 -12 10 C-12 9.34 -12 8.68 -12 8 C-11.34 8 -10.68 8 -10 8 C-10 7.34 -10 6.68 -10 6 C-8.68 6 -7.36 6 -6 6 C-6 5.34 -6 4.68 -6 4 C-5.34 4 -4.68 4 -4 4 C-4 3.34 -4 2.68 -4 2 C-2.68 2 -1.36 2 0 2 C0 1.34 0 0.68 0 0 Z " fill="#80B79E" transform="translate(240,306)"/>
<path d="M0 0 C0.66 0 1.32 0 2 0 C2 5.28 2 10.56 2 16 C4.97 16 7.94 16 11 16 C10.67 16.66 10.34 17.32 10 18 C6.7 18 3.4 18 0 18 C0 12.06 0 6.12 0 0 Z " fill="#898E95" transform="translate(960,386)"/>
<path d="M0 0 C0.66 0 1.32 0 2 0 C2.34113943 3.66724889 2.4270948 5.42563114 0.1875 8.4375 C-0.534375 9.283125 -1.25625 10.12875 -2 11 C-3.14695409 13.29390817 -4.06207356 15.60828757 -5 18 C-5.33 18 -5.66 18 -6 18 C-6 16.02 -6 14.04 -6 12 C-5.34 12 -4.68 12 -4 12 C-4 10.02 -4 8.04 -4 6 C-3.34 6 -2.68 6 -2 6 C-2 4.68 -2 3.36 -2 2 C-1.34 2 -0.68 2 0 2 C0 1.34 0 0.68 0 0 Z " fill="#94C9AE" transform="translate(222,320)"/>
<path d="M0 0 C0.99 0.33 1.98 0.66 3 1 C2.67 2.32 2.34 3.64 2 5 C1.34 5 0.68 5 0 5 C-0.33 5.66 -0.66 6.32 -1 7 C-1.33 6.67 -1.66 6.34 -2 6 C-2.391875 7.093125 -2.78375 8.18625 -3.1875 9.3125 C-4.72174186 12.92892724 -6.380194 14.32932031 -10 16 C-10.66 16.33 -11.32 16.66 -12 17 C-12 16.01 -12 15.02 -12 14 C-11.34 14 -10.68 14 -10 14 C-10 13.34 -10 12.68 -10 12 C-9.34 12 -8.68 12 -8 12 C-8 11.34 -8 10.68 -8 10 C-7.34 10 -6.68 10 -6 10 C-6 9.34 -6 8.68 -6 8 C-5.34 8 -4.68 8 -4 8 C-4 6.68 -4 5.36 -4 4 C-3.34 4 -2.68 4 -2 4 C-2 3.34 -2 2.68 -2 2 C-1.34 2 -0.68 2 0 2 C0 1.34 0 0.68 0 0 Z " fill="#848285" transform="translate(858,390)"/>
<path d="M0 0 C11.88 0 23.76 0 36 0 C35.67 2.64 35.34 5.28 35 8 C34.67 8 34.34 8 34 8 C34 6.35 34 4.7 34 3 C33.34 3 32.68 3 32 3 C32 2.34 32 1.68 32 1 C21.44 1 10.88 1 0 1 C0 0.67 0 0.34 0 0 Z " fill="#78AE9C" transform="translate(264,386)"/>
<path d="M0 0 C0 3 0 3 -1.57421875 4.6484375 C-2.27160156 5.21820313 -2.96898437 5.78796875 -3.6875 6.375 C-6.96864369 9.11997101 -10.02336286 11.93034295 -13 15 C-13 13.02 -13 11.04 -13 9 C-12.01 9 -11.02 9 -10 9 C-9.731875 8.401875 -9.46375 7.80375 -9.1875 7.1875 C-6.91552105 3.00227563 -4.46224359 1.56781531 0 0 Z " fill="#5AB290" transform="translate(237,311)"/>
<path d="M0 0 C0 2.31 0 4.62 0 7 C-0.33 6.01 -0.66 5.02 -1 4 C-2.1446875 5.175625 -2.1446875 5.175625 -3.3125 6.375 C-6 9 -6 9 -9 11 C-11.6875 10.625 -11.6875 10.625 -14 10 C-13.42507813 9.58105469 -12.85015625 9.16210938 -12.2578125 8.73046875 C-9.28948822 6.45543821 -6.56745623 3.94354973 -3.8046875 1.42578125 C-2 0 -2 0 0 0 Z " fill="#5AB696" transform="translate(338,323)"/>
<path d="M0 0 C0.99 0 1.98 0 3 0 C3.33 0.99 3.66 1.98 4 3 C3.34 3 2.68 3 2 3 C2 3.66 2 4.32 2 5 C0.68 4.67 -0.64 4.34 -2 4 C-2 4.66 -2 5.32 -2 6 C-5.96 6 -9.92 6 -14 6 C-14.33 5.34 -14.66 4.68 -15 4 C-11.37 4 -7.74 4 -4 4 C-4 3.34 -4 2.68 -4 2 C-2.68 2 -1.36 2 0 2 C0 1.34 0 0.68 0 0 Z " fill="#87858C" transform="translate(936,436)"/>
<path d="M0 0 C6.41688675 -0.10349817 12.62694402 0.25492456 19 1 C19 1.66 19 2.32 19 3 C14.05 3.33 9.1 3.66 4 4 C4 3.34 4 2.68 4 2 C2.68 2 1.36 2 0 2 C0 1.34 0 0.68 0 0 Z " fill="#3B4047" transform="translate(688,454)"/>
<path d="M0 0 C1.67404804 2.03797153 2.89007488 3.53281826 3.5 6.125 C3.88573402 8.40123363 3.88573402 8.40123363 7 10 C7 10.99 7 11.98 7 13 C7.33 13.99 7.66 14.98 8 16 C7.34 16 6.68 16 6 16 C6 15.34 6 14.68 6 14 C5.34 14 4.68 14 4 14 C4 13.34 4 12.68 4 12 C3.34 12 2.68 12 2 12 C2 10.68 2 9.36 2 8 C1.34 8 0.68 8 0 8 C0 5.36 0 2.72 0 0 Z " fill="#797A7E" transform="translate(972,440)"/>
<path d="M0 0 C0.99 0 1.98 0 3 0 C2.67 9.9 2.34 19.8 2 30 C1.67 30 1.34 30 1 30 C0.67 20.1 0.34 10.2 0 0 Z " fill="#C4C5C6" transform="translate(322,386)"/>
<path d="M0 0 C0.99 0.33 1.98 0.66 3 1 C3 1.66 3 2.32 3 3 C3.66 3 4.32 3 5 3 C5 4.32 5 5.64 5 7 C5.66 7 6.32 7 7 7 C7 7.66 7 8.32 7 9 C7.66 9 8.32 9 9 9 C8.67 10.32 8.34 11.64 8 13 C7.01 12.67 6.02 12.34 5 12 C5 11.34 5 10.68 5 10 C4.34 10 3.68 10 3 10 C3.33 8.35 3.66 6.7 4 5 C3.34 5 2.68 5 2 5 C1.34 3.35 0.68 1.7 0 0 Z " fill="#9997A4" transform="translate(867,423)"/>
<path d="M0 0 C1.32 0 2.64 0 4 0 C4 0.66 4 1.32 4 2 C4.66 2 5.32 2 6 2 C6 2.66 6 3.32 6 4 C6.66 4 7.32 4 8 4 C8 4.66 8 5.32 8 6 C8.66 6 9.32 6 10 6 C10 7.32 10 8.64 10 10 C10.66 10 11.32 10 12 10 C11.67 11.32 11.34 12.64 11 14 C9.00313875 12.27543801 8.05273936 11.1541612 7.1875 8.625 C5.53325474 4.96824732 3.14535293 3.46158056 0 1 C0 0.67 0 0.34 0 0 Z " fill="#9F9BA0" transform="translate(732,388)"/>
<path d="M0 0 C0.99 0 1.98 0 3 0 C3 0.66 3 1.32 3 2 C6.63 2 10.26 2 14 2 C13.67 2.66 13.34 3.32 13 4 C10.56640625 4.484375 10.56640625 4.484375 7.5625 4.75 C6.07943359 4.89695312 6.07943359 4.89695312 4.56640625 5.046875 C2 5 2 5 0 3 C0 2.01 0 1.02 0 0 Z " fill="#9A99A1" transform="translate(469,438)"/>
<path d="M0 0 C1.50433594 0.01353516 1.50433594 0.01353516 3.0390625 0.02734375 C3.80992187 0.03894531 4.58078125 0.05054688 5.375 0.0625 C5.375 0.7225 5.375 1.3825 5.375 2.0625 C2.735 2.0625 0.095 2.0625 -2.625 2.0625 C-2.625 2.7225 -2.625 3.3825 -2.625 4.0625 C-4.275 4.0625 -5.925 4.0625 -7.625 4.0625 C-7.625 3.0725 -7.625 2.0825 -7.625 1.0625 C-4.98041621 -0.25979189 -2.94738699 -0.03427194 0 0 Z " fill="#8A8B90" transform="translate(360.625,403.9375)"/>
<path d="M0 0 C0.33 0 0.66 0 1 0 C1 6.6 1 13.2 1 20 C0.34 20 -0.32 20 -1 20 C-1.33 20.99 -1.66 21.98 -2 23 C-2.125 16.25 -2.125 16.25 -1 14 C-0.76970044 11.62876754 -0.58880058 9.25258057 -0.4375 6.875 C-0.35371094 5.59367187 -0.26992188 4.31234375 -0.18359375 2.9921875 C-0.09271484 1.51105469 -0.09271484 1.51105469 0 0 Z " fill="#5D9B7B" transform="translate(299,388)"/>
<path d="M0 0 C6.625 0.75 6.625 0.75 10 3 C10 3.99 10 4.98 10 6 C8.68 6 7.36 6 6 6 C6 5.34 6 4.68 6 4 C4.68 4 3.36 4 2 4 C2 3.34 2 2.68 2 2 C1.34 2 0.68 2 0 2 C0 1.34 0 0.68 0 0 Z " fill="#5C5D63" transform="translate(766,424)"/>
<path d="M0 0 C0.66 0 1.32 0 2 0 C2.20367187 0.64453125 2.40734375 1.2890625 2.6171875 1.953125 C3.8667935 4.31153872 3.8667935 4.31153872 6.8203125 4.609375 C7.91085938 4.65578125 9.00140625 4.7021875 10.125 4.75 C11.76855469 4.83507812 11.76855469 4.83507812 13.4453125 4.921875 C14.28835937 4.94765625 15.13140625 4.9734375 16 5 C16 5.33 16 5.66 16 6 C8.08 6.495 8.08 6.495 0 7 C0 4.69 0 2.38 0 0 Z " fill="#7AC5A5" transform="translate(214,467)"/>
<path d="M0 0 C0.66 0 1.32 0 2 0 C1.97679687 1.16917969 1.95359375 2.33835937 1.9296875 3.54296875 C1.91092179 5.09113942 1.89272245 6.63931703 1.875 8.1875 C1.85824219 8.95642578 1.84148438 9.72535156 1.82421875 10.51757812 C1.78733149 14.8149434 2.0041496 18.07901831 4 22 C3.34 22 2.68 22 2 22 C2 21.34 2 20.68 2 20 C1.34 20 0.68 20 0 20 C0 13.4 0 6.8 0 0 Z " fill="#D6D9D9" transform="translate(754,396)"/>
<path d="M0 0 C0 0.66 0 1.32 0 2 C-0.99 2 -1.98 2 -3 2 C-3 2.66 -3 3.32 -3 4 C-3.66 4 -4.32 4 -5 4 C-5 4.66 -5 5.32 -5 6 C-5.66 6 -6.32 6 -7 6 C-7 6.66 -7 7.32 -7 8 C-7.66 8 -8.32 8 -9 8 C-9 8.66 -9 9.32 -9 10 C-9.66 10 -10.32 10 -11 10 C-10.07743626 5.94071956 -9.35416746 4.28634816 -6.0625 1.625 C-3 0 -3 0 0 0 Z " fill="#8EC4AA" transform="translate(265,338)"/>
<path d="M0 0 C0.66 0 1.32 0 2 0 C2 0.66 2 1.32 2 2 C2.66 2 3.32 2 4 2 C4 2.66 4 3.32 4 4 C4.66 4 5.32 4 6 4 C6 5.98 6 7.96 6 10 C6.66 10 7.32 10 8 10 C8 10.66 8 11.32 8 12 C6.02 12 4.04 12 2 12 C2.391875 11.443125 2.78375 10.88625 3.1875 10.3125 C3.455625 9.549375 3.72375 8.78625 4 8 C2.73538192 5.39224959 2.73538192 5.39224959 1 3 C0.67 2.01 0.34 1.02 0 0 Z " fill="#73747B" transform="translate(882,444)"/>
<path d="M0 0 C4.95 0 9.9 0 15 0 C12.17654769 2.82345231 9.92666609 2.67277783 6 3 C2.5625 2.5625 2.5625 2.5625 0 2 C0 1.34 0 0.68 0 0 Z " fill="#646A73" transform="translate(698,384)"/>
<path d="M0 0 C1.98 0 3.96 0 6 0 C6 0.66 6 1.32 6 2 C7.32 2 8.64 2 10 2 C10 2.66 10 3.32 10 4 C10.66 4 11.32 4 12 4 C12 4.66 12 5.32 12 6 C9.15449988 5.33989524 6.47674001 4.48275034 3.75 3.4375 C3.04359375 3.16808594 2.3371875 2.89867187 1.609375 2.62109375 C1.07828125 2.41613281 0.5471875 2.21117187 0 2 C0 1.34 0 0.68 0 0 Z " fill="#C3C2C6" transform="translate(454,432)"/>
<path d="M0 0 C0.66 0 1.32 0 2 0 C2 1.98 2 3.96 2 6 C1.34 6 0.68 6 0 6 C0 6.66 0 7.32 0 8 C-0.66 8 -1.32 8 -2 8 C-2 8.66 -2 9.32 -2 10 C-2.66 10 -3.32 10 -4 10 C-4 10.66 -4 11.32 -4 12 C-4.66 12 -5.32 12 -6 12 C-4.97379138 9.7897045 -3.94283206 7.92682503 -2.4375 6 C-0.96806014 3.95556194 -0.43835352 2.45477972 0 0 Z " fill="#8895A0" transform="translate(886,386)"/>
<path d="M0 0 C1.22357035 3.67071105 0.62076669 4.53394752 -0.875 8 C-2.00802398 10.6622102 -3.08438098 13.25314293 -4 16 C-5.13529002 12.65508511 -4.86633118 10.73934469 -3.6875 7.4375 C-3.42324219 6.67308594 -3.15898437 5.90867187 -2.88671875 5.12109375 C-2 3 -2 3 0 0 Z " fill="#59B794" transform="translate(222,327)"/>
<path d="M0 0 C0.99 0.33 1.98 0.66 3 1 C3 2.32 3 3.64 3 5 C4.32 5 5.64 5 7 5 C7 6.32 7 7.64 7 9 C5.68 8.67 4.36 8.34 3 8 C3 7.34 3 6.68 3 6 C2.34 6 1.68 6 1 6 C0.67 4.02 0.34 2.04 0 0 Z " fill="#7A7783" transform="translate(395,433)"/>
<path d="M0 0 C1.32 0 2.64 0 4 0 C4 0.66 4 1.32 4 2 C5.98 2 7.96 2 10 2 C10 2.66 10 3.32 10 4 C6.6875 4.6875 6.6875 4.6875 3 5 C1.0625 3.6875 1.0625 3.6875 0 2 C0 1.34 0 0.68 0 0 Z " fill="#898890" transform="translate(778,408)"/>
<path d="M0 0 C1.32 0 2.64 0 4 0 C4 0.99 4 1.98 4 3 C3.34 3 2.68 3 2 3 C1.34 4.65 0.68 6.3 0 8 C-0.66 7.34 -1.32 6.68 -2 6 C-2 4.68 -2 3.36 -2 2 C-1.34 2 -0.68 2 0 2 C0 1.34 0 0.68 0 0 Z " fill="#6F6C73" transform="translate(380,392)"/>
<path d="M0 0 C0.66 0 1.32 0 2 0 C2 1.32 2 2.64 2 4 C1.34 4 0.68 4 0 4 C0 4.66 0 5.32 0 6 C-1.98 6 -3.96 6 -6 6 C-6 5.01 -6 4.02 -6 3 C-4.35 3 -2.7 3 -1 3 C-0.67 2.01 -0.34 1.02 0 0 Z " fill="#020206" transform="translate(706,426)"/>
<path d="M0 0 C1.98 0 3.96 0 6 0 C6 0.66 6 1.32 6 2 C7.32 2 8.64 2 10 2 C10 2.66 10 3.32 10 4 C7.03 3.505 7.03 3.505 4 3 C3.67 3.66 3.34 4.32 3 5 C2.67 4.01 2.34 3.02 2 2 C1.34 2 0.68 2 0 2 C0 1.34 0 0.68 0 0 Z " fill="#9C98A5" transform="translate(722,384)"/>
<path d="M0 0 C0 0.66 0 1.32 0 2 C0.66 2 1.32 2 2 2 C2 2.66 2 3.32 2 4 C0.68 4 -0.64 4 -2 4 C-2 3.34 -2 2.68 -2 2 C-3.98 2 -5.96 2 -8 2 C-8 1.34 -8 0.68 -8 0 C-4.94736336 -0.98120464 -3.05263664 -0.98120464 0 0 Z " fill="#7F8084" transform="translate(912,454)"/>
<path d="M0 0 C0.9075 0.185625 1.815 0.37125 2.75 0.5625 C5.68314324 0.95734621 7.2644657 0.94691572 10 0 C10 0.66 10 1.32 10 2 C9.34 2 8.68 2 8 2 C8 2.66 8 3.32 8 4 C5.36 4 2.72 4 0 4 C0 2.68 0 1.36 0 0 Z " fill="#C7CFCC" transform="translate(690,404)"/>
<path d="M0 0 C0.99 0.33 1.98 0.66 3 1 C2.67 2.32 2.34 3.64 2 5 C1.34 5 0.68 5 0 5 C-0.33 5.66 -0.66 6.32 -1 7 C-1.33 6.67 -1.66 6.34 -2 6 C-2.66 6.66 -3.32 7.32 -4 8 C-4 6.68 -4 5.36 -4 4 C-3.34 4 -2.68 4 -2 4 C-2 3.34 -2 2.68 -2 2 C-1.34 2 -0.68 2 0 2 C0 1.34 0 0.68 0 0 Z " fill="#797176" transform="translate(858,390)"/>
<path d="M0 0 C0.66 0 1.32 0 2 0 C2 1.65 2 3.3 2 5 C1.34 5 0.68 5 0 5 C-0.33 5.66 -0.66 6.32 -1 7 C-1.33 6.67 -1.66 6.34 -2 6 C-2.66 6.66 -3.32 7.32 -4 8 C-4 6.68 -4 5.36 -4 4 C-3.34 4 -2.68 4 -2 4 C-2 3.34 -2 2.68 -2 2 C-1.34 2 -0.68 2 0 2 C0 1.34 0 0.68 0 0 Z " fill="#67666F" transform="translate(452,436)"/>
<path d="M0 0 C0.66 0 1.32 0 2 0 C1.91253716 1.43861294 1.80434652 2.87597508 1.6875 4.3125 C1.62949219 5.11300781 1.57148438 5.91351563 1.51171875 6.73828125 C0.91793306 9.36272334 0.04219706 10.30820672 -2 12 C-2 10.02 -2 8.04 -2 6 C-1.34 6 -0.68 6 0 6 C0 4.02 0 2.04 0 0 Z " fill="#A2C7B6" transform="translate(218,326)"/>
<path d="M0 0 C2.3431213 0.25561323 4.67843403 0.59270772 7 1 C7.33 1.66 7.66 2.32 8 3 C3.545 3.495 3.545 3.495 -1 4 C-0.67 2.68 -0.34 1.36 0 0 Z " fill="#40444B" transform="translate(463,454)"/>
<path d="M0 0 C0 0.99 0 1.98 0 3 C-1.32 3 -2.64 3 -4 3 C-4 3.66 -4 4.32 -4 5 C-5.65 4.67 -7.3 4.34 -9 4 C-9 3.34 -9 2.68 -9 2 C-2.25 0 -2.25 0 0 0 Z " fill="#77807E" transform="translate(950,451)"/>
<path d="M0 0 C0.99 0 1.98 0 3 0 C3 1.32 3 2.64 3 4 C0.03 4 -2.94 4 -6 4 C-5.67 3.34 -5.34 2.68 -5 2 C-3.35 2 -1.7 2 0 2 C0 1.34 0 0.68 0 0 Z " fill="#66AD8F" transform="translate(248,304)"/>
<path d="M0 0 C0.33 0 0.66 0 1 0 C1.33 2.97 1.66 5.94 2 9 C0.68 9.33 -0.64 9.66 -2 10 C-1.34 6.7 -0.68 3.4 0 0 Z " fill="#88BBA8" transform="translate(250,449)"/>
<path d="M0 0 C1.32 0 2.64 0 4 0 C4 3.3 4 6.6 4 10 C1 8 1 8 0.48828125 6.0546875 C0.32552083 4.03645833 0.16276042 2.01822917 0 0 Z " fill="#26252E" transform="translate(666,376)"/>
<path d="M0 0 C0.66 0 1.32 0 2 0 C1.75 2.375 1.75 2.375 1 5 C-1.0625 6.3125 -1.0625 6.3125 -3 7 C-2.25 2.25 -2.25 2.25 0 0 Z " fill="#252934" transform="translate(764,389)"/>
<path d="M0 0 C1.32 0.33 2.64 0.66 4 1 C3.67 1.66 3.34 2.32 3 3 C1.68 3 0.36 3 -1 3 C-1.33 3.99 -1.66 4.98 -2 6 C-3.32 6 -4.64 6 -6 6 C-6 5.34 -6 4.68 -6 4 C-4.68 4 -3.36 4 -2 4 C-2 3.34 -2 2.68 -2 2 C-1.34 2 -0.68 2 0 2 C0 1.34 0 0.68 0 0 Z " fill="#747580" transform="translate(692,386)"/>
<path d="M0 0 C1.98 0 3.96 0 6 0 C6 0.66 6 1.32 6 2 C7.32 2 8.64 2 10 2 C10 2.66 10 3.32 10 4 C6.7 3.34 3.4 2.68 0 2 C0 1.34 0 0.68 0 0 Z " fill="#DEDEE1" transform="translate(486,384)"/>
<path d="M0 0 C0.66 0 1.32 0 2 0 C2 1.32 2 2.64 2 4 C0.68 4 -0.64 4 -2 4 C-2 4.66 -2 5.32 -2 6 C-2.99 6 -3.98 6 -5 6 C-5 5.01 -5 4.02 -5 3 C-4.360625 2.87625 -3.72125 2.7525 -3.0625 2.625 C-2.0415625 2.315625 -2.0415625 2.315625 -1 2 C-0.67 1.34 -0.34 0.68 0 0 Z " fill="#9DC0B2" transform="translate(242,466)"/>
<path d="M0 0 C1.32 0.33 2.64 0.66 4 1 C4 1.99 4 2.98 4 4 C2.02 4 0.04 4 -2 4 C-1.34 2.68 -0.68 1.36 0 0 Z " fill="#636369" transform="translate(420,454)"/>
<path d="M0 0 C1.39460991 2.78921982 0.58060045 4.12077103 -0.3125 7.0625 C-0.57675781 7.96097656 -0.84101563 8.85945313 -1.11328125 9.78515625 C-2 12 -2 12 -4 13 C-3.27991594 8.39146203 -1.68704061 4.32762591 0 0 Z " fill="#55B594" transform="translate(250,447)"/>
<path d="M0 0 C0.99 0 1.98 0 3 0 C2.67 3.3 2.34 6.6 2 10 C0 8 0 8 -0.1953125 6.0546875 C-0.13020833 4.03645833 -0.06510417 2.01822917 0 0 Z " fill="#B3B6B9" transform="translate(322,386)"/>
<path d="M0 0 C1.32 0.33 2.64 0.66 4 1 C3.01 2.32 2.02 3.64 1 5 C-0.32 4.67 -1.64 4.34 -3 4 C-2.67 3.34 -2.34 2.68 -2 2 C-1.34 2 -0.68 2 0 2 C0 1.34 0 0.68 0 0 Z " fill="#6A6D71" transform="translate(350,386)"/>
<path d="M0 0 C0.66 0 1.32 0 2 0 C2 2.31 2 4.62 2 7 C1.67 6.01 1.34 5.02 1 4 C-0.65 4.33 -2.3 4.66 -4 5 C-2.71937515 3.2925002 -1.38232443 1.62626404 0 0 Z " fill="#62A990" transform="translate(336,323)"/>
<path d="M0 0 C2.64 0 5.28 0 8 0 C6.8125 1.5 6.8125 1.5 5 3 C2.3125 3.1875 2.3125 3.1875 0 3 C0 2.01 0 1.02 0 0 Z " fill="#68B995" transform="translate(251,304)"/>
<path d="M0 0 C2.97 0 5.94 0 9 0 C8.67 0.99 8.34 1.98 8 3 C5.36 2.67 2.72 2.34 0 2 C0 1.34 0 0.68 0 0 Z " fill="#6C6F6E" transform="translate(688,454)"/>
<path d="M0 0 C3.3 0 6.6 0 10 0 C10 0.66 10 1.32 10 2 C6.7 2.33 3.4 2.66 0 3 C0 2.01 0 1.02 0 0 Z " fill="#747578" transform="translate(696,402)"/>
<path d="M0 0 C0.99 0 1.98 0 3 0 C3 1.32 3 2.64 3 4 C1.68 3.67 0.36 3.34 -1 3 C-1 3.66 -1 4.32 -1 5 C-1.66 5 -2.32 5 -3 5 C-1.125 1.125 -1.125 1.125 0 0 Z " fill="#9F9EA6" transform="translate(723,451)"/>
<path d="M0 0 C1.65 0 3.3 0 5 0 C4.67 0.99 4.34 1.98 4 3 C2.02 3.33 0.04 3.66 -2 4 C-2 3.34 -2 2.68 -2 2 C-1.34 2 -0.68 2 0 2 C0 1.34 0 0.68 0 0 Z " fill="#636680" transform="translate(692,412)"/>
<path d="M0 0 C1.32 0 2.64 0 4 0 C4 0.99 4 1.98 4 3 C3.34 3 2.68 3 2 3 C2 3.66 2 4.32 2 5 C1.01 4.67 0.02 4.34 -1 4 C-0.67 2.68 -0.34 1.36 0 0 Z " fill="#7EB19C" transform="translate(294,411)"/>
<path d="M0 0 C1.32 0.33 2.64 0.66 4 1 C3.01 2.485 3.01 2.485 2 4 C-1.125 4.1875 -1.125 4.1875 -4 4 C-4 3.34 -4 2.68 -4 2 C-2.68 2 -1.36 2 0 2 C0 1.34 0 0.68 0 0 Z " fill="#8B8C98" transform="translate(390,386)"/>
<path d="M0 0 C3 1 3 1 6 3 C2.7 3.33 -0.6 3.66 -4 4 C-4 3.34 -4 2.68 -4 2 C-2.68 2 -1.36 2 0 2 C0 1.34 0 0.68 0 0 Z " fill="#89B8A1" transform="translate(240,306)"/>
<path d="M0 0 C2 2 2 2 2 5 C1.34 5 0.68 5 0 5 C-0.33 5.66 -0.66 6.32 -1 7 C-1.33 5.35 -1.66 3.7 -2 2 C-1.34 2 -0.68 2 0 2 C0 1.34 0 0.68 0 0 Z " fill="#67686F" transform="translate(650,430)"/>
<path d="M0 0 C0.66 0 1.32 0 2 0 C1.67 2.64 1.34 5.28 1 8 C0.34 8 -0.32 8 -1 8 C-1.125 2.25 -1.125 2.25 0 0 Z " fill="#7B8183" transform="translate(889,430)"/>
<path d="M0 0 C0.33 0.66 0.66 1.32 1 2 C1.99 2 2.98 2 4 2 C4 3.32 4 4.64 4 6 C2.68 5.67 1.36 5.34 0 5 C0 3.35 0 1.7 0 0 Z " fill="#5F5B62" transform="translate(804,394)"/>
</svg>
