<?xml version="1.0" encoding="UTF-8"?>
<svg version="1.1" xmlns="http://www.w3.org/2000/svg" width="402" height="520">
<path d="M0 0 C2.42280652 -0.00389861 4.84561236 -0.00823563 7.26841736 -0.01298523 C12.294609 -0.02037307 17.32073024 -0.02020636 22.34692383 -0.01489258 C28.78719141 -0.00904087 35.2271767 -0.02620081 41.6673975 -0.04923725 C46.64731018 -0.06393996 51.62715374 -0.06485216 56.60708427 -0.06172752 C58.98375454 -0.06224029 61.36042872 -0.06746966 63.73707771 -0.07753944 C67.0411375 -0.08984845 70.34463124 -0.08315043 73.64868164 -0.0715332 C74.62472351 -0.07917694 75.60076538 -0.08682068 76.60638428 -0.09469604 C81.51368703 -0.05647713 85.04048504 0.00267734 88.96484375 3.30078125 C91.42101562 6.98503906 91.09545057 9.45784894 90.77734375 13.67578125 C90.70060425 14.78397217 90.70060425 14.78397217 90.62231445 15.91455078 C89.04336576 36.46858466 86.94212725 55.05116106 71.33984375 70.05078125 C56.93010878 81.89244464 40.40250308 83.41447697 22.5390625 83.4765625 C19.94204915 83.49975723 17.34504391 83.52387442 14.74804688 83.54882812 C10.69995019 83.58507402 6.65200732 83.6149721 2.60375977 83.62670898 C-1.33474862 83.63886381 -5.2726535 83.6825498 -9.2109375 83.7265625 C-10.40302322 83.72465408 -11.59510895 83.72274567 -12.82331848 83.72077942 C-27.47737194 83.93129015 -40.04221403 88.58810072 -50.84765625 98.61328125 C-59.83657102 108.24733344 -65.17841557 120.98015997 -65.14868164 134.12255859 C-65.14860611 135.24326752 -65.14853058 136.36397644 -65.14845276 137.51864624 C-65.14329147 138.71261017 -65.13813019 139.9065741 -65.1328125 141.13671875 C-65.13139755 142.37120758 -65.1299826 143.60569641 -65.12852478 144.87759399 C-65.12293897 148.810348 -65.110389 152.74304453 -65.09765625 156.67578125 C-65.09207537 159.34635333 -65.08807683 162.01692488 -65.08398438 164.6875 C-65.07297417 171.22527994 -65.0562501 177.76302649 -65.03515625 184.30078125 C-63.84578461 184.29411942 -62.65641296 184.28745758 -61.43099976 184.28059387 C-50.21919526 184.21976382 -39.00742428 184.17479943 -27.79549217 184.14534473 C-22.03139744 184.12969269 -16.26743599 184.10846257 -10.50341797 184.07446289 C-4.94022945 184.04185339 0.62283091 184.02392476 6.18610764 184.01614952 C8.30797722 184.0106089 10.42983983 183.99978946 12.55165482 183.98359108 C15.52498757 183.96179596 18.49779155 183.95881524 21.47119141 183.96020508 C22.34729065 183.94941925 23.22338989 183.93863342 24.1260376 183.92752075 C29.11910212 183.95275506 32.69050109 184.41639635 36.96484375 187.30078125 C39.66548424 195.40270271 37.62035992 204.9979958 36.65234375 213.30078125 C36.53439453 214.41195312 36.41644531 215.523125 36.29492188 216.66796875 C34.60161401 231.43013989 30.57115013 244.36150532 18.96484375 254.30078125 C16.42392557 255.98095479 13.80369955 257.42011513 11.08984375 258.80078125 C10.4546582 259.12691406 9.81947266 259.45304687 9.16503906 259.7890625 C-0.66661199 264.43549387 -11.10980962 264.58712232 -21.796875 264.49609375 C-23.06868118 264.49326385 -24.34048737 264.49043396 -25.65083313 264.48751831 C-28.99303131 264.47829108 -32.33494338 264.46039851 -35.67706299 264.43811035 C-39.10304322 264.41746145 -42.52905329 264.40847635 -45.95507812 264.3984375 C-52.64851485 264.37649951 -59.34181908 264.34311468 -66.03515625 264.30078125 C-66.03239087 264.88994103 -66.02962549 265.47910082 -66.02677631 266.08611393 C-65.96023935 280.48681251 -65.91074182 294.88749727 -65.87971973 309.28831577 C-65.86431516 316.25273252 -65.84334993 323.21704604 -65.80883789 330.18139648 C-65.77550175 336.91172122 -65.75826536 343.64191698 -65.75052452 350.3723278 C-65.74501325 352.9305381 -65.73425174 355.48874304 -65.71796608 358.04690742 C-65.54489916 386.37827156 -69.4004376 409.2561013 -90.03515625 430.30078125 C-90.7725 431.07421875 -91.50984375 431.84765625 -92.26953125 432.64453125 C-104.9243584 445.04456322 -122.62492471 451.55210759 -140.16015625 451.73828125 C-140.97846924 451.74859375 -141.79678223 451.75890625 -142.63989258 451.76953125 C-146.11106789 451.71739302 -148.43553126 451.62315017 -151.52734375 449.9609375 C-154.66681254 446.5042685 -154.17377298 442.45305359 -154.15541077 438.06855774 C-154.15626519 437.32687149 -154.15711962 436.58518524 -154.15799993 435.82102364 C-154.15965063 433.32898164 -154.15414004 430.83700654 -154.14868164 428.3449707 C-154.14839965 426.56129966 -154.14855773 424.7776285 -154.14912415 422.99395752 C-154.14941167 418.14510613 -154.1435221 413.29627936 -154.13655019 408.44743371 C-154.13030927 403.38253418 -154.12971226 398.31763411 -154.12852478 393.25273132 C-154.12541365 383.65864023 -154.11720318 374.0645605 -154.10717529 364.47047442 C-154.0960074 353.54921152 -154.090502 342.62794808 -154.08547986 331.70668089 C-154.0750204 309.23804137 -154.05742516 286.76941195 -154.03515625 264.30078125 C-154.77573776 264.31188431 -155.51631927 264.32298737 -156.27934265 264.33442688 C-163.26781304 264.43472383 -170.25617548 264.51079431 -177.24518108 264.55984211 C-180.83816485 264.58590669 -184.43055261 264.62124454 -188.02319336 264.67797852 C-191.49213811 264.7324146 -194.96051064 264.76222541 -198.42984962 264.77516747 C-200.39366676 264.78886574 -202.3572545 264.82788143 -204.32072449 264.86726379 C-213.13955322 264.87003718 -213.13955322 264.87003718 -217.34555054 262.19665527 C-219.39175727 258.68959036 -219.66868558 256.53247796 -219.68212891 252.47851562 C-219.6952713 251.47997307 -219.6952713 251.47997307 -219.7086792 250.46125793 C-219.73059693 248.27167615 -219.71615102 246.08413173 -219.69921875 243.89453125 C-219.70258916 242.36665461 -219.70744366 240.83878058 -219.7137146 239.31091309 C-219.72107547 236.11310224 -219.71040695 232.91599104 -219.68701172 229.71826172 C-219.65852299 225.62554995 -219.67493138 221.53447753 -219.70487404 217.44182587 C-219.72296912 214.2881034 -219.71717917 211.13476764 -219.70423508 207.98103333 C-219.7009071 206.47239486 -219.7049668 204.96372093 -219.71663284 203.4551239 C-219.72937982 201.34349013 -219.70991877 199.23448545 -219.68212891 197.12304688 C-219.67815094 195.92345337 -219.67417297 194.72385986 -219.67007446 193.48791504 C-218.85149449 189.37884422 -217.25381535 187.89815109 -214.03515625 185.30078125 C-210.90682736 184.25800495 -208.74326538 184.1800128 -205.4621582 184.18725586 C-204.32120193 184.18733139 -203.18024567 184.18740692 -202.00471497 184.18748474 C-200.7733934 184.19264603 -199.54207184 184.19780731 -198.2734375 184.203125 C-196.38204292 184.20524742 -196.38204292 184.20524742 -194.45243835 184.20741272 C-191.10363916 184.2120655 -187.75490814 184.22104783 -184.40612793 184.2321167 C-180.98755482 184.24235438 -177.56897466 184.24691539 -174.15039062 184.25195312 C-167.44529364 184.26299026 -160.74022888 184.27973439 -154.03515625 184.30078125 C-154.0440387 183.36134171 -154.05292114 182.42190216 -154.06207275 181.45399475 C-154.14376144 172.52666002 -154.2034073 163.59940279 -154.24240494 154.67177677 C-154.26312919 150.08383971 -154.29116319 145.49620842 -154.33691406 140.90844727 C-154.38092104 136.46689868 -154.40440676 132.02564098 -154.41466522 127.58389091 C-154.42195963 125.90370553 -154.43619798 124.22353297 -154.45807648 122.5434742 C-154.81458878 93.98651961 -143.64642799 63.49066929 -124.03515625 42.30078125 C-123.37515625 42.30078125 -122.71515625 42.30078125 -122.03515625 42.30078125 C-121.76316406 41.70523438 -121.49117188 41.1096875 -121.2109375 40.49609375 C-111.60852623 22.56733915 -85.10505863 12.07191826 -67.03515625 6.30078125 C-45.31705425 0.02579798 -22.41675054 -0.01525108 0 0 Z " fill="#48D070" transform="translate(261.03515625,34.69921875)"/>
<path d="M0 0 C2.42280652 -0.00389861 4.84561236 -0.00823563 7.26841736 -0.01298523 C12.294609 -0.02037307 17.32073024 -0.02020636 22.34692383 -0.01489258 C28.78719141 -0.00904087 35.2271767 -0.02620081 41.6673975 -0.04923725 C46.64731018 -0.06393996 51.62715374 -0.06485216 56.60708427 -0.06172752 C58.98375454 -0.06224029 61.36042872 -0.06746966 63.73707771 -0.07753944 C67.0411375 -0.08984845 70.34463124 -0.08315043 73.64868164 -0.0715332 C75.11274445 -0.08299881 75.11274445 -0.08299881 76.60638428 -0.09469604 C81.51368703 -0.05647713 85.04048504 0.00267734 88.96484375 3.30078125 C91.42101562 6.98503906 91.09545057 9.45784894 90.77734375 13.67578125 C90.72618408 14.4145752 90.67502441 15.15336914 90.62231445 15.91455078 C89.04336576 36.46858466 86.94212725 55.05116106 71.33984375 70.05078125 C56.93010878 81.89244464 40.40250308 83.41447697 22.5390625 83.4765625 C19.94204915 83.49975723 17.34504391 83.52387442 14.74804688 83.54882812 C10.69995019 83.58507402 6.65200732 83.6149721 2.60375977 83.62670898 C-1.33474862 83.63886381 -5.2726535 83.6825498 -9.2109375 83.7265625 C-10.40302322 83.72465408 -11.59510895 83.72274567 -12.82331848 83.72077942 C-27.47737194 83.93129015 -40.04221403 88.58810072 -50.84765625 98.61328125 C-59.83657102 108.24733344 -65.17841557 120.98015997 -65.14868164 134.12255859 C-65.14860611 135.24326752 -65.14853058 136.36397644 -65.14845276 137.51864624 C-65.14329147 138.71261017 -65.13813019 139.9065741 -65.1328125 141.13671875 C-65.13139755 142.37120758 -65.1299826 143.60569641 -65.12852478 144.87759399 C-65.12293897 148.810348 -65.110389 152.74304453 -65.09765625 156.67578125 C-65.09207537 159.34635333 -65.08807683 162.01692488 -65.08398438 164.6875 C-65.07297417 171.22527994 -65.0562501 177.76302649 -65.03515625 184.30078125 C-63.84578461 184.29411942 -62.65641296 184.28745758 -61.43099976 184.28059387 C-50.21919526 184.21976382 -39.00742428 184.17479943 -27.79549217 184.14534473 C-22.03139744 184.12969269 -16.26743599 184.10846257 -10.50341797 184.07446289 C-4.94022945 184.04185339 0.62283091 184.02392476 6.18610764 184.01614952 C8.30797722 184.0106089 10.42983983 183.99978946 12.55165482 183.98359108 C15.52498757 183.96179596 18.49779155 183.95881524 21.47119141 183.96020508 C22.34729065 183.94941925 23.22338989 183.93863342 24.1260376 183.92752075 C29.11910212 183.95275506 32.69050109 184.41639635 36.96484375 187.30078125 C39.66548424 195.40270271 37.62035992 204.9979958 36.65234375 213.30078125 C36.53439453 214.41195312 36.41644531 215.523125 36.29492188 216.66796875 C34.60234065 231.42380506 30.57378623 244.3704291 18.96484375 254.30078125 C8.82640231 260.97606498 -0.87266727 264.6297685 -13.03515625 262.30078125 C-13.03515625 261.97078125 -13.03515625 261.64078125 -13.03515625 261.30078125 C-11.45927734 261.04554688 -11.45927734 261.04554688 -9.8515625 260.78515625 C4.01359054 258.43739857 15.49502057 254.55414911 24.65234375 243.20703125 C31.53989039 233.2036897 32.28797781 220.84145152 33.65234375 209.11328125 C33.79478516 207.97697266 33.93722656 206.84066406 34.08398438 205.66992188 C34.74988887 199.98819943 35.27194499 194.90151203 33.96484375 189.30078125 C31.79800604 187.13394354 26.69951504 188.12488165 23.6875 188.11132812 C22.71360321 188.10303482 21.73970642 188.09474152 20.73629761 188.0861969 C18.61424412 188.06875414 16.49217092 188.05359902 14.37008667 188.04042053 C11.01758674 188.01947028 7.6651861 187.99244209 4.31274414 187.96374512 C-2.80318495 187.90393187 -9.91915955 187.85182326 -17.03515625 187.80078125 C-25.27715586 187.74166259 -33.51910647 187.67945289 -41.76101685 187.60890198 C-45.07430468 187.58221931 -48.38759714 187.56146988 -51.70092773 187.54089355 C-53.71989174 187.52429816 -55.7388535 187.507427 -57.7578125 187.49023438 C-59.1526738 187.48395775 -59.1526738 187.48395775 -60.57571411 187.47755432 C-66.92131279 187.41462471 -66.92131279 187.41462471 -68.03515625 186.30078125 C-68.19405504 184.95968305 -68.28658724 183.61063365 -68.3515625 182.26171875 C-68.3937793 181.38652588 -68.43599609 180.51133301 -68.47949219 179.60961914 C-70.99626405 117.1219178 -70.99626405 117.1219178 -54.41015625 97.48828125 C-43.37024103 86.06538255 -29.60782587 80.40717128 -13.84716797 79.80249023 C-11.38647882 79.78188056 -8.92556545 79.78061058 -6.46484375 79.796875 C-5.12735683 79.78947256 -3.78988037 79.77990554 -2.4524231 79.76832581 C1.02443782 79.74198441 4.5009554 79.73601623 7.97790527 79.73742676 C13.54554302 79.73967943 19.11275749 79.72492623 24.680233 79.6818409 C26.59475282 79.67220421 28.5093381 79.68104377 30.42385864 79.6905365 C46.13150738 79.59982178 60.14166505 75.967777 71.90234375 65.11328125 C81.03962781 55.28734159 83.93774229 43.09806493 85.58984375 30.17578125 C85.72173096 29.16056396 85.85361816 28.14534668 85.98950195 27.09936523 C86.89244623 19.7830068 87.34703208 12.67560059 86.96484375 5.30078125 C84.56579783 4.10125829 83.07192384 4.16983018 80.39263916 4.16033936 C79.42881317 4.15462921 78.46498718 4.14891907 77.47195435 4.14303589 C76.41032074 4.14191803 75.34868713 4.14080017 74.25488281 4.13964844 C73.13900787 4.13468353 72.02313293 4.12971863 70.8734436 4.12460327 C67.15911244 4.10993244 63.44482421 4.10316573 59.73046875 4.09765625 C57.14044189 4.09190167 54.55041503 4.08614398 51.96038818 4.0803833 C47.20693273 4.07120182 42.45349432 4.06491209 37.70003152 4.06188655 C30.75780256 4.05744218 23.81577409 4.04007599 16.87360597 4.01088595 C10.82630723 3.98636477 4.77908879 3.97892724 -1.26825714 3.977211 C-3.81788462 3.9742151 -6.3675119 3.96629252 -8.91710663 3.95302582 C-48.71210245 3.76101663 -83.66691122 10.20793947 -114.03515625 37.30078125 C-114.70417969 37.89632812 -115.37320313 38.491875 -116.0625 39.10546875 C-117.81929946 40.76719435 -119.43228463 42.4897919 -121.03515625 44.30078125 C-121.75574219 45.10515625 -122.47632813 45.90953125 -123.21875 46.73828125 C-135.30930769 61.28564027 -144.87233985 79.81240417 -149.03515625 98.30078125 C-149.20154099 99.00859238 -149.36792572 99.7164035 -149.53935242 100.44566345 C-151.3944685 109.26002744 -151.38584758 118.03922849 -151.44921875 127 C-151.46796483 128.68822642 -151.48754071 130.3764438 -151.50790405 132.06465149 C-151.55886832 136.47198115 -151.59868325 140.87934107 -151.63604736 145.2868042 C-151.67631302 149.79869857 -151.72730151 154.31047097 -151.77734375 158.82226562 C-151.8736793 167.64835366 -151.95821729 176.47450291 -152.03515625 185.30078125 C-152.69515625 184.97078125 -153.35515625 184.64078125 -154.03515625 184.30078125 C-154.1285367 174.42452857 -154.19926197 164.54838383 -154.24240494 154.67177677 C-154.26312919 150.08383971 -154.29116319 145.49620842 -154.33691406 140.90844727 C-154.38092104 136.46689868 -154.40440676 132.02564098 -154.41466522 127.58389091 C-154.42195963 125.90370553 -154.43619798 124.22353297 -154.45807648 122.5434742 C-154.81458878 93.98651961 -143.64642799 63.49066929 -124.03515625 42.30078125 C-123.37515625 42.30078125 -122.71515625 42.30078125 -122.03515625 42.30078125 C-121.76316406 41.70523438 -121.49117187 41.1096875 -121.2109375 40.49609375 C-111.60852623 22.56733915 -85.10505863 12.07191826 -67.03515625 6.30078125 C-45.31705425 0.02579798 -22.41675054 -0.01525108 0 0 Z " fill="#23CD57" transform="translate(261.03515625,34.69921875)"/>
<path d="M0 0 C1.12093552 0.00007553 2.24187103 0.00015106 3.39677429 0.00022888 C4.60622208 0.00539017 5.81566986 0.01055145 7.06176758 0.01586914 C8.30050125 0.01728409 9.53923492 0.01869904 10.81550598 0.02015686 C14.1051142 0.02480937 17.39467343 0.03379149 20.68426514 0.04486084 C24.04251506 0.0550991 27.40077216 0.05965965 30.7590332 0.06469727 C37.34564095 0.07573394 43.93221588 0.09247773 50.51879883 0.11352539 C50.51879883 0.77352539 50.51879883 1.43352539 50.51879883 2.11352539 C51.50879883 2.60852539 51.50879883 2.60852539 52.51879883 3.11352539 C51.78630417 3.12161224 51.05380951 3.1296991 50.29911804 3.13803101 C43.3980356 3.21595266 36.49712833 3.303236 29.59630108 3.40105247 C26.04845278 3.45101109 22.5006342 3.49734094 18.95263672 3.53540039 C14.87423869 3.57930808 10.79620338 3.63895769 6.71801758 3.69946289 C5.44294846 3.7110141 4.16787933 3.72256531 2.85417175 3.73446655 C1.67317398 3.75433624 0.49217621 3.77420593 -0.72460938 3.79467773 C-1.7660762 3.8080014 -2.80754303 3.82132507 -3.88056946 3.83505249 C-6.71600627 3.93570315 -6.71600627 3.93570315 -9.48120117 6.11352539 C-10.57529292 9.39580064 -10.61471692 11.82583413 -10.62646484 15.28149414 C-10.6328447 16.5529126 -10.63922455 17.82433105 -10.64579773 19.13427734 C-10.64732622 20.52319297 -10.64844028 21.91210911 -10.64916992 23.30102539 C-10.65238311 24.72444696 -10.65574723 26.14786819 -10.65925598 27.57128906 C-10.66524244 30.55380011 -10.66709632 33.5362822 -10.66650391 36.51879883 C-10.66640217 40.34223439 -10.68006819 44.16548472 -10.69727612 47.98887634 C-10.7083874 50.92794653 -10.7104234 53.86697175 -10.70989418 56.80606079 C-10.71107508 58.21587769 -10.71550304 59.62569571 -10.72322655 61.03549194 C-10.73301071 63.00548923 -10.72888822 64.97554082 -10.72412109 66.94555664 C-10.72625862 68.62742065 -10.72625862 68.62742065 -10.72843933 70.34326172 C-10.68491154 73.32637823 -10.68491154 73.32637823 -8.48120117 76.11352539 C-5.83072585 76.5710524 -5.83072585 76.5710524 -2.6862793 76.49829102 C-1.47161987 76.5084021 -0.25696045 76.51851318 0.99450684 76.52893066 C2.31221069 76.52590942 3.62991455 76.52288818 4.98754883 76.51977539 C6.34754692 76.52900311 7.70753423 76.5399718 9.06750488 76.5526123 C13.3845885 76.58943853 17.70158122 76.60311438 22.01879883 76.61352539 C27.0206775 76.62558746 32.02213148 76.64703809 37.02381897 76.69352722 C39.03019732 76.7071407 41.03667156 76.70272045 43.04309082 76.69812012 C44.25775024 76.7082312 45.47240967 76.71834229 46.72387695 76.72875977 C47.79706177 76.73081421 48.87024658 76.73286865 49.97595215 76.73498535 C50.81509155 76.85990356 51.65423096 76.98482178 52.51879883 77.11352539 C54.90677054 80.69548295 54.80066116 83.23626789 54.77708435 87.37025452 C54.78076006 88.11461319 54.78443576 88.85897186 54.78822285 89.62588686 C54.79822556 92.12712523 54.79404762 94.62814227 54.79003906 97.12939453 C54.79442471 98.91967506 54.79972627 100.70995355 54.80587769 102.50022888 C54.81738974 106.35857962 54.82283797 110.21687536 54.82375908 114.075243 C54.825696 120.17117968 54.84372731 126.26700213 54.86451721 132.36289978 C54.91375418 147.50282664 54.94462275 162.64278453 54.96582031 177.78277588 C54.98231945 189.54969219 55.00506201 201.31651082 55.04884106 213.08336157 C55.07068477 219.14846034 55.07866907 225.21337383 55.07644832 231.27850926 C55.07810946 235.04477055 55.09212298 238.81090979 55.1096611 242.57712746 C55.11528286 244.32913073 55.11572555 246.08115907 55.1107235 247.83316422 C55.10462892 250.21698492 55.11672753 252.60002724 55.13352966 254.98377991 C55.12421194 256.03420073 55.12421194 256.03420073 55.11470598 257.10584217 C55.10705353 259.2317392 55.10705353 259.2317392 55.51879883 262.11352539 C61.64187498 266.19557616 69.68872304 264.44196352 76.625 263.08618164 C95.43262689 258.93955077 111.29992508 249.19069391 122.48754883 233.30102539 C133.16631399 216.54357852 136.61258848 199.47834222 136.72412109 179.81054688 C136.73402069 178.71683273 136.74392029 177.62311859 136.75411987 176.4962616 C136.78551166 172.90906888 136.81040339 169.32186295 136.83520508 165.73461914 C136.85579391 163.23641124 136.87679087 160.73820668 136.8981781 158.24000549 C136.94758671 152.35419415 136.99290297 146.46836261 137.03620046 140.58250338 C137.09063512 133.21715818 137.15148839 125.85186828 137.2121582 118.48657227 C137.31949583 105.36226101 137.42117276 92.2379123 137.51879883 79.11352539 C138.17879883 79.44352539 138.83879883 79.77352539 139.51879883 80.11352539 C139.58918565 95.10933102 139.64193126 110.10512374 139.67423534 125.10105991 C139.68963992 132.06547666 139.71060515 139.02979018 139.74511719 145.99414062 C139.77845333 152.72446536 139.79568972 159.45466113 139.80343056 166.18507195 C139.80894183 168.74328224 139.81970334 171.30148718 139.835989 173.85965157 C140.00905592 202.19101571 136.15351748 225.06884544 115.51879883 246.11352539 C114.78145508 246.88696289 114.04411133 247.66040039 113.28442383 248.45727539 C100.62959668 260.85730736 82.92903037 267.36485173 65.39379883 267.55102539 C64.57548584 267.56133789 63.75717285 267.57165039 62.9140625 267.58227539 C59.44288718 267.53013716 57.11842381 267.43589431 54.02661133 265.77368164 C50.88714254 262.31701264 51.3801821 258.26579773 51.39854431 253.88130188 C51.39768989 253.13961563 51.39683546 252.39792938 51.39595515 251.63376778 C51.39430445 249.14172578 51.39981503 246.64975068 51.40527344 244.15771484 C51.40555542 242.3740438 51.40539735 240.59037264 51.40483093 238.80670166 C51.4045434 233.95785027 51.41043298 229.1090235 51.41740489 224.26017785 C51.42364581 219.19527832 51.42424281 214.13037825 51.4254303 209.06547546 C51.42854143 199.47138437 51.43675189 189.87730464 51.44677979 180.28321856 C51.45794768 169.36195566 51.46345308 158.44069222 51.46847522 147.51942503 C51.47893468 125.05078551 51.49652992 102.58215609 51.51879883 80.11352539 C50.77821732 80.12462845 50.0376358 80.13573151 49.27461243 80.14717102 C42.28614204 80.24746797 35.29777959 80.32353845 28.30877399 80.37258625 C24.71579023 80.39865083 21.12340247 80.43398868 17.53076172 80.49072266 C14.06181697 80.54515874 10.59344444 80.57496955 7.12410545 80.58791161 C5.16028832 80.60160988 3.19670058 80.64062557 1.23323059 80.68000793 C-7.58559814 80.68278133 -7.58559814 80.68278133 -11.79159546 78.00939941 C-13.83780219 74.5023345 -14.1147305 72.3452221 -14.12817383 68.29125977 C-14.14131622 67.29271721 -14.14131622 67.29271721 -14.15472412 66.27400208 C-14.17664186 64.08442029 -14.16219594 61.89687587 -14.14526367 59.70727539 C-14.14863409 58.17939875 -14.15348859 56.65152472 -14.15975952 55.12365723 C-14.16712039 51.92584638 -14.15645187 48.72873518 -14.13305664 45.53100586 C-14.10456791 41.43829409 -14.1209763 37.34722167 -14.15091896 33.25457001 C-14.16901404 30.10084754 -14.1632241 26.94751178 -14.15028 23.79377747 C-14.14695202 22.285139 -14.15101172 20.77646507 -14.16267776 19.26786804 C-14.17542475 17.15623427 -14.15596369 15.04722959 -14.12817383 12.93579102 C-14.12419586 11.73619751 -14.1202179 10.536604 -14.11611938 9.30065918 C-13.29753941 5.19158836 -11.69986027 3.71089523 -8.48120117 1.11352539 C-5.37786234 0.07907911 -3.25243869 -0.00730885 0 0 Z " fill="#2BC958" transform="translate(55.481201171875,218.886474609375)"/>
<path d="M0 0 C1.12093552 0.00007553 2.24187103 0.00015106 3.39677429 0.00022888 C4.60622208 0.00539017 5.81566986 0.01055145 7.06176758 0.01586914 C8.30050125 0.01728409 9.53923492 0.01869904 10.81550598 0.02015686 C14.1051142 0.02480937 17.39467343 0.03379149 20.68426514 0.04486084 C24.04251506 0.0550991 27.40077216 0.05965965 30.7590332 0.06469727 C37.34564095 0.07573394 43.93221588 0.09247773 50.51879883 0.11352539 C50.51879883 0.77352539 50.51879883 1.43352539 50.51879883 2.11352539 C51.50879883 2.60852539 51.50879883 2.60852539 52.51879883 3.11352539 C51.78630417 3.12161224 51.05380951 3.1296991 50.29911804 3.13803101 C43.3980356 3.21595266 36.49712833 3.303236 29.59630108 3.40105247 C26.04845278 3.45101109 22.5006342 3.49734094 18.95263672 3.53540039 C14.87423869 3.57930808 10.79620338 3.63895769 6.71801758 3.69946289 C5.44294846 3.7110141 4.16787933 3.72256531 2.85417175 3.73446655 C1.67317398 3.75433624 0.49217621 3.77420593 -0.72460938 3.79467773 C-1.7660762 3.8080014 -2.80754303 3.82132507 -3.88056946 3.83505249 C-6.71600627 3.93570315 -6.71600627 3.93570315 -9.48120117 6.11352539 C-10.57091165 9.38265683 -10.62126365 11.8083619 -10.64233398 15.24975586 C-10.65194153 16.51471893 -10.66154907 17.77968201 -10.67144775 19.08297729 C-10.67629567 20.46555399 -10.68057452 21.84813278 -10.68432617 23.23071289 C-10.69008008 24.64934287 -10.69583778 26.06797283 -10.70159912 27.48660278 C-10.71210006 30.46071738 -10.7179487 33.43480502 -10.72143555 36.40893555 C-10.72691939 40.21431829 -10.75094849 44.01934306 -10.7794075 47.82461357 C-10.79805832 50.75518832 -10.80324076 53.68567723 -10.80477142 56.6163063 C-10.80779282 58.01890139 -10.81580409 59.42149515 -10.8289566 60.82403183 C-10.84606671 62.78878414 -10.84228487 64.75368452 -10.83764648 66.71850586 C-10.84311493 68.39370804 -10.84311493 68.39370804 -10.84869385 70.10275269 C-10.43852616 73.46315077 -9.41289136 75.36798176 -7.48120117 78.11352539 C-9.91870117 77.73852539 -9.91870117 77.73852539 -12.48120117 77.11352539 C-13.90607212 74.26378349 -13.64010519 71.81781208 -13.67407227 68.63183594 C-13.68224976 67.96657898 -13.69042725 67.30132202 -13.69885254 66.61590576 C-13.72369811 64.41069438 -13.74022059 62.20554735 -13.75463867 60.00024414 C-13.75996235 59.24707224 -13.76528603 58.49390034 -13.77077103 57.71790504 C-13.7974995 53.73105512 -13.81687496 49.74423647 -13.83129883 45.75732422 C-13.84794282 41.6411836 -13.89271809 37.52584427 -13.94367027 33.41000652 C-13.97734238 30.24352611 -13.98887611 27.07723588 -13.99452591 23.91059303 C-14.00123902 22.39352103 -14.01646292 20.87646157 -14.04041672 19.35956383 C-14.07207312 17.23351325 -14.07210616 15.10962324 -14.06469727 12.98339844 C-14.07278412 11.77475632 -14.08087097 10.5661142 -14.08920288 9.32084656 C-13.30456298 5.18172633 -11.71997141 3.71957797 -8.48120117 1.11352539 C-5.37786234 0.07907911 -3.25243869 -0.00730885 0 0 Z " fill="#17C04D" transform="translate(55.481201171875,218.886474609375)"/>
<path d="M0 0 C0.66 0.99 1.32 1.98 2 3 C1.62230469 3.55042969 1.24460938 4.10085937 0.85546875 4.66796875 C-8.60567604 18.95939355 -17.05398734 34.22517564 -21 51 C-21.16865067 51.71234299 -21.33730133 52.42468597 -21.51106262 53.15861511 C-23.36004531 61.96804569 -23.35073188 70.74418125 -23.4140625 79.69921875 C-23.43280858 81.38744517 -23.45238446 83.07566255 -23.4727478 84.76387024 C-23.52371207 89.1711999 -23.563527 93.57855982 -23.60089111 97.98602295 C-23.64115677 102.49791732 -23.69214526 107.00968972 -23.7421875 111.52148438 C-23.83852305 120.34757241 -23.92306104 129.17372166 -24 138 C-24.66 137.67 -25.32 137.34 -26 137 C-26.09338045 127.12374732 -26.16410572 117.24760258 -26.20724869 107.37099552 C-26.22797294 102.78305846 -26.25600694 98.19542717 -26.30175781 93.60766602 C-26.34576479 89.16611743 -26.36925051 84.72485973 -26.37950897 80.28310966 C-26.38680338 78.60292428 -26.40104173 76.92275172 -26.42292023 75.24269295 C-26.77939362 46.68885544 -15.64515366 23.4677305 0 0 Z " fill="#1DC651" transform="translate(133,82)"/>
<path d="M0 0 C7.56224854 -0.02540625 15.12448603 -0.04289056 22.68676758 -0.05493164 C25.25806083 -0.05995275 27.82935123 -0.06677092 30.40063477 -0.07543945 C34.10173241 -0.08760235 37.80279223 -0.09325063 41.50390625 -0.09765625 C43.22148888 -0.10539818 43.22148888 -0.10539818 44.97377014 -0.11329651 C50.4261185 -0.11367762 55.63088905 0.02471838 61 1 C59 3 59 3 56.5196228 3.24050903 C55.47593536 3.23606781 54.43224792 3.23162659 53.35693359 3.22705078 C52.17586029 3.22689972 50.99478699 3.22674866 49.77792358 3.22659302 C48.49769318 3.21627045 47.21746277 3.20594788 45.8984375 3.1953125 C43.93833237 3.19106766 43.93833237 3.19106766 41.93862915 3.18673706 C38.46317919 3.17909776 34.98789617 3.1594469 31.51251221 3.1373291 C27.96669778 3.11687696 24.4208564 3.10773671 20.875 3.09765625 C13.91659805 3.07620116 6.95830704 3.04206173 0 3 C0 2.01 0 1.02 0 0 Z " fill="#36CA62" transform="translate(194,296)"/>
<path d="M0 0 C0.66 0 1.32 0 2 0 C2.33 6.93 2.66 13.86 3 21 C7.62 21 12.24 21 17 21 C17 21.66 17 22.32 17 23 C44.72 23 72.44 23 101 23 C101 23.33 101 23.66 101 24 C87.9788936 24.023121 74.95779205 24.04091384 61.93666935 24.05181217 C55.89112183 24.05704153 49.8455883 24.06414014 43.80004883 24.07543945 C37.97105712 24.08626645 32.14207891 24.09227643 26.31307793 24.09487724 C24.0838239 24.09673183 21.85457065 24.10035308 19.62532234 24.10573006 C16.51460266 24.11293799 13.40393951 24.11399105 10.29321289 24.11352539 C9.36173431 24.11712067 8.43025574 24.12071594 7.47055054 24.12442017 C1.11405216 24.11405216 1.11405216 24.11405216 0 23 C-0.08713831 21.29227642 -0.10700007 19.58101351 -0.09765625 17.87109375 C-0.09443359 16.83662109 -0.09121094 15.80214844 -0.08789062 14.73632812 C-0.07951172 13.64771484 -0.07113281 12.55910156 -0.0625 11.4375 C-0.05798828 10.34501953 -0.05347656 9.25253906 -0.04882812 8.12695312 C-0.03699826 5.41791505 -0.02051543 2.70898401 0 0 Z " fill="#19C149" transform="translate(193,198)"/>
<path d="M0 0 C10.6050999 -0.0463488 21.21017568 -0.08188219 31.81535625 -0.10362434 C36.73981492 -0.11405969 41.66420427 -0.12821443 46.58862305 -0.15087891 C51.3413187 -0.17261604 56.09394769 -0.1845705 60.84668922 -0.18975449 C62.65956484 -0.19344867 64.47243682 -0.20066246 66.28528404 -0.21146011 C68.82527922 -0.22598656 71.36499923 -0.22797746 73.9050293 -0.22705078 C75.02820557 -0.23783661 75.02820557 -0.23783661 76.17407227 -0.24884033 C80.22779164 -0.23284656 83.35144353 0.19625629 87 2 C86.67 2.99 86.34 3.98 86 5 C85.01 4.505 85.01 4.505 84 4 C84 3.34 84 2.68 84 2 C56.28 2 28.56 2 0 2 C0 1.34 0 0.68 0 0 Z " fill="#15DE68" transform="translate(210,219)"/>
<path d="M0 0 C2.97 0.495 2.97 0.495 6 1 C6.495 2.98 6.495 2.98 7 5 C6.01 4.67 5.02 4.34 4 4 C2.55349229 3.90015752 1.10292903 3.85390741 -0.3469696 3.84178162 C-1.23457977 3.8319928 -2.12218994 3.82220398 -3.03669739 3.81211853 C-4.00773911 3.80636307 -4.97878082 3.8006076 -5.97924805 3.79467773 C-7.00381104 3.78477814 -8.02837402 3.77487854 -9.08398438 3.76467896 C-12.47653885 3.73304663 -15.86910734 3.70829959 -19.26171875 3.68359375 C-21.61156075 3.66302573 -23.96139903 3.6420293 -26.31123352 3.62062073 C-32.50079342 3.56538443 -38.69038679 3.51598198 -44.88000488 3.46777344 C-51.19412216 3.41756982 -57.50819073 3.3618778 -63.82226562 3.30664062 C-76.21480216 3.19903998 -88.60738095 3.0975992 -101 3 C-101 2.67 -101 2.34 -101 2 C-67.67 1.67 -34.34 1.34 0 1 C0 0.67 0 0.34 0 0 Z " fill="#16C248" transform="translate(342,35)"/>
<path d="M0 0 C0.33 0 0.66 0 1 0 C1 11.22 1 22.44 1 34 C0.01 34 -0.98 34 -2 34 C-2 23.77 -2 13.54 -2 3 C-1.34 3 -0.68 3 0 3 C0 2.01 0 1.02 0 0 Z " fill="#2FC859" transform="translate(194,164)"/>
<path d="M0 0 C5.17694429 7.76541644 1.3592926 22.08920598 0 31 C-0.31725224 32.33725088 -0.64623376 33.67194189 -1 35 C-1.66 35 -2.32 35 -3 35 C-3.28692157 27.33281798 -2.54708036 20.06554781 -1.44140625 12.48046875 C-0.94826919 8.59210487 -0.92182273 4.90886344 -1 1 C-0.67 0.67 -0.34 0.34 0 0 Z " fill="#1EC94C" transform="translate(297,222)"/>
<path d="M0 0 C0.66 0.33 1.32 0.66 2 1 C-3.92025013 7.21408607 -9.39666692 12.83968567 -17 17 C-17.33 16.34 -17.66 15.68 -18 15 C-12.16541771 9.78473092 -6.14332374 4.84667959 0 0 Z " fill="#27CD57" transform="translate(174,459)"/>
<path d="M0 0 C-0.66 0 -1.32 0 -2 0 C-2.33 0.99 -2.66 1.98 -3 3 C-9.28538239 5.79350328 -15.31402124 4.81241778 -22 4 C-22 3.67 -22 3.34 -22 3 C-20.87980469 2.79503906 -19.75960937 2.59007812 -18.60546875 2.37890625 C-17.13279176 2.10688311 -15.66013664 1.83474151 -14.1875 1.5625 C-13.44951172 1.42779297 -12.71152344 1.29308594 -11.95117188 1.15429688 C-2.04853289 -0.6828443 -2.04853289 -0.6828443 0 0 Z " fill="#22C84D" transform="translate(270,293)"/>
<path d="M0 0 C0.66 0.99 1.32 1.98 2 3 C-3.24860576 7.12985533 -8.53381887 11.16204304 -14 15 C-11.07677112 8.09054992 -6.05831124 4.03887416 0 0 Z " fill="#1BC949" transform="translate(161,56)"/>
<path d="M0 0 C0.598125 0.804375 1.19625 1.60875 1.8125 2.4375 C5.61924313 6.35490427 10.84652934 5.90072123 16 6 C16 6.66 16 7.32 16 8 C13.91731407 8.08126087 11.83371342 8.13930839 9.75 8.1875 C8.58984375 8.22230469 7.4296875 8.25710938 6.234375 8.29296875 C2.77731593 7.97982934 1.48434437 7.34290892 -1 5 C-0.67 3.35 -0.34 1.7 0 0 Z " fill="#19C44A" transform="translate(109,478)"/>
<path d="M0 0 C0.99 0.66 1.98 1.32 3 2 C2.01 6.95 1.02 11.9 0 17 C-0.99 17.33 -1.98 17.66 -3 18 C-2.6889315 15.93728361 -2.37608484 13.87483534 -2.0625 11.8125 C-1.88847656 10.66394531 -1.71445313 9.51539063 -1.53515625 8.33203125 C-1.08620687 5.53674788 -0.57917838 2.77066414 0 0 Z " fill="#1BC74C" transform="translate(192,414)"/>
<path d="M0 0 C0.66 0.99 1.32 1.98 2 3 C-0.31 6.63 -2.62 10.26 -5 14 C-5.66 13.01 -6.32 12.02 -7 11 C-4.69 7.37 -2.38 3.74 0 0 Z " fill="#1BC847" transform="translate(133,82)"/>
<path d="M0 0 C0.33 0.99 0.66 1.98 1 3 C-0.2065625 3.6496875 -0.2065625 3.6496875 -1.4375 4.3125 C-4.27846354 5.80474002 -4.27846354 5.80474002 -5 9 C-5.99 9 -6.98 9 -8 9 C-7.6655974 5.90677596 -7.4404882 4.41112232 -5.125 2.25 C-3 1 -3 1 0 0 Z " fill="#15C93E" transform="translate(50,219)"/>
<path d="M0 0 C0.33 0 0.66 0 1 0 C0.46148032 5.27749285 -0.77343836 9.25645564 -3 14 C-4.1484375 12.328125 -4.1484375 12.328125 -5 10 C-4.1015625 7.421875 -4.1015625 7.421875 -2.625 4.75 C-2.14289063 3.85796875 -1.66078125 2.9659375 -1.1640625 2.046875 C-0.77992188 1.37140625 -0.39578125 0.6959375 0 0 Z " fill="#1ECF4D" transform="translate(201,140)"/>
<path d="M0 0 C0 4.38968456 -2.12805101 5.76905739 -5 9 C-6.32 8.67 -7.64 8.34 -9 8 C-7.87811441 6.85111717 -6.75238316 5.70598863 -5.625 4.5625 C-4.99851562 3.92441406 -4.37203125 3.28632812 -3.7265625 2.62890625 C-2 1 -2 1 0 0 Z " fill="#28C95C" transform="translate(339,94)"/>
<path d="M0 0 C0.6796875 1.734375 0.6796875 1.734375 1 4 C-0.1796875 6.140625 -0.1796875 6.140625 -1.875 8.25 C-2.42929688 8.95640625 -2.98359375 9.6628125 -3.5546875 10.390625 C-4.03164062 10.92171875 -4.50859375 11.4528125 -5 12 C-5.33 12 -5.66 12 -6 12 C-6.375 9.9375 -6.375 9.9375 -6 7 C-4.20822891 4.46427718 -2.15761879 2.22825512 0 0 Z " fill="#2DC652" transform="translate(208,131)"/>
<path d="M0 0 C0.33 0.99 0.66 1.98 1 3 C-2.3 3.33 -5.6 3.66 -9 4 C-8.67 3.01 -8.34 2.02 -8 1 C-2.25 0 -2.25 0 0 0 Z " fill="#2CC859" transform="translate(134,482)"/>
<path d="M0 0 C-4.95 2.97 -4.95 2.97 -10 6 C-10.33 5.34 -10.66 4.68 -11 4 C-10.34 4 -9.68 4 -9 4 C-8.67 3.01 -8.34 2.02 -8 1 C-2.59770115 -1.29885057 -2.59770115 -1.29885057 0 0 Z " fill="#2FC75D" transform="translate(279,289)"/>
<path d="M0 0 C1.5 1 1.5 1 3 3 C3.27345479 5.71846235 3.13491285 8.25677199 3 11 C1.5 10 1.5 10 0 8 C-0.27345479 5.28153765 -0.13491285 2.74322801 0 0 Z " fill="#26CF5D" transform="translate(349,38)"/>
<path d="M0 0 C0.99 0 1.98 0 3 0 C2.67 2.64 2.34 5.28 2 8 C1.01 7.67 0.02 7.34 -1 7 C-0.67 4.69 -0.34 2.38 0 0 Z " fill="#24CB5C" transform="translate(293,257)"/>
<path d="M0 0 C2.20914 3.31371 2.22481553 4.3446021 2.125 8.1875 C2.10695313 9.08855469 2.08890625 9.98960937 2.0703125 10.91796875 C2.03550781 11.94857422 2.03550781 11.94857422 2 13 C-0.23302527 8.94409696 -0.62386798 5.58881061 -1 1 C-0.67 0.67 -0.34 0.34 0 0 Z " fill="#0ED339" transform="translate(297,222)"/>
<path d="M0 0 C1.32 0.33 2.64 0.66 4 1 C0.535 3.97 0.535 3.97 -3 7 C-2.25 2.25 -2.25 2.25 0 0 Z " fill="#23D05F" transform="translate(212,127)"/>
<path d="M0 0 C0.66 0.33 1.32 0.66 2 1 C-0.64 3.64 -3.28 6.28 -6 9 C-6.33 8.34 -6.66 7.68 -7 7 C-4.78071806 4.09197539 -3.07030857 2.04687238 0 0 Z " fill="#2FC659" transform="translate(174,459)"/>
<path d="M0 0 C1 3 1 3 -0.4375 6.1875 C-1.2109375 7.5796875 -1.2109375 7.5796875 -2 9 C-2.99 8.67 -3.98 8.34 -5 8 C-3.8141763 4.62496331 -2.72426311 2.35277269 0 0 Z " fill="#17C04F" transform="translate(118,110)"/>
<path d="M0 0 C0.33 0.66 0.66 1.32 1 2 C1.66 2.33 2.32 2.66 3 3 C-1.455 3.495 -1.455 3.495 -6 4 C-5.67 3.01 -5.34 2.02 -5 1 C-3.35 0.67 -1.7 0.34 0 0 Z " fill="#1AC945" transform="translate(207,38)"/>
<path d="M0 0 C1.32 0.66 2.64 1.32 4 2 C2.02 2.99 0.04 3.98 -2 5 C-2.66 4.34 -3.32 3.68 -4 3 C-2.68 2.01 -1.36 1.02 0 0 Z " fill="#20D14E" transform="translate(218,123)"/>
<path d="M0 0 C0.66 0 1.32 0 2 0 C1.75 1.875 1.75 1.875 1 4 C-1.0625 5.25 -1.0625 5.25 -3 6 C-2.42655063 3.13275314 -2.1385485 2.1385485 0 0 Z " fill="#29C95E" transform="translate(137,78)"/>
<path d="M0 0 C1.65 1.65 3.3 3.3 5 5 C3.02 5.99 3.02 5.99 1 7 C0.34 6.34 -0.32 5.68 -1 5 C-0.625 2.375 -0.625 2.375 0 0 Z " fill="#12C942" transform="translate(109,478)"/>
<path d="M0 0 C0.66 0 1.32 0 2 0 C2 2.31 2 4.62 2 7 C1.01 7 0.02 7 -1 7 C-0.67 4.69 -0.34 2.38 0 0 Z " fill="#27C856" transform="translate(109,131)"/>
</svg>
